<svg width="15" height="30" fill="none" xmlns="http://www.w3.org/2000/svg"><path fill-rule="evenodd" clip-rule="evenodd" d="M7.23 10.127c-.153-.363-.376-.707-.596-1.033-.347-.512-.714-1.008-1.036-1.536-.33-.545-.62-1.135-.742-1.765a3.234 3.234 0 01-.06-.614c0-1.289 1.196-2.684 1.9-3.705.207-.3.472-.551.6-.902L7.501 0l.212.57c.138.374.397.74.63 1.06.342.472.703.928 1.019 1.419.334.518.628 1.088.738 1.7.05.28.06.565.023.846-.1.752-.648 1.762-1.03 2.421-.312.54-.65 1.066-1.017 1.568a7.69 7.69 0 01-.475.604l-.234.263-.138-.324zM6.815 30l-5.28-2.684-.016-.012C1.01 26.922.604 26.47.35 25.881c-.278-.648-.336-1.373-.347-2.07-.014-.811.024-1.62.035-2.43l.005-.365.322.17c.712.374 1.428.74 2.145 1.105.6.305 1.201.608 1.79.936.71.395 1.513.876 1.95 1.583.349.564.455 1.237.507 1.887.039.475.049.952.054 1.428.006.504.005 1.008.004 1.512V30zm1.378-14.08c0-.633.002-1.267.017-1.901.012-.524.031-1.049.088-1.57.07-.63.194-1.302.602-1.81.401-.497 1.074-.83 1.636-1.117.453-.23.908-.457 1.358-.694.61-.321 1.21-.66 1.8-1.018.32-.195.622-.374.979-.494l.294-.1v.311c0 .617-.003 1.233-.018 1.85-.013.52-.033 1.041-.09 1.559-.074.656-.208 1.341-.62 1.876-.408.529-1.065.88-1.65 1.18-.45.231-.908.45-1.363.676-.606.3-1.208.611-1.802.936-.316.172-.588.39-.926.524l-.306.122v-.33zm0 13.718c-.001-.523-.002-1.046.003-1.569.005-.485.014-.972.053-1.456.052-.65.156-1.328.512-1.887.439-.688 1.25-1.151 1.952-1.531.59-.318 1.19-.614 1.789-.915.716-.36 1.431-.722 2.14-1.095l.323-.168.005.364c.01.835.046 1.67.022 2.505-.022.729-.098 1.488-.416 2.153-.27.563-.679.99-1.215 1.354L8.193 30v-.362zm-1.704-6.785c-.776-.407-1.558-.807-2.323-1.236a72.776 72.776 0 00-1.334-.726c-.339-.18-.679-.36-1.011-.551-.45-.259-.925-.558-1.23-.988-.364-.516-.453-1.192-.498-1.807a23.302 23.302 0 01-.05-1.536C.038 15.42.04 14.83.041 14.241v-.371l2.647 1.41c.812.432 1.64.845 2.413 1.345.47.304.93.656 1.225 1.144.336.556.419 1.233.458 1.87.03.482.034.966.035 1.45.002.523-.002 1.045-.003 1.567l-.001.368-.326-.17zm.029-6.721c-.482-.179-.948-.46-1.394-.712-.335-.19-.668-.382-1.012-.553-.812-.405-1.64-.796-2.407-1.282-.469-.297-.922-.643-1.21-1.128-.329-.556-.404-1.237-.437-1.87-.026-.48-.026-.96-.025-1.44.001-.515.006-1.03.007-1.544l.002-.367L5.275 9.98c1.546 1.004 1.631 2.798 1.59 4.461-.012.495-.038.99-.047 1.484l-.006.315-.294-.11zM8.19 22.66c-.01-.83-.05-1.658-.03-2.487.015-.717.083-1.465.388-2.123.273-.592.703-1.035 1.238-1.397.302-.206.63-.377.95-.554.52-.287 1.044-.566 1.572-.84a44.984 44.984 0 011.68-.836c.223-.104.447-.21.676-.299l.303-.117v.326c0 .543.001 1.086-.007 1.629-.007.486-.019.971-.061 1.455-.057.656-.17 1.335-.532 1.898-.446.693-1.254 1.16-1.961 1.545-.585.318-1.182.613-1.777.913-.707.355-1.412.714-2.112 1.081l-.322.17-.005-.364zM7.68 7.57l.004-.013c.024-.082.08-.168.123-.242.076-.13.154-.259.228-.39a4.89 4.89 0 00.48-1.1c.312-1.127-.082-2.019-1.006-2.696l-.005-.004-.006.004c-1.296.95-1.442 2.2-.657 3.56.3.52.203.712.83.88l.01.001zM1.55 23.54v.012c0 .616-.021 1.504.321 2.038.206.322.532.53.868.697.863.43 1.702.905 2.553 1.356l.014.007v-.015c0-.595.026-1.452-.278-1.978-.2-.346-.542-.587-.876-.792a22.21 22.21 0 00-1.248-.69 23.21 23.21 0 00-.801-.405c-.168-.08-.362-.18-.54-.227l-.012-.003zm8.153-9.843l.01-.003c.195-.045.394-.13.578-.208a20.402 20.402 0 001.547-.746c.178-.096.359-.193.528-.306.313-.21.625-.454.814-.789.29-.515.277-1.294.277-1.872V9.76l-.012.002c-.817.19-1.884.863-2.609 1.303-.33.202-.727.45-.92.796-.257.458-.213 1.304-.213 1.823v.012zm3.754 9.843l-.012.003c-.17.04-.375.145-.534.22a37.52 37.52 0 00-2.075 1.082c-.348.197-.719.437-.914.798-.274.506-.22 1.423-.22 1.992v.015l2.56-1.37c.334-.19.666-.417.874-.748.334-.53.321-1.371.321-1.98v-.012zM1.551 16.391v.015c0 .586-.045 1.475.24 1.997.197.359.546.598.893.793a38.664 38.664 0 002.061 1.074c.17.08.367.18.548.228l.013.003v-.012c0-.652-.008-1.496-.387-2.054-.269-.396-.716-.664-1.128-.89-.731-.402-1.489-.756-2.226-1.147l-.014-.007zm0-6.631v.012c0 .6-.019 1.457.31 1.98.21.33.552.557.885.748a20.95 20.95 0 001.977.99c.182.077.378.159.57.203l.013.003v-.012c0-.578.02-1.407-.295-1.912-.218-.349-.595-.578-.951-.766-.329-.172-.65-.36-.973-.543-.452-.254-1.019-.583-1.524-.7L1.55 9.76zm8.152 10.744l.013-.007c.685-.364 1.395-.677 2.094-1.013.408-.197.867-.427 1.159-.784.478-.586.488-1.572.488-2.294v-.015l-.014.007c-.85.451-1.69.926-2.552 1.355-.336.167-.662.376-.868.698-.343.534-.32 1.421-.32 2.038v.015z" fill="#0B582C"/></svg>