<svg width="30" height="30" fill="none" xmlns="http://www.w3.org/2000/svg"><path d="M15 12.017A2.987 2.987 0 0012.016 15 2.988 2.988 0 0015 17.984 2.987 2.987 0 0017.983 15 2.987 2.987 0 0015 12.017zm0 0A2.987 2.987 0 0012.016 15 2.988 2.988 0 0015 17.984 2.987 2.987 0 0017.983 15 2.987 2.987 0 0015 12.017zm4.97-4.864h-9.94a2.88 2.88 0 00-2.877 2.877v9.94a2.88 2.88 0 002.877 2.877h9.94a2.88 2.88 0 002.877-2.877v-9.94a2.88 2.88 0 00-2.877-2.877zM15 20.167A5.173 5.173 0 019.833 15 5.172 5.172 0 0115 9.833 5.173 5.173 0 0120.166 15 5.173 5.173 0 0115 20.166zm5.332-9.265a1.224 1.224 0 01-1.222-1.223 1.223 1.223 0 111.222 1.223zM15 12.017A2.987 2.987 0 0012.016 15 2.988 2.988 0 0015 17.984 2.987 2.987 0 0017.983 15 2.987 2.987 0 0015 12.017zm4.97-4.864h-9.94a2.88 2.88 0 00-2.877 2.877v9.94a2.88 2.88 0 002.877 2.877h9.94a2.88 2.88 0 002.877-2.877v-9.94a2.88 2.88 0 00-2.877-2.877zM15 20.167A5.173 5.173 0 019.833 15 5.172 5.172 0 0115 9.833 5.173 5.173 0 0120.166 15 5.173 5.173 0 0115 20.166zm5.332-9.265a1.224 1.224 0 01-1.222-1.223 1.223 1.223 0 111.222 1.223zM15 12.017A2.987 2.987 0 0012.016 15 2.988 2.988 0 0015 17.984 2.987 2.987 0 0017.983 15 2.987 2.987 0 0015 12.017zM0 0v30h30V0H0zm25.03 19.97c0 2.79-2.27 5.06-5.06 5.06h-9.94c-2.79 0-5.06-2.27-5.06-5.06v-9.94c0-2.79 2.27-5.06 5.06-5.06h9.94c2.79 0 5.06 2.27 5.06 5.06v9.94zM19.97 7.153h-9.94a2.88 2.88 0 00-2.877 2.877v9.94a2.88 2.88 0 002.877 2.877h9.94a2.88 2.88 0 002.877-2.877v-9.94a2.88 2.88 0 00-2.877-2.877zM15 20.167A5.173 5.173 0 019.833 15 5.172 5.172 0 0115 9.833 5.173 5.173 0 0120.166 15 5.173 5.173 0 0115 20.166zm5.332-9.265a1.224 1.224 0 01-1.222-1.223 1.223 1.223 0 111.222 1.223zM15 12.017A2.987 2.987 0 0012.016 15 2.988 2.988 0 0015 17.984 2.987 2.987 0 0017.983 15 2.987 2.987 0 0015 12.017zm0 0A2.987 2.987 0 0012.016 15 2.988 2.988 0 0015 17.984 2.987 2.987 0 0017.983 15 2.987 2.987 0 0015 12.017zm0 0A2.987 2.987 0 0012.016 15 2.988 2.988 0 0015 17.984 2.987 2.987 0 0017.983 15 2.987 2.987 0 0015 12.017zm4.97-4.864h-9.94a2.88 2.88 0 00-2.877 2.877v9.94a2.88 2.88 0 002.877 2.877h9.94a2.88 2.88 0 002.877-2.877v-9.94a2.88 2.88 0 00-2.877-2.877zM15 20.167A5.173 5.173 0 019.833 15 5.172 5.172 0 0115 9.833 5.173 5.173 0 0120.166 15 5.173 5.173 0 0115 20.166zm5.332-9.265a1.224 1.224 0 01-1.222-1.223 1.223 1.223 0 111.222 1.223zM15 12.017A2.987 2.987 0 0012.016 15 2.988 2.988 0 0015 17.984 2.987 2.987 0 0017.983 15 2.987 2.987 0 0015 12.017zm0 0A2.987 2.987 0 0012.016 15 2.988 2.988 0 0015 17.984 2.987 2.987 0 0017.983 15 2.987 2.987 0 0015 12.017zm0 0A2.987 2.987 0 0012.016 15 2.988 2.988 0 0015 17.984 2.987 2.987 0 0017.983 15 2.987 2.987 0 0015 12.017zm4.97-4.864h-9.94a2.88 2.88 0 00-2.877 2.877v9.94a2.88 2.88 0 002.877 2.877h9.94a2.88 2.88 0 002.877-2.877v-9.94a2.88 2.88 0 00-2.877-2.877zM15 20.167A5.173 5.173 0 019.833 15 5.172 5.172 0 0115 9.833 5.173 5.173 0 0120.166 15 5.173 5.173 0 0115 20.166zm5.332-9.265a1.224 1.224 0 01-1.222-1.223 1.223 1.223 0 111.222 1.223zM15 12.017A2.987 2.987 0 0012.016 15 2.988 2.988 0 0015 17.984 2.987 2.987 0 0017.983 15 2.987 2.987 0 0015 12.017z" fill="#2E2E2E"/></svg>