<svg width="30" height="30" fill="none" xmlns="http://www.w3.org/2000/svg"><g clip-path="url(#clip0)" fill="#666366"><path d="M5.276 23.2c-.42 0-.823.105-1.182.302A13.853 13.853 0 011.172 15C1.172 7.375 7.375 1.172 15 1.172c.927 0 1.854.092 2.754.274a.586.586 0 00.232-1.149A15.111 15.111 0 0015 0C10.993 0 7.226 1.56 4.393 4.393A14.902 14.902 0 000 15c0 3.37 1.144 6.66 3.228 9.296-.268.4-.413.872-.413 1.365 0 .657.257 1.275.721 1.74a2.444 2.444 0 001.74.721c.658 0 1.276-.256 1.74-.721.465-.465.721-1.083.721-1.74s-.256-1.276-.72-1.74a2.445 2.445 0 00-1.74-.72zm.912 3.373a1.28 1.28 0 01-.912.377 1.28 1.28 0 01-.911-.377 1.28 1.28 0 01-.378-.912c0-.344.134-.668.378-.912a1.28 1.28 0 01.911-.377c.345 0 .668.134.912.378.243.243.377.567.377.911 0 .344-.134.668-.377.912zm20.584-20.87a2.465 2.465 0 00-.308-3.104 2.445 2.445 0 00-1.74-.721c-.658 0-1.276.256-1.74.72a2.445 2.445 0 00-.721 1.74c0 .658.255 1.276.72 1.741.465.465 1.083.72 1.74.72.42 0 .824-.104 1.183-.3A13.854 13.854 0 0128.828 15c0 7.625-6.203 13.828-13.828 13.828-.918 0-1.836-.09-2.728-.269a.586.586 0 00-.23 1.15A15.16 15.16 0 0015 30c4.006 0 7.773-1.56 10.607-4.393A14.902 14.902 0 0030 15c0-3.37-1.145-6.66-3.228-9.297zm-2.96-.452a1.28 1.28 0 01-.378-.912c0-.344.135-.668.378-.911a1.28 1.28 0 01.912-.378 1.29 1.29 0 010 2.578 1.28 1.28 0 01-.912-.377z"/><path d="M12.582 25.078c0 .324.263.586.586.586h3.664a.586.586 0 00.586-.586v-1.136a9.177 9.177 0 002.199-.911l.802.802a.586.586 0 00.828 0l2.59-2.592a.586.586 0 000-.828l-.801-.802a9.177 9.177 0 00.911-2.199h1.132a.586.586 0 00.586-.585v-3.664a.586.586 0 00-.586-.586h-1.132a9.178 9.178 0 00-.911-2.199l.797-.797a.586.586 0 000-.829l-2.592-2.59a.586.586 0 00-.829 0l-.795.797a9.175 9.175 0 00-2.2-.912V4.922a.586.586 0 00-.585-.586h-3.664a.586.586 0 00-.586.586v1.126a9.166 9.166 0 00-2.199.91l-.796-.795a.586.586 0 00-.828 0l-2.592 2.59a.585.585 0 000 .828l.797.797a9.173 9.173 0 00-.912 2.199H4.923a.586.586 0 00-.586.585l-.002 3.664a.585.585 0 00.586.586h1.131a9.22 9.22 0 00.912 2.2l-.801.8a.586.586 0 000 .83l2.59 2.59a.586.586 0 00.829 0l.8-.801a9.185 9.185 0 002.2.911v1.136zm-1.97-3.28a.586.586 0 00-.732.078l-.713.714-1.761-1.763.712-.713a.586.586 0 00.078-.732 8.02 8.02 0 01-1.11-2.679.586.586 0 00-.573-.462H5.507l.001-2.492h1.005a.586.586 0 00.573-.463 8.022 8.022 0 011.11-2.678.586.586 0 00-.078-.733l-.708-.708 1.763-1.761.707.707c.196.196.5.228.733.078a8.017 8.017 0 012.678-1.11.586.586 0 00.463-.573v-1h2.492v1c0 .277.193.515.463.573a8.023 8.023 0 012.678 1.11c.232.15.537.118.732-.078l.708-.707 1.762 1.761-.708.708a.586.586 0 00-.078.732 8.027 8.027 0 011.11 2.679c.058.27.297.463.573.463h1.007v2.492h-1.007a.586.586 0 00-.573.462 8.02 8.02 0 01-1.11 2.679.586.586 0 00.078.732l.713.713-1.761 1.762-.714-.713a.586.586 0 00-.732-.078 8.025 8.025 0 01-2.678 1.11.586.586 0 00-.463.573v1.011h-2.492v-1.01a.586.586 0 00-.463-.574 8.023 8.023 0 01-2.678-1.11z"/><path d="M19.841 15A4.847 4.847 0 0015 10.159 4.847 4.847 0 0010.158 15 4.847 4.847 0 0015 19.841 4.847 4.847 0 0019.841 15zm-8.51 0A3.674 3.674 0 0115 11.33 3.674 3.674 0 0118.67 15 3.674 3.674 0 0115 18.67 3.674 3.674 0 0111.33 15zm9.064-12.784a.59.59 0 00.586-.587.59.59 0 00-.586-.586.589.589 0 00-.586.586.589.589 0 00.586.587zM9.63 27.794a.59.59 0 00-.586.586.59.59 0 00.586.586.59.59 0 00.586-.586.59.59 0 00-.586-.585z"/></g><defs><clipPath id="clip0"><path fill="#fff" d="M0 0h30v30H0z"/></clipPath></defs></svg>