<svg width="30" height="30" fill="none" xmlns="http://www.w3.org/2000/svg"><path d="M30 0H0v30h30V0z" fill="#2E2E2E"/><path d="M7.771 9.13c.72 1.775 1.63 3.45 2.83 4.952.16.2.36.378.572.523.309.212.6.137.726-.216.132-.37.254-1.122.261-1.51a32.665 32.665 0 00-.057-2.7c-.036-.65-.267-1.222-1.224-1.394-.295-.054-.323-.297-.133-.54.395-.505.946-.585 1.543-.617.968-.052 1.939-.01 2.908 0 .394.004.791.035 1.18.12.507.11.779.466.862.961.043.256.066.518.06.776-.026 1.11-.08 2.22-.092 3.33a5.8 5.8 0 00.12 1.305c.13.59.532.74.944.312.523-.542.983-1.152 1.416-1.772.785-1.128 1.372-2.365 1.877-3.64.262-.659.462-.802 1.17-.804 1.33-.003 2.662-.004 3.993 0 .236.001.483.024.706.095.361.115.505.41.42.784-.198.877-.671 1.622-1.179 2.339-.814 1.15-1.668 2.272-2.502 3.408-.106.145-.2.3-.287.456-.312.563-.29.88.165 1.348.724.747 1.498 1.445 2.2 2.212.509.558.98 1.164 1.384 1.801.51.806.195 1.566-.759 1.7-.6.085-3.53.001-3.682 0a2.869 2.869 0 01-2.035-.811c-.619-.596-1.181-1.25-1.775-1.871a4.958 4.958 0 00-.576-.524c-.486-.37-.963-.289-1.19.282-.194.49-.362 1.777-.37 1.887-.04.575-.406.942-1.05.977-1.86.1-3.66-.106-5.339-1.005-1.422-.762-2.558-1.84-3.542-3.095-1.563-1.995-2.797-4.188-3.924-6.445-.058-.115-1.2-2.544-1.23-2.66-.102-.383-.007-.75.318-.877.202-.078 3.966 0 4.028.004.601.032 1.01.285 1.263.909z" fill="#fff"/></svg>