<svg width="30" height="30" fill="none" xmlns="http://www.w3.org/2000/svg"><path d="M30 0H0v30h30V0z" fill="#2E2E2E"/><path d="M17.33 19.204a.944.944 0 00-.075-.333c-.056-.137-.174-.206-.323-.22-.174-.017-.314.053-.44.165a.29.29 0 00-.074.11l.003 3.553v.087l.034.046a.7.7 0 00.376.231c.253.052.431-.053.48-.287a.863.863 0 00.02-.18c.002-1.057.004-2.114-.001-3.172zm0 0a.944.944 0 00-.075-.333c-.056-.137-.174-.206-.323-.22-.174-.017-.314.053-.44.165a.29.29 0 00-.074.11l.003 3.553v.087l.034.046a.7.7 0 00.376.231c.253.052.431-.053.48-.287a.863.863 0 00.02-.18c.002-1.057.004-2.114-.001-3.172zm3.978-5.357a294.78 294.78 0 00-12.616 0 2.683 2.683 0 00-2.626 2.683v6.567a2.683 2.683 0 002.626 2.684c4.205.09 8.411.09 12.616 0a2.684 2.684 0 002.625-2.684V16.53a2.684 2.684 0 00-2.625-2.683zM9.927 23.695H8.714V16.84H7.459v-1.146h3.726v1.144H9.927v6.857zm4.339-2.845v2.846h-1.074v-.65a1.92 1.92 0 00-.08.086c-.232.261-.494.478-.828.593a1.004 1.004 0 01-.503.046.619.619 0 01-.487-.387 1.504 1.504 0 01-.11-.62c-.003-.783-.002-4.929-.002-4.969h1.071c.002.036.006 3.012.006 4.464 0 .079.001.16.017.237.04.195.189.278.377.21.215-.08.38-.228.518-.406.02-.026.02-.072.02-.109v-4.403l1.075-.002v3.064zm4.085 2.277c-.144.432-.46.652-.914.647a1.213 1.213 0 01-.916-.418l-.104-.11v.449h-1.075v-8.002h1.075v2.634s.06-.121.116-.184c.167-.186.37-.33.62-.393.412-.104.888.024 1.115.506.133.285.17.59.17.899.003 1.118.003 2.237.002 3.355-.001.21-.023.416-.09.617zm3.972-.225c-.186.546-.571.848-1.136.931-.35.052-.697.045-1.025-.104-.45-.203-.705-.57-.814-1.036a3.122 3.122 0 01-.078-.669c-.009-.876-.005-1.753-.003-2.629 0-.458.11-.88.424-1.231.358-.401.816-.55 1.34-.517.157.01.317.036.467.085.509.167.78.548.887 1.054.041.195.056.397.06.596.008.467-.004 1.498-.004 1.498h-2.06v1.476a.48.48 0 10.96 0v-.759h1.106s.017.896-.124 1.305zm-.983-3.767a.48.48 0 10-.959 0v.83h.96v-.83zm-4.085-.264c-.056-.137-.174-.206-.323-.22-.174-.017-.314.053-.44.165a.29.29 0 00-.074.11l.003 3.553v.087l.034.046a.7.7 0 00.376.231c.253.052.431-.053.48-.287a.863.863 0 00.02-.18c.002-1.057.004-2.114-.001-3.172a.944.944 0 00-.075-.333zm2.749-12.618v5.94h-1.1v-.638c-.121.12-.225.232-.34.333a1.488 1.488 0 01-.699.364c-.412.08-.762-.05-.893-.476a1.57 1.57 0 01-.072-.444V6.253h1.093v4.53c0 .06.005.121.015.18.033.187.171.275.351.212.22-.076.386-.227.528-.406.02-.026.017-.073.017-.11V6.252h1.1zM10.9 7.285c-.24-1.007-.74-3.133-.74-3.133H8.907L10.3 8.767a.566.566 0 01.023.161v3.264h1.154V8.928a.57.57 0 01.022-.16l1.393-4.616H11.64s-.501 2.126-.74 3.133zm3.5-1.181c-.87 0-1.576.706-1.576 1.577v3.084a1.576 1.576 0 003.152 0V7.681c0-.871-.706-1.577-1.576-1.577zm.455 4.723a.455.455 0 01-.91 0V7.618a.455.455 0 01.91 0v3.21z" fill="#fff"/></svg>