<svg width="45" height="45" fill="none" xmlns="http://www.w3.org/2000/svg"><g clip-path="url(#clip0)" fill="#000" fill-opacity=".8"><path d="M.899 4.474l11.885 3.535c.37.109.712.294 1.007.543l3.614 3.039 3.041-3.294L15.452 4.2a1.217 1.217 0 00-.427-.227L2.16.15a1.214 1.214 0 00-.932.1 1.233 1.233 0 00-.589.737L.071 2.94c-.19.654.18 1.34.828 1.534zm17.979 8.356a.805.805 0 01.272.465l5.53 29.017a3.27 3.27 0 001.68 2.282 3.219 3.219 0 002.814.095L37.444 41a.79.79 0 01.62-.01.8.8 0 01.438.442 1.054 1.054 0 001.386.586l4.029-1.669c.542-.224.802-.85.58-1.397l-7.521-18.527a.808.808 0 01.135-.83l.864-1.008a1.245 1.245 0 00-.124-1.742l-8.392-7.34a1.217 1.217 0 00-1.728.129l-1.869 2.182a.79.79 0 01-1.114.092l-3.073-2.586-3.049 3.3.252.208zm10.187 29.28a1.792 1.792 0 01-1.598-.07 1.824 1.824 0 01-.916-1.323l-1.863-12.42a3.866 3.866 0 01.588-2.698l2.075 1.655c.814.64 1.42 1.51 1.744 2.5L32.676 40.5l-3.611 1.61zM27.79 23.919l1.194-.216a3.842 3.842 0 014.297 2.57l3.82 11.458a.806.806 0 01-.432.992l-2.527 1.127-3.537-10.6a6.843 6.843 0 00-2.273-3.257l-1.918-1.534a3.82 3.82 0 011.381-.54h-.005zm-4.338-5.632l1.128 4.82a.803.803 0 01-.776.986.797.797 0 01-.774-.618l-1.128-4.82a.81.81 0 01.23-.77.792.792 0 01.774-.185c.273.082.48.305.546.585v.002zm-2.228-4.811c.426-.11.859.15.968.58l.398 1.573a.804.804 0 01-.772 1.002.797.797 0 01-.77-.604l-.397-1.572a.8.8 0 01.575-.98h-.002zM3.981 24.497a3.83 3.83 0 002.854-1.136A3.903 3.903 0 007.96 20.48c0-1.86-2.576-5.997-3.979-7.632C2.58 14.482.002 18.62.002 20.48a3.904 3.904 0 001.125 2.881 3.83 3.83 0 002.854 1.136z"/></g><defs><clipPath id="clip0"><path fill="#fff" d="M0 0h44.577v45H0z"/></clipPath></defs></svg>