<svg width="45" height="45" fill="none" xmlns="http://www.w3.org/2000/svg"><g clip-path="url(#clip0)" fill="#333"><path d="M42.984 44.877H3.71a1.6 1.6 0 01-1.592-1.608 1.6 1.6 0 011.592-1.607h39.274a1.6 1.6 0 011.593 1.607 1.6 1.6 0 01-1.593 1.608zM17.36 38.445a5.66 5.66 0 01-4.037-1.686L1.67 24.995c-2.227-2.248-2.227-5.906 0-8.154L17.694.667a1.582 1.582 0 012.252 0l17.478 17.644a1.614 1.614 0 010 2.272L21.4 36.757a5.673 5.673 0 01-4.04 1.688zm1.457-34.37L3.92 19.115a2.542 2.542 0 00-.741 1.802c0 .682.263 1.323.74 1.805l11.653 11.763c.953.962 2.62.962 3.575 0l14.899-15.038-15.23-15.372zM39.27 38.448c-2.928 0-5.308-2.484-5.308-5.536 0-2.46 3.046-7.314 3.978-8.742.588-.904 2.07-.904 2.658 0 .932 1.428 3.979 6.282 3.979 8.742 0 3.052-2.38 5.536-5.308 5.536zm0-10.334c-1.168 2.036-2.124 4.061-2.124 4.798 0 1.282.951 2.321 2.123 2.321 1.172 0 2.123-1.041 2.123-2.321 0-.74-.955-2.764-2.123-4.798z"/><path d="M34.964 22.215L16.84 37 1.592 22.215A1.6 1.6 0 010 20.607 1.6 1.6 0 011.592 19h33.372a1.6 1.6 0 011.593 1.607 1.6 1.6 0 01-1.593 1.608z"/></g><defs><clipPath id="clip0"><path fill="#fff" d="M0 0h44.577v45H0z"/></clipPath></defs></svg>