<svg width="1205" height="31" fill="none" xmlns="http://www.w3.org/2000/svg"><path d="M49 20h-5.742c-.187 0-.28-.084-.28-.253v-.615c0-.16.093-.24.28-.24h2.228v-7.977l-1.463.615c-.5.21-.768.32-.8.328a.372.372 0 01-.102.014c-.096 0-.144-.048-.144-.143v-.718c0-.046.01-.082.028-.11.023-.027.15-.09.383-.191l1.996-.916c.282-.132.46-.198.533-.198h.574a.24.24 0 01.185.082.24.24 0 01.082.184v9.03H49c.187 0 .28.08.28.24v.615c0 .169-.093.253-.28.253zm8.477 0h-5.743c-.187 0-.28-.084-.28-.253v-.615c0-.16.093-.24.28-.24h2.229v-7.977l-1.463.615c-.501.21-.768.32-.8.328a.372.372 0 01-.102.014c-.096 0-.144-.048-.144-.143v-.718c0-.046.01-.082.027-.11.023-.027.15-.09.383-.191l1.996-.916c.283-.132.46-.198.534-.198h.574a.24.24 0 01.184.082.24.24 0 01.082.184v9.03h2.243c.186 0 .28.08.28.24v.615c0 .169-.094.253-.28.253zm9.146-4.259c0 2.903-1.142 4.355-3.425 4.355-2.297 0-3.445-1.452-3.445-4.355v-1.886c0-2.904 1.148-4.355 3.445-4.355 2.283 0 3.425 1.451 3.425 4.354v1.887zm-1.271 0v-1.886c0-2.184-.718-3.275-2.154-3.275-1.44 0-2.16 1.091-2.16 3.274v1.887c0 2.188.72 3.282 2.16 3.282 1.436 0 2.154-1.094 2.154-3.282zm6.473-2.686c0 .738-.162 1.3-.485 1.688-.32.387-.782.581-1.388.581-.61 0-1.08-.194-1.408-.58-.324-.388-.485-.951-.485-1.69v-1.298c0-.757.164-1.322.492-1.696.328-.373.795-.56 1.401-.56 1.249 0 1.873.752 1.873 2.256v1.299zm-.868 0v-1.3c0-.979-.335-1.469-1.005-1.469-.683 0-1.025.49-1.025 1.47v1.299c0 .98.342 1.47 1.025 1.47.67 0 1.005-.49 1.005-1.47zm5.462-3.46c.073 0 .11.03.11.09a.4.4 0 01-.069.177l-5.852 9.912c-.109.187-.212.28-.307.28h-.69c-.092 0-.137-.036-.137-.109 0-.05.018-.107.054-.17l5.852-9.913c.11-.177.216-.266.321-.266h.718zm1.497 8.238c0 .747-.164 1.313-.492 1.695-.324.379-.784.568-1.381.568-.61 0-1.08-.194-1.408-.581-.324-.388-.486-.948-.486-1.682v-1.306c0-.738.162-1.3.486-1.688.323-.388.793-.581 1.408-.581.606 0 1.069.194 1.388.58.323.384.485.947.485 1.69v1.305zm-.868 0v-1.306c0-.98-.335-1.47-1.005-1.47-.684 0-1.025.49-1.025 1.47v1.306c0 .98.341 1.47 1.025 1.47.67 0 1.005-.49 1.005-1.47z" fill="#fff"/><path fill="#000" fill-opacity=".5" d="M413 0h31v31h-31zm425 0h170v31H838zm336 0h31v31h-31z"/><path stroke="#fff" stroke-width="2" d="M1 1h1203v29H1z"/><path d="M431.41 11.41L430 10l-6 6 6 6 1.41-1.41-4.58-4.59 4.58-4.59zm754.18 0L1187 10l6 6-6 6-1.41-1.41 4.58-4.59-4.58-4.59z" fill="#fff"/><path stroke="#fff" stroke-width="2" d="M414 2v27M34 2v27M445 2v27m728-27v27"/><path d="M15.267 23.9a8.739 8.739 0 01-4.976-7.067h-1.25C9.466 21.967 13.758 26 19 26l.55-.025-3.175-3.175-1.108 1.1zm.741-5.433a1.39 1.39 0 01-.433-.067.891.891 0 01-.333-.2.825.825 0 01-.217-.308.995.995 0 01-.075-.392h-1.083c0 .3.058.567.174.792.117.225.275.416.467.575.2.15.425.266.684.341.25.084.516.125.8.125.308 0 .6-.041.858-.125.266-.083.5-.208.691-.366.192-.159.35-.359.459-.6.108-.242.166-.509.166-.809a1.75 1.75 0 00-.058-.466 1.498 1.498 0 00-1.033-1.042 1.749 1.749 0 00.742-.625 1.354 1.354 0 00.241-.783c0-.3-.05-.567-.15-.8a1.483 1.483 0 00-.425-.575 1.715 1.715 0 00-.642-.359 3.037 3.037 0 00-.85-.116c-.3 0-.575.041-.833.133-.25.092-.475.217-.658.375a1.875 1.875 0 00-.425.558c-.1.217-.15.45-.15.709h1.083c0-.142.025-.267.075-.375a.782.782 0 01.208-.284.989.989 0 01.317-.183 1.21 1.21 0 01.4-.067c.334 0 .584.084.742.259.158.166.241.408.241.716 0 .15-.024.284-.066.409a.724.724 0 01-.209.308c-.091.083-.208.15-.341.2-.134.05-.3.075-.483.075h-.642v.858h.642c.183 0 .35.017.5.059.15.041.274.108.375.191.1.092.183.2.241.334.059.133.084.291.084.475 0 .341-.1.6-.292.775-.192.191-.459.275-.792.275zm7.125-4.934a2.776 2.776 0 00-.95-.641 3.135 3.135 0 00-1.216-.225H19v6.666h1.916c.459 0 .884-.075 1.259-.225.375-.15.7-.358.966-.633.267-.275.476-.608.617-.992a3.8 3.8 0 00.217-1.308v-.333c0-.484-.075-.917-.217-1.309a2.914 2.914 0 00-.625-1zm-.325 2.634c0 .35-.041.658-.116.941-.084.275-.2.517-.359.709a1.56 1.56 0 01-.591.441c-.242.1-.517.15-.826.15h-.758V13.6h.808c.6 0 1.059.192 1.367.575.317.383.475.933.475 1.658v.334zM19 6l-.55.025L21.625 9.2l1.108-1.108c2.725 1.291 4.675 3.933 4.967 7.066h1.25A9.98 9.98 0 0019 6z" fill="#fff"/></svg>