<svg width="45" height="44" fill="none" xmlns="http://www.w3.org/2000/svg"><g clip-path="url(#clip0)" fill="#000" fill-opacity=".8"><path d="M27.86 5.5a5.45 5.45 0 00-.939-3.056 5.557 5.557 0 00-2.5-2.025A5.64 5.64 0 0021.2.106a5.595 5.595 0 00-2.853 1.505 5.487 5.487 0 00-1.525 2.816 5.433 5.433 0 00.317 3.178 5.516 5.516 0 002.053 2.468 5.624 5.624 0 007.034-.686A5.47 5.47 0 0027.86 5.5zm-5.572 1.833c-.367 0-.726-.107-1.032-.309a1.838 1.838 0 01-.684-.822 1.81 1.81 0 01.403-1.998 1.88 1.88 0 012.024-.397c.34.138.63.373.834.674a1.816 1.816 0 01-.232 2.315c-.348.343-.82.537-1.313.537z"/><path d="M43.72 37.486l-4.179-22a5.49 5.49 0 00-1.919-3.218A5.62 5.62 0 0034.064 11H10.49a5.627 5.627 0 00-3.54 1.257 5.497 5.497 0 00-1.929 3.189l-4.353 22a5.43 5.43 0 00.068 2.404c.201.787.577 1.52 1.1 2.146a5.563 5.563 0 001.923 1.478A5.632 5.632 0 006.136 44h32.107a5.63 5.63 0 002.37-.52 5.56 5.56 0 001.92-1.466 5.47 5.47 0 001.106-2.133c.205-.783.233-1.6.081-2.395zm-4.047 2.185a1.853 1.853 0 01-1.43.663H6.136a1.894 1.894 0 01-1.426-.675 1.843 1.843 0 01-.397-1.51l4.353-22c.083-.417.31-.793.643-1.063a1.88 1.88 0 011.18-.42h23.575c.434 0 .853.15 1.187.423.333.273.559.653.639 1.073l4.179 22a1.785 1.785 0 01-.396 1.509z"/><path d="M14.859 20.167h-3.715V33c0 .486.196.953.544 1.297.348.344.82.537 1.313.537h7.43v-3.667h-5.572v-11zm13.931 0h-4.644a1.87 1.87 0 00-1.313.537c-.349.344-.544.81-.544 1.296v11c0 .487.195.953.544 1.297.348.344.82.537 1.313.537h4.643a4.68 4.68 0 002.444-.682 4.597 4.597 0 001.712-1.851 4.524 4.524 0 00-.45-4.8 4.524 4.524 0 00.45-4.8 4.596 4.596 0 00-1.712-1.852 4.68 4.68 0 00-2.444-.682zm-2.787 3.667h2.786c.247 0 .483.096.657.268a.91.91 0 010 1.296.935.935 0 01-.657.269h-2.786v-1.833zm2.786 7.333h-2.786v-1.833h2.786c.247 0 .483.096.657.268a.91.91 0 010 1.296.935.935 0 01-.657.269z"/></g><defs><clipPath id="clip0"><path fill="#fff" d="M0 0h44.577v44H0z"/></clipPath></defs></svg>