<svg width="337" height="111" fill="none" xmlns="http://www.w3.org/2000/svg"><path d="M76.933 109H2.519V92.887l34.277-36.035c8.447-9.62 12.671-17.261 12.671-22.925 0-4.59-1-8.081-3.003-10.474-2.002-2.392-4.907-3.589-8.716-3.589-3.76 0-6.811 1.612-9.155 4.834-2.344 3.174-3.516 7.154-3.516 11.939H.322c0-6.543 1.635-12.573 4.907-18.091C8.5 12.98 13.04 8.634 18.852 5.509 24.662 2.384 31.157.82 38.334.82c11.524 0 20.386 2.661 26.587 7.984 6.25 5.322 9.375 12.964 9.375 22.925 0 4.199-.781 8.3-2.344 12.304-1.562 3.955-4.004 8.13-7.324 12.525-3.271 4.345-8.57 10.18-15.893 17.505l-13.77 15.893h41.968V109zm86.499-43.58c0 14.405-3.247 25.514-9.741 33.326-6.446 7.813-15.552 11.719-27.32 11.719-11.865 0-21.045-3.931-27.539-11.792-6.494-7.862-9.74-18.945-9.74-33.252V45.938c0-14.404 3.222-25.512 9.667-33.325C105.253 4.801 114.408.895 126.225.895c11.816 0 20.972 3.93 27.466 11.792 6.494 7.86 9.741 18.97 9.741 33.325V65.42zm-24.683-22.63c0-7.667-1.001-13.38-3.003-17.14-2.002-3.808-5.175-5.712-9.521-5.712-4.248 0-7.349 1.757-9.302 5.273-1.904 3.516-2.93 8.838-3.076 15.967v27.246c0 7.959 1.001 13.794 3.003 17.505 2.002 3.662 5.176 5.493 9.521 5.493 4.2 0 7.3-1.782 9.302-5.347 2.002-3.613 3.027-9.253 3.076-16.919V42.79zM230.961 109h-24.756V30.191l-24.316 7.105v-18.75l46.802-16.187h2.27V109zm80.786-41.235c-5.322 4.785-11.279 7.177-17.871 7.177-9.668 0-17.334-3.271-22.998-9.814-5.664-6.543-8.496-15.283-8.496-26.22 0-6.837 1.587-13.184 4.761-19.044 3.174-5.86 7.617-10.498 13.33-13.916C286.235 2.53 292.582.821 299.516.821c7.031 0 13.379 1.783 19.043 5.347 5.713 3.516 10.156 8.52 13.33 15.015 3.174 6.445 4.809 13.891 4.907 22.339v9.448c0 11.767-2.319 21.972-6.958 30.615-4.59 8.643-11.157 15.283-19.702 19.922-8.545 4.639-18.506 6.958-29.883 6.958h-1.538V90.689l4.688-.073c16.992-.83 26.44-8.447 28.344-22.851zm-11.206-10.62c5.371 0 9.229-2.32 11.573-6.959V39.934c0-6.836-1.148-11.89-3.443-15.162-2.295-3.271-5.395-4.907-9.302-4.907-3.466 0-6.372 1.856-8.715 5.567-2.344 3.71-3.516 8.203-3.516 13.476 0 5.567 1.196 10.01 3.589 13.33 2.392 3.272 5.664 4.907 9.814 4.907z" fill="#626262" fill-opacity=".26"/></svg>