<svg width="338" height="111" fill="none" xmlns="http://www.w3.org/2000/svg"><path d="M76.933 109H2.519V92.887l34.277-36.035c8.447-9.62 12.67-17.261 12.67-22.925 0-4.59-1-8.081-3.002-10.474-2.002-2.392-4.907-3.589-8.716-3.589-3.76 0-6.811 1.612-9.155 4.834-2.344 3.174-3.516 7.154-3.516 11.939H.321c0-6.543 1.636-12.573 4.908-18.091C8.5 12.98 13.04 8.634 18.852 5.509 24.662 2.384 31.156.82 38.334.82c11.523 0 20.386 2.661 26.587 7.984 6.25 5.322 9.375 12.964 9.375 22.925 0 4.199-.781 8.3-2.344 12.304-1.562 3.955-4.004 8.13-7.324 12.525-3.272 4.345-8.57 10.18-15.894 17.505l-13.77 15.893h41.969V109zm86.499-43.58c0 14.405-3.247 25.514-9.742 33.326-6.445 7.813-15.551 11.719-27.319 11.719-11.865 0-21.045-3.931-27.539-11.792-6.494-7.862-9.741-18.945-9.741-33.252V45.938c0-14.404 3.223-25.512 9.668-33.325C105.253 4.801 114.408.895 126.225.895c11.816 0 20.971 3.93 27.465 11.792 6.495 7.86 9.742 18.97 9.742 33.325V65.42zm-24.683-22.63c0-7.667-1.001-13.38-3.003-17.14-2.002-3.808-5.176-5.712-9.521-5.712-4.248 0-7.349 1.757-9.302 5.273-1.904 3.516-2.93 8.838-3.076 15.967v27.246c0 7.959 1.001 13.794 3.003 17.505 2.002 3.662 5.175 5.493 9.521 5.493 4.199 0 7.3-1.782 9.302-5.347 2.002-3.613 3.027-9.253 3.076-16.919V42.79zM250.663 109h-74.414V92.887l34.277-36.035c8.448-9.62 12.671-17.261 12.671-22.925 0-4.59-1.001-8.081-3.003-10.474-2.002-2.392-4.907-3.589-8.715-3.589-3.76 0-6.812 1.612-9.156 4.834-2.344 3.174-3.515 7.154-3.515 11.939h-24.756c0-6.543 1.636-12.573 4.907-18.091 3.271-5.566 7.812-9.912 13.623-13.037C198.393 2.384 204.887.82 212.064.82c11.524 0 20.386 2.661 26.587 7.984 6.25 5.322 9.375 12.964 9.375 22.925 0 4.199-.781 8.3-2.343 12.304-1.563 3.955-4.004 8.13-7.325 12.525-3.271 4.345-8.569 10.18-15.893 17.505l-13.77 15.893h41.968V109zm86.499-43.58c0 14.405-3.247 25.514-9.741 33.326-6.445 7.813-15.552 11.719-27.319 11.719-11.866 0-21.045-3.931-27.54-11.792-6.494-7.862-9.741-18.945-9.741-33.252V45.938c0-14.404 3.223-25.512 9.668-33.325C278.983 4.801 288.139.895 299.955.895s20.972 3.93 27.466 11.792c6.494 7.86 9.741 18.97 9.741 33.325V65.42zm-24.683-22.63c0-7.667-1-13.38-3.002-17.14-2.002-3.808-5.176-5.712-9.522-5.712-4.248 0-7.349 1.757-9.302 5.273-1.904 3.516-2.929 8.838-3.076 15.967v27.246c0 7.959 1.001 13.794 3.003 17.505 2.002 3.662 5.176 5.493 9.522 5.493 4.199 0 7.299-1.782 9.301-5.347 2.002-3.613 3.028-9.253 3.076-16.919V42.79z" fill="#626262" fill-opacity=".26"/></svg>