<svg width="100" height="105" fill="none" xmlns="http://www.w3.org/2000/svg"><path d="M80.144 41.213c-1.328-3.729-4.553-6.356-8.269-6.892V23.953l24.806-9.236-24.515-9.829H68.75v29.475c-3.777.662-6.922 3.455-8.103 7.37l-7.863 26.08c-.492-1.713-1.504-3.24-2.93-4.302l-7.48-5.569 2.63-12.33h4.493c4.76 0 9.042-2.755 11.175-7.193l5.944-12.358a5.828 5.828 0 00.572-2.518c0-3.102-2.42-5.624-5.446-5.624-2.054 0-3.904 1.191-4.823 3.108l-5.027 10.48c-.798 1.667-2.405 2.702-4.192 2.702h-.997A11.605 11.605 0 0050 26.064c0-6.288-4.906-11.402-10.938-11.402-.182 0-.359.02-.54.029-1.294-3.866-4.797-6.545-8.834-6.545-.336 0-.674.023-1.022.068-1.775-3.99-5.602-6.584-9.916-6.584-6.031 0-10.938 5.115-10.938 11.403 0 .055.013.109.013.163-3.567.752-6.263 4.044-6.263 7.981 0 4.491 3.505 8.145 7.813 8.145h19.21a11.494 11.494 0 002.838 4.887h-.815c-5.925 0-11.533 3.267-14.638 8.527L8.587 55.243a5.58 5.58 0 00-.774 2.849c0 .775.162 1.512.445 2.18H1.563v22.804h19.79L18.94 93.471a7.366 7.366 0 00-.189 1.651v.476c0 3.874 3.023 7.026 6.738 7.026 3.167 0 5.94-2.346 6.593-5.578l5.102-25.263 3.442 2.391v15.418c0 3.594 2.803 6.516 6.25 6.516h51.563v-3.551L80.144 41.213zM71.875 8.262l15.819 6.343-15.819 5.89V8.262zM63.628 42.71c.947-3.137 3.7-5.243 6.853-5.243 2.988 0 5.694 1.96 6.735 4.881l5.99 16.813c-.523 1.52-1.608 4.368-2.742 4.368-1.405 0-2.67-4.057-3.595-7.019-1.422-4.557-2.892-9.27-6.567-9.27-3.674 0-5.144 4.713-6.565 9.27-.923 2.962-2.187 7.02-3.59 7.02-.616 0-1.313-.879-2.031-2.534l5.512-18.286zM9.375 26.064c-2.584 0-4.688-2.192-4.688-4.887 0-2.694 2.104-4.886 4.688-4.886 2.584 0 4.688 2.192 4.688 4.886h3.124c0-3.927-2.68-7.216-6.237-7.978 0-.056-.012-.111-.012-.166 0-4.491 3.504-8.145 7.812-8.145 3.42 0 6.414 2.284 7.447 5.683l.45 1.483 1.44-.401c.615-.17 1.122-.25 1.6-.25 2.536 0 4.747 1.592 5.72 3.928-4.237 1.574-7.282 5.784-7.282 10.733H9.375zm21.875 0c0-4.49 3.505-8.145 7.813-8.145 4.307 0 7.812 3.654 7.812 8.145s-3.505 8.145-7.813 8.145c-4.307 0-7.812-3.654-7.812-8.145zm-6.178 34.208h-6.6l7.731-12.667a4.21 4.21 0 011.492-1.463l-2.623 14.13zm.525 3.257l-.063.132c-1.889 3.937-5.686 6.384-9.909 6.384-4.223 0-8.02-2.447-9.908-6.384l-.064-.132h19.944zM4.687 67.9c2.66 3.38 6.613 5.404 10.938 5.404s8.278-2.025 10.938-5.405v11.92H4.688v-11.92zM43.75 89.591V74.174a3.29 3.29 0 00-1.392-2.71l-4.385-3.048H34.67l-5.645 27.959c-.352 1.733-1.84 2.99-3.537 2.99-1.991 0-3.613-1.69-3.613-3.765v-.476c0-.298.034-.596.102-.886l2.592-11.162h5.119V60.272h-1.433l3.326-17.919h-1.893c-2.494 0-4.783 1.31-6.12 3.502l-8.184 13.407a2.064 2.064 0 01-1.765 1.01h-.59c-1.152 0-2.091-.98-2.091-2.18 0-.404.106-.798.309-1.142l7.383-12.507c2.54-4.303 7.13-6.976 11.976-6.976H47.7c2.978 0 5.656-1.725 6.987-4.503l5.027-10.48a2.268 2.268 0 012.08-1.307c1.25 0 2.269 1.06 2.269 2.366 0 .366-.083.733-.241 1.058L57.878 36.96c-1.598 3.326-4.81 5.393-8.38 5.393h-7.001l-3.622 16.988 9.163 6.822C49.266 67.08 50 68.566 50 70.141v19.451c0 1.797-1.402 3.258-3.125 3.258s-3.125-1.461-3.125-3.258zm8.506 3.258a6.655 6.655 0 00.869-3.258v-12.04l3.76-12.47c.8.948 1.856 1.705 3.262 1.705 3.673 0 5.144-4.712 6.564-9.27.923-2.961 2.187-7.02 3.59-7.02 1.405 0 2.67 4.059 3.596 7.02 1.422 4.558 2.89 9.27 6.567 9.27 1.997 0 3.355-1.49 4.306-3.235L95.208 92.85H52.256z" fill="#626262"/><path d="M87.5 86.333h3.125v3.259H87.5v-3.259zm-6.25 0h3.125v3.259H81.25v-3.259zm-6.25 0h3.125v3.259H75v-3.259z" fill="#626262"/></svg>