<svg width="100" height="105" fill="none" xmlns="http://www.w3.org/2000/svg"><g clip-path="url(#clip0)"><path d="M94.353 14.014l-4.273-3.922 4.273-3.922a2.246 2.246 0 00.58-2.427c-.314-.865-1.088-1.423-1.974-1.423H75.276v-.792C75.276.684 74.62 0 73.81 0c-.81 0-1.465.684-1.465 1.528v20.606l-12.037 6.814a4.985 4.985 0 00-.476-1.605l-1.696-3.452c-1.165-2.37-3.962-3.31-6.234-2.096l-1.311.7c-1.102.588-1.917 1.587-2.297 2.815a4.978 4.978 0 00.286 3.684l1.696 3.452a4.73 4.73 0 001.67 1.891c-.901 1.264-1.328 2.818-1.768 4.433l-.316 1.166c-.22.812.233 1.656 1.012 1.886.133.04.267.057.399.057.64 0 1.227-.438 1.41-1.112l.316-1.164c.642-2.361 1.037-3.626 2.292-4.337l2.252-1.275.278-.148c.092-.05.178-.105.266-.16L74.133 24.6c-.102 2.091-1.181 4.067-2.959 5.192l-10.435 6.61-.035.022-3.248 2.057c-.691.438-.912 1.379-.492 2.1.397.68 1.22.922 1.893.58l-2.465 7.767-1.801.77-4.898 2.092 1.411-5.202c.22-.812-.232-1.656-1.011-1.886-.78-.231-1.59.242-1.81 1.054l-2.23 8.222a1.525 1.525 0 00-.053.333l-.583 11.176c-.018.426.07 1.232-.12 1.648l-6.482 14.217h-4.71c-2.76 0-5.004 2.34-5.004 5.216v4.41a4.795 4.795 0 00-2.073-.47H15.066c-2.759 0-5.003 2.34-5.003 5.216v5.472H6.544c-.81 0-1.465.684-1.465 1.528s.656 1.528 1.465 1.528h86.414c.81 0 1.465-.684 1.465-1.528s-.656-1.528-1.465-1.528h-3.812V61.812c0-2.876-2.245-5.216-5.003-5.216h-8.867V29.941a9.855 9.855 0 001.472-8.166 1.507 1.507 0 00-.839-1 1.416 1.416 0 00-.633-.122v-2.789h17.682c.887 0 1.661-.558 1.974-1.422a2.246 2.246 0 00-.579-2.428zM51.083 26.25c.14-.451.44-.819.844-1.034l1.311-.7c.248-.132.511-.195.772-.195.618 0 1.216.352 1.516.964l1.697 3.453c.396.806.14 1.784-.564 2.278l-.478.27-1.008.538c-.834.445-1.86.1-2.288-.77L51.188 27.6a1.829 1.829 0 01-.104-1.352zM48.14 81.82a4.817 4.817 0 00-1.61-.447l1.61-2.228v2.675zm6.959-12.312c.705-.88.9-1.909 1.056-2.737.04-.198.763-4.316.763-4.316s.685.444.756.476a.16.16 0 01.09.134l.798 8.45H53.65l1.449-2.007zm8.667-8.433l-1.238 10.432h-1.022l-.824-8.741c-.105-1.12-.763-2.098-1.727-2.584l-1.474-.974.982-5.673s4.137 5.123 4.233 5.253c.856 1.16 1.149 1.625 1.07 2.287zM47.934 68.47a8.608 8.608 0 00.41-2.836l.533-10.193 6.778-2.896-1.232 7.115a.78.78 0 00-.01.058l-1.02 5.883c-.132.61-.248 1.534-.612 2.036L42.877 81.35h-.817l5.874-12.88zm-34.94 27.252c0-1.19.93-2.16 2.072-2.16h11.962c1.143 0 2.073.97 2.073 2.16v5.473H12.994v-5.473zm19.038 0v-9.155c0-1.192.93-2.16 2.073-2.16h11.962c1.143 0 2.072.968 2.072 2.16v14.628H32.032v-5.473zm54.183-33.91v39.383H70.108v-9.16c0-.845-.656-1.529-1.465-1.529-.81 0-1.467.684-1.467 1.528v9.161H51.07V76.73c0-1.19.93-2.16 2.072-2.16h11.962c1.143 0 2.072.97 2.072 2.16v7.66c0 .844.656 1.528 1.466 1.528.81 0 1.466-.684 1.466-1.528V61.812c0-1.191.93-2.16 2.072-2.16h11.962c1.143 0 2.073.97 2.073 2.16zM72.18 56.596c-2.758 0-5.003 2.34-5.003 5.216v10.173a4.8 4.8 0 00-1.699-.454l1.196-10.079c.235-1.965-.727-3.267-1.656-4.526-.098-.134-5.795-7.186-5.795-7.186l3.495-11.016 9.627-6.097v23.97h-.165zm3.096-41.789v-9.43H90.78l-3.34 3.065a2.242 2.242 0 00-.715 1.65c0 .632.26 1.233.716 1.65l3.339 3.066H75.276z" fill="#626262"/></g><defs><clipPath id="clip0"><path fill="#fff" d="M0 0h100v104.251H0z"/></clipPath></defs></svg>