<svg width="100" height="105" fill="none" xmlns="http://www.w3.org/2000/svg"><g clip-path="url(#clip0)" fill="#626262"><path d="M61.11 29.195a1.9 1.9 0 002.762 0 2.098 2.098 0 000-2.88l-.026-.027a1.897 1.897 0 00-2.762 0 2.098 2.098 0 000 2.88l.027.027z"/><path d="M92.62 48.46l6.808-7.096a2.099 2.099 0 00.423-2.22c-.302-.76-1.014-1.256-1.804-1.256H83.935c-1.844-7.872-5.716-15.045-11.25-20.815-8.041-8.383-18.734-13-30.107-13-11.373 0-22.065 4.617-30.107 13C4.429 25.457 0 36.604 0 48.461c0 11.856 4.429 23.003 12.47 31.387a43.212 43.212 0 007.828 6.454L14.414 97.14a2.111 2.111 0 00.012 2.028c.35.626.992 1.011 1.687 1.011h10.059c.704 0 1.353-.395 1.7-1.033l4.16-7.663c3.406.9 6.941 1.366 10.546 1.366 3.605 0 7.14-.466 10.546-1.366l4.16 7.663a1.941 1.941 0 001.7 1.033h10.059a1.94 1.94 0 001.687-1.01c.35-.626.355-1.399.013-2.029l-5.884-10.838a43.22 43.22 0 007.827-6.454c5.532-5.767 9.405-12.943 11.25-20.814h14.11c.79 0 1.503-.496 1.805-1.257a2.1 2.1 0 00-.423-2.22l-6.808-7.096zm-3.571-2.036h-13.63L79.7 41.96h13.63l-4.282 4.464zM25.033 96.107h-5.57l4.251-7.83a41.088 41.088 0 004.49 1.99l-3.171 5.84zm40.66 0h-5.57l-3.17-5.84a41.09 41.09 0 004.489-1.99l4.251 7.83zm4.23-19.139a39.045 39.045 0 01-8.563 6.752c-.039.02-.077.038-.115.06-.024.014-.045.03-.068.045a37.336 37.336 0 01-7.489 3.27 1.874 1.874 0 00-.303.091 37.358 37.358 0 01-10.807 1.59c-3.71 0-7.34-.543-10.807-1.59-.1-.039-.2-.07-.303-.091a37.325 37.325 0 01-7.489-3.27c-.023-.014-.044-.03-.068-.044-.037-.023-.076-.041-.114-.06a39.04 39.04 0 01-8.564-6.753C7.93 69.353 3.906 59.23 3.906 48.46c0-10.768 4.023-20.893 11.327-28.507 7.304-7.615 17.015-11.808 27.345-11.808 10.33 0 20.041 4.193 27.345 11.808 4.8 5.003 8.223 11.167 9.98 17.935h-1.011c-.518 0-1.015.214-1.381.596l-5.184 5.404c-.523-3.702-1.67-7.301-3.404-10.575-.522-.984-1.71-1.342-2.654-.798-.945.543-1.288 1.782-.766 2.767a27.897 27.897 0 013.155 11.143h-8.612c-.435-4.125-2.183-7.946-5.038-10.922-3.32-3.462-7.735-5.368-12.43-5.368-4.695 0-9.11 1.906-12.43 5.367C26.829 38.964 25 43.566 25 48.461s1.828 9.496 5.148 12.957c3.32 3.462 7.735 5.368 12.43 5.368 4.695 0 9.11-1.906 12.43-5.367 2.855-2.977 4.603-6.798 5.038-10.922h8.603c-.466 6.365-3.042 12.542-7.565 17.257-4.943 5.153-11.515 7.991-18.506 7.991-6.99 0-13.563-2.838-18.506-7.992-4.944-5.153-7.666-12.004-7.666-19.292 0-7.288 2.723-14.14 7.666-19.293 8.2-8.549 21.008-10.443 31.148-4.606.944.543 2.132.186 2.654-.799.521-.984.178-2.223-.766-2.767-5.595-3.22-12.182-4.503-18.549-3.612-6.58.92-12.544 3.998-17.25 8.904-5.68 5.923-8.809 13.797-8.809 22.173 0 8.375 3.129 16.25 8.81 22.172 5.68 5.923 13.234 9.184 21.268 9.184s15.588-3.261 21.268-9.184c4.617-4.812 7.545-10.888 8.488-17.592l5.177 5.396c.366.382.863.597 1.38.597h1.012c-1.758 6.767-5.182 12.933-9.98 17.934zM48.957 44.621c-.54-.974-1.734-1.308-2.668-.745l-4.687 2.821a2.053 2.053 0 00-.977 1.764c0 .727.372 1.4.977 1.763l4.687 2.821c.308.185.643.273.975.273.675 0 1.331-.365 1.693-1.018a2.107 2.107 0 00.108-1.803h7.046a14.373 14.373 0 01-3.865 8.042c-2.583 2.692-6.016 4.175-9.668 4.175-3.652 0-7.085-1.483-9.668-4.175-2.582-2.692-4.004-6.271-4.004-10.078 0-3.808 1.422-7.387 4.005-10.079 2.582-2.692 6.015-4.175 9.667-4.175s7.085 1.483 9.668 4.175a14.374 14.374 0 013.865 8.042h-7.045a2.107 2.107 0 00-.109-1.803zm30.744 10.34l-4.283-4.464H89.05l4.283 4.464H79.7z"/></g><defs><clipPath id="clip0"><path fill="#fff" d="M0 0h100v104.251H0z"/></clipPath></defs></svg>