<svg width="307" height="262" viewBox="0 0 307 262" fill="none" xmlns="http://www.w3.org/2000/svg">
<path fill-rule="evenodd" clip-rule="evenodd" d="M31.4246 225.122C31.1158 224.457 30.6665 223.827 30.224 223.231C29.5277 222.293 28.7879 221.384 28.1418 220.416C27.476 219.418 26.893 218.339 26.6486 217.184C26.5699 216.814 26.5271 216.437 26.5271 216.059C26.5271 213.699 28.9331 211.143 30.3482 209.275C30.7663 208.723 31.2998 208.264 31.555 207.622L31.971 206.574L32.3972 207.619C32.6755 208.303 33.1967 208.974 33.6643 209.561C34.3519 210.424 35.0794 211.26 35.714 212.158C36.3859 213.108 36.9784 214.152 37.1997 215.274C37.3001 215.786 37.3205 216.306 37.2445 216.823C37.0429 218.199 35.9427 220.048 35.1745 221.256C34.546 222.244 33.8673 223.208 33.1275 224.129C32.8248 224.505 32.514 224.886 32.1726 225.235L31.7009 225.716L31.4246 225.122ZM30.5892 261.52L19.9668 256.604L19.9349 256.583C18.9121 255.883 18.095 255.055 17.5846 253.975C17.024 252.789 16.9086 251.461 16.8855 250.183C16.8584 248.7 16.9351 247.216 16.9568 245.733L16.9663 245.066L17.6138 245.376C19.0465 246.061 20.4874 246.732 21.9296 247.4C23.1357 247.96 24.3458 248.514 25.5288 249.114C26.9574 249.839 28.5727 250.719 29.453 252.015C30.1541 253.047 30.3672 254.28 30.4731 255.471C30.5505 256.341 30.5708 257.214 30.5817 258.087C30.5932 259.009 30.5912 259.932 30.5898 260.855L30.5892 261.52ZM33.3603 235.733C33.361 234.572 33.365 233.411 33.3949 232.25C33.42 231.292 33.458 230.33 33.5727 229.376C33.7112 228.221 33.9616 226.99 34.7835 226.062C35.5905 225.149 36.9445 224.538 38.0739 224.014C38.9847 223.591 39.9009 223.178 40.8056 222.744C42.0327 222.155 43.2408 221.534 44.4258 220.878C45.0699 220.522 45.678 220.193 46.3954 219.973L46.9879 219.791L46.9872 220.361C46.9866 221.49 46.9818 222.619 46.9513 223.748C46.9255 224.701 46.8847 225.656 46.7687 226.604C46.6214 227.806 46.3527 229.06 45.5233 230.039C44.7027 231.008 43.3799 231.652 42.2044 232.201C41.297 232.625 40.3767 233.026 39.4625 233.439C38.2429 233.99 37.0321 234.559 35.8369 235.153C35.2016 235.469 34.6539 235.867 33.9745 236.114L33.3596 236.336L33.3603 235.733ZM33.3596 260.857C33.3583 259.9 33.3562 258.941 33.3671 257.984C33.3773 257.094 33.3956 256.204 33.4736 255.317C33.5782 254.128 33.7865 252.885 34.5039 251.86C35.3862 250.601 37.0198 249.752 38.4309 249.057C39.6159 248.474 40.824 247.932 42.028 247.382C43.4695 246.723 44.9077 246.058 46.3357 245.376L46.9838 245.067L46.9927 245.733C47.013 247.263 47.0863 248.792 47.0375 250.322C46.994 251.656 46.8406 253.047 46.2006 254.266C45.6597 255.296 44.8358 256.079 43.7573 256.746L33.3603 261.52L33.3596 260.857ZM29.9335 248.431C28.3712 247.684 26.8 246.952 25.2607 246.167C24.3723 245.713 23.475 245.274 22.5757 244.837C21.895 244.506 21.2116 244.178 20.5424 243.827C19.639 243.353 18.6827 242.805 18.0705 242.018C17.3362 241.073 17.1577 239.835 17.066 238.708C16.9893 237.772 16.9751 236.833 16.9663 235.896C16.9561 234.816 16.9602 233.737 16.9615 232.657L16.9622 231.977L22.288 234.559C23.9202 235.351 25.5851 236.108 27.14 237.023C28.0875 237.581 29.0125 238.226 29.6057 239.119C30.281 240.138 30.448 241.377 30.5274 242.542C30.5871 243.427 30.5953 244.314 30.5973 245.2C30.6 246.157 30.5932 247.113 30.5905 248.069L30.5885 248.743L29.9335 248.431ZM29.9905 236.12C29.0214 235.793 28.0848 235.28 27.1868 234.816C26.5142 234.469 25.843 234.117 25.1514 233.803C23.5178 233.062 21.8522 232.345 20.3089 231.456C19.3662 230.912 18.4553 230.278 17.8771 229.39C17.214 228.372 17.0627 227.125 16.9955 225.965C16.9446 225.086 16.9439 224.206 16.9459 223.326C16.9486 222.384 16.9575 221.442 16.9608 220.5L16.9636 219.827L27.4916 224.855C30.6 226.693 30.7724 229.979 30.6896 233.025C30.6645 233.932 30.6129 234.837 30.5953 235.744L30.5837 236.321L29.9905 236.12ZM33.3549 248.076C33.3331 246.558 33.2551 245.039 33.2931 243.521C33.3257 242.208 33.4621 240.838 34.0743 239.633C34.6247 238.549 35.49 237.738 36.5644 237.074C37.1732 236.697 37.8336 236.385 38.4777 236.06C39.5229 235.534 40.5776 235.023 41.6384 234.522C42.7555 233.994 43.8788 233.476 45.0197 232.991C45.4669 232.8 45.9169 232.606 46.3778 232.443L46.9872 232.229L46.9879 232.825C46.9886 233.82 46.9899 234.815 46.9743 235.809C46.9601 236.698 46.9357 237.588 46.8501 238.474C46.7354 239.675 46.5094 240.919 45.7805 241.951C44.8833 243.22 43.2585 244.074 41.8352 244.78C40.6584 245.363 39.4577 245.904 38.2619 246.452C36.84 247.103 35.4208 247.759 34.0118 248.433L33.3644 248.742L33.3549 248.076ZM32.3293 220.442L32.3368 220.417C32.3843 220.268 32.497 220.109 32.5839 219.975C32.7366 219.736 32.894 219.5 33.0433 219.26C33.4417 218.622 33.7933 217.953 34.0091 217.243C34.6356 215.18 33.8442 213.547 31.9859 212.306L31.9744 212.299L31.9628 212.306C29.356 214.048 29.0628 216.338 30.6407 218.827C31.2441 219.778 31.0486 220.132 32.311 220.438L32.3293 220.442ZM19.9994 249.686V249.708C19.9994 250.838 19.9553 252.462 20.6435 253.44C21.0588 254.03 21.7145 254.413 22.3898 254.719C24.1252 255.505 25.8125 256.375 27.5248 257.201L27.5527 257.214V257.186C27.5527 256.098 27.6063 254.528 26.9948 253.565C26.5916 252.931 25.9041 252.488 25.2315 252.114C24.4157 251.66 23.5666 251.254 22.721 250.849C22.1882 250.594 21.6527 250.344 21.1097 250.108C20.7724 249.961 20.3829 249.78 20.0231 249.692L19.9994 249.686ZM36.3975 231.659L36.4199 231.654C36.8108 231.571 37.2119 231.415 37.5811 231.273C38.118 231.066 38.6467 230.842 39.1713 230.611C39.6837 230.385 40.1907 230.151 40.6923 229.906C41.052 229.73 41.4151 229.553 41.7545 229.345C42.3857 228.96 43.0121 228.513 43.3928 227.901C43.9779 226.957 43.9501 225.531 43.9501 224.471V224.45L43.9263 224.455C42.2818 224.803 40.1364 226.034 38.6786 226.841C38.0128 227.209 37.2153 227.664 36.8251 228.298C36.3092 229.137 36.3975 230.687 36.3975 231.638V231.659ZM43.9501 249.687L43.9263 249.692C43.5849 249.764 43.1716 249.959 42.8519 250.096C42.2933 250.336 41.7422 250.591 41.1932 250.849C40.3482 251.247 39.5052 251.65 38.6772 252.077C37.9782 252.437 37.2316 252.878 36.8386 253.539C36.2882 254.464 36.3975 256.145 36.3975 257.186V257.215L41.5468 254.706C42.2173 254.357 42.8859 253.941 43.3046 253.335C43.9752 252.363 43.9501 250.824 43.9501 249.708V249.687ZM19.9994 236.595V236.622C19.9994 237.696 19.9098 239.323 20.484 240.281C20.8783 240.937 21.5808 241.374 22.2798 241.733C23.1058 242.156 23.944 242.559 24.7863 242.955C25.3285 243.21 25.8735 243.461 26.4253 243.699C26.7681 243.847 27.1624 244.028 27.5282 244.116L27.5527 244.123V244.1C27.5527 242.906 27.5364 241.36 26.7749 240.338C26.2346 239.613 25.334 239.122 24.5066 238.708C23.0345 237.972 21.5109 237.324 20.0272 236.607L19.9994 236.595ZM19.9994 224.45V224.471C19.9994 225.571 19.9621 227.141 20.6245 228.097C21.0439 228.703 21.7335 229.119 22.4027 229.469C23.2158 229.894 24.0526 230.284 24.8955 230.659C25.3849 230.877 25.8783 231.088 26.3799 231.281C26.747 231.422 27.14 231.572 27.5289 231.654L27.5527 231.659V231.638C27.5527 230.578 27.5927 229.059 26.9601 228.136C26.521 227.496 25.7629 227.076 25.0462 226.733C24.3851 226.416 23.7411 226.072 23.0902 225.739C22.1794 225.272 21.0405 224.67 20.0231 224.455L19.9994 224.45ZM36.3975 244.128L36.4246 244.115C37.8031 243.449 39.2297 242.875 40.636 242.259C41.4579 241.9 42.3802 241.478 42.9673 240.823C43.9297 239.751 43.9501 237.945 43.9501 236.622V236.595L43.9229 236.607C42.2112 237.434 40.5233 238.304 38.7879 239.09C38.1125 239.396 37.4569 239.779 37.0416 240.368C36.3527 241.346 36.3975 242.971 36.3975 244.1V244.128Z" fill="#0B582C"/>
<path fill-rule="evenodd" clip-rule="evenodd" d="M41.4863 110.942H10.3726V95.0515H41.4863V110.942ZM153.5 183.598C191.534 183.598 224.63 164.329 241.702 135.911H229.497C213.529 158.814 185.462 174.011 153.5 174.011C121.538 174.011 93.4708 158.814 77.503 135.911H65.2979C82.37 164.329 115.466 183.598 153.5 183.598ZM241.702 47.9484C224.63 19.5309 191.534 0.262268 153.5 0.262268C115.466 0.262268 82.37 19.5309 65.2979 47.9484H77.503C93.4708 25.0456 121.538 9.84868 153.5 9.84868C185.462 9.84868 213.529 25.0456 229.497 47.9484H241.702ZM0 120.307H2.07411H8.346H40.9671C46.9832 120.307 51.8583 115.956 51.8583 110.659V101.106C51.8583 95.8079 46.9832 91.4569 40.9671 91.4569V91.0788C46.9832 91.0788 51.8583 86.7266 51.8583 81.4299V73.2009C51.8583 67.903 46.9832 63.5527 40.9671 63.5527H2.07411C0.933889 63.5527 0 64.4038 0 65.4437V112.696V118.416V120.307ZM102.679 110.848H71.5651V73.0103H102.679V110.848ZM113.051 63.5527C97.9075 63.5527 82.7657 63.5527 67.6225 63.5527C63.9935 63.5527 61.1925 66.1066 61.1925 69.4164V112.696V114.443V120.307H67.6225H69.5385H106.62C110.251 120.307 113.051 117.753 113.051 114.443C113.051 97.4792 113.051 80.5162 113.051 63.5527ZM174.244 63.5527H172.168H165.946H165.898V63.5533C164.779 63.5775 163.872 64.418 163.872 65.4437V105.74L134.727 65.4437C133.794 64.0249 132.135 63.5527 130.787 63.5527H128.815C125.186 63.5527 122.386 66.1066 122.386 69.4164V112.696V118.416V120.307H124.459H130.682H130.731V120.306C131.85 120.282 132.758 119.442 132.758 118.416V78.3089L161.797 118.416C162.73 119.834 164.39 120.307 165.739 120.307H167.812C171.444 120.307 174.244 117.753 174.244 114.443C174.244 97.4792 174.244 80.5162 174.244 63.5527ZM235.436 63.5527H233.361H227.138H227.09V63.5533C225.973 63.5775 225.064 64.418 225.064 65.4437V110.848H193.95V65.4437C193.95 64.4038 193.017 63.5527 191.875 63.5527H185.652C184.512 63.5527 183.578 64.4038 183.578 65.4437V112.696V114.443V120.307H190.008H191.924H229.006C232.636 120.307 235.436 117.753 235.436 114.443C235.436 97.4792 235.436 80.5162 235.436 63.5527ZM307 63.5527H300.465H298.654H298.496C296.94 63.5527 295.385 64.2137 294.554 65.4437L275.886 93.4433L257.217 65.4437C256.387 64.2137 254.832 63.5527 253.276 63.5527H251.305C247.675 63.5527 244.77 66.1066 244.77 69.4164V112.696V118.416V120.307H246.845H253.068H253.116V120.306C254.235 120.282 255.143 119.442 255.143 118.416V78.9713L270.492 101.295C271.633 102.334 272.878 103.186 274.434 103.186H277.337C278.892 103.186 280.138 102.334 281.279 101.295L296.629 78.9713V118.416C296.629 119.456 297.563 120.307 298.704 120.307H304.926C306.066 120.307 307 119.456 307 118.416C307 100.128 307 81.8403 307 63.5527ZM41.4863 87.5784H10.3726V72.9175H41.4863V87.5784Z" fill="#0B582C"/>
<path d="M89.9038 250.612C90.0355 250.957 90.1142 251.229 90.123 251.445C90.1318 251.653 90.0619 251.813 89.9303 251.925C89.7898 252.029 89.5611 252.101 89.2455 252.133C88.9292 252.166 88.5077 252.182 87.9722 252.182C87.4455 252.182 87.0159 252.174 86.6996 252.149C86.3834 252.125 86.1465 252.086 85.9795 252.029C85.8132 251.974 85.6986 251.901 85.6198 251.805C85.5411 251.709 85.4705 251.597 85.4006 251.453L82.5473 244.063H68.7133L65.9829 251.357C65.9307 251.501 65.8689 251.621 65.7814 251.725C65.6931 251.829 65.5703 251.909 65.4033 251.981C65.2459 252.054 65.0083 252.101 64.7104 252.133C64.4117 252.166 64.0256 252.182 63.543 252.182C63.0421 252.182 62.6383 252.166 62.3227 252.125C62.0064 252.086 61.7784 252.013 61.6555 251.901C61.5239 251.789 61.4621 251.629 61.4709 251.421C61.4797 251.205 61.5503 250.933 61.6901 250.588L72.8473 222.383C72.9179 222.207 73.0143 222.063 73.1195 221.959C73.2335 221.847 73.3916 221.759 73.6115 221.703C73.8219 221.638 74.0941 221.591 74.4362 221.567C74.7701 221.543 75.1916 221.535 75.7094 221.535C76.2537 221.535 76.7098 221.543 77.0702 221.567C77.4299 221.591 77.7197 221.638 77.9389 221.703C78.167 221.759 78.3339 221.855 78.4568 221.967C78.5796 222.087 78.676 222.231 78.7378 222.399L89.9038 250.612ZM75.5777 225.714H75.5513L69.819 240.845H81.3888L75.5777 225.714ZM120.039 225.826C120.039 226.122 120.022 226.386 119.987 226.61C119.951 226.834 119.899 227.027 119.837 227.178C119.767 227.323 119.679 227.427 119.574 227.491C119.478 227.555 119.364 227.587 119.24 227.587C119.038 227.587 118.696 227.435 118.213 227.139C117.731 226.842 117.09 226.506 116.282 226.146C115.475 225.786 114.509 225.45 113.386 225.153C112.262 224.857 110.927 224.705 109.391 224.705C107.548 224.705 105.906 225.009 104.449 225.617C102.992 226.234 101.754 227.075 100.745 228.155C99.7267 229.236 98.9536 230.517 98.41 232.007C97.8745 233.495 97.6023 235.105 97.6023 236.842C97.6023 238.788 97.9003 240.509 98.4887 242.014C99.0853 243.511 99.9018 244.784 100.955 245.817C102 246.85 103.246 247.634 104.704 248.162C106.152 248.699 107.75 248.963 109.479 248.963C110.515 248.963 111.559 248.851 112.612 248.619C113.667 248.395 114.649 248.05 115.562 247.602V238.732H107.855C107.557 238.732 107.337 238.595 107.196 238.331C107.047 238.067 106.977 237.651 106.977 237.082C106.977 236.786 106.995 236.53 107.03 236.322C107.065 236.114 107.118 235.937 107.196 235.801C107.276 235.673 107.363 235.577 107.469 235.513C107.565 235.449 107.697 235.417 107.855 235.417H118.415C118.608 235.417 118.793 235.449 118.986 235.513C119.17 235.577 119.346 235.665 119.495 235.793C119.653 235.921 119.776 236.09 119.855 236.306C119.942 236.53 119.987 236.778 119.987 237.058V248.643C119.987 249.051 119.907 249.404 119.759 249.7C119.6 249.996 119.275 250.26 118.775 250.484C118.284 250.708 117.634 250.957 116.844 251.221C116.054 251.493 115.247 251.717 114.404 251.909C113.561 252.094 112.71 252.237 111.858 252.326C110.998 252.422 110.146 252.469 109.312 252.469C106.732 252.469 104.431 252.109 102.412 251.381C100.385 250.652 98.6733 249.612 97.2772 248.266C95.8818 246.921 94.8108 245.313 94.0731 243.431C93.336 241.55 92.9675 239.46 92.9675 237.138C92.9675 234.728 93.3625 232.543 94.1613 230.589C94.9601 228.636 96.0834 226.971 97.5317 225.586C98.9801 224.209 100.718 223.144 102.746 222.383C104.782 221.622 107.03 221.246 109.497 221.246C110.769 221.246 111.954 221.351 113.069 221.551C114.184 221.759 115.176 221.999 116.045 222.271C116.905 222.551 117.634 222.847 118.231 223.176C118.819 223.496 119.223 223.76 119.451 223.968C119.67 224.168 119.828 224.408 119.907 224.673C119.995 224.937 120.039 225.322 120.039 225.826ZM150.5 251.429C150.5 251.557 150.474 251.661 150.421 251.757C150.368 251.854 150.263 251.933 150.087 251.997C149.921 252.054 149.675 252.101 149.368 252.133C149.06 252.166 148.648 252.182 148.138 252.182C147.691 252.182 147.322 252.166 147.041 252.133C146.761 252.101 146.532 252.054 146.357 251.981C146.19 251.909 146.058 251.813 145.962 251.685C145.865 251.565 145.786 251.405 145.715 251.221L142.661 244.055C142.301 243.239 141.924 242.494 141.537 241.813C141.151 241.133 140.694 240.549 140.159 240.052C139.632 239.556 139 239.18 138.28 238.9C137.561 238.627 136.691 238.491 135.682 238.491H132.724V251.429C132.724 251.557 132.689 251.661 132.61 251.757C132.531 251.854 132.408 251.925 132.25 251.981C132.083 252.037 131.864 252.086 131.583 252.125C131.293 252.166 130.942 252.182 130.512 252.182C130.082 252.182 129.731 252.166 129.441 252.125C129.16 252.086 128.932 252.037 128.765 251.981C128.589 251.925 128.475 251.854 128.405 251.757C128.335 251.669 128.3 251.557 128.3 251.429V223.32C128.3 222.711 128.475 222.287 128.827 222.039C129.178 221.799 129.555 221.679 129.95 221.679H137.025C137.868 221.679 138.561 221.695 139.123 221.734C139.676 221.775 140.177 221.823 140.625 221.863C141.915 222.071 143.047 222.391 144.039 222.823C145.023 223.264 145.847 223.816 146.514 224.489C147.19 225.161 147.691 225.93 148.024 226.803C148.358 227.667 148.525 228.628 148.525 229.677C148.525 230.685 148.375 231.598 148.077 232.407C147.77 233.208 147.34 233.92 146.778 234.537C146.208 235.153 145.532 235.689 144.742 236.145C143.952 236.594 143.073 236.978 142.091 237.29C142.644 237.515 143.135 237.787 143.582 238.123C144.03 238.459 144.443 238.868 144.829 239.332C145.215 239.804 145.584 240.349 145.927 240.957C146.269 241.566 146.611 242.254 146.953 243.023L149.938 249.716C150.175 250.276 150.333 250.676 150.394 250.9C150.465 251.125 150.5 251.301 150.5 251.429ZM143.838 230.085C143.838 228.9 143.548 227.892 142.959 227.066C142.38 226.25 141.406 225.658 140.027 225.297C139.597 225.185 139.114 225.114 138.579 225.065C138.035 225.017 137.333 224.993 136.455 224.993H132.724V235.225H137.043C138.21 235.225 139.22 235.097 140.071 234.84C140.914 234.576 141.625 234.216 142.187 233.76C142.758 233.295 143.17 232.751 143.443 232.127C143.706 231.502 143.838 230.821 143.838 230.085ZM184.243 236.506C184.243 238.964 183.927 241.173 183.295 243.143C182.655 245.112 181.706 246.785 180.451 248.171C179.187 249.548 177.607 250.612 175.702 251.357C173.797 252.101 171.576 252.469 169.039 252.469C166.537 252.469 164.378 252.133 162.552 251.453C160.718 250.772 159.216 249.78 158.022 248.483C156.829 247.186 155.942 245.576 155.363 243.655C154.775 241.734 154.485 239.524 154.485 237.026C154.485 234.633 154.801 232.455 155.433 230.501C156.074 228.548 157.022 226.891 158.295 225.521C159.559 224.16 161.148 223.104 163.052 222.359C164.949 221.614 167.169 221.246 169.715 221.246C172.165 221.246 174.298 221.583 176.115 222.255C177.931 222.928 179.45 223.905 180.653 225.193C181.865 226.482 182.769 228.075 183.356 229.981C183.945 231.879 184.243 234.056 184.243 236.506ZM179.556 236.786C179.556 235.073 179.389 233.471 179.055 231.999C178.721 230.525 178.168 229.244 177.387 228.155C176.606 227.075 175.57 226.226 174.271 225.617C172.963 225.009 171.357 224.705 169.443 224.705C167.521 224.705 165.914 225.033 164.615 225.69C163.316 226.346 162.253 227.219 161.446 228.308C160.63 229.404 160.05 230.678 159.699 232.142C159.348 233.599 159.173 235.129 159.173 236.738C159.173 238.524 159.339 240.156 159.664 241.654C159.989 243.159 160.533 244.448 161.306 245.537C162.07 246.618 163.105 247.458 164.395 248.059C165.686 248.659 167.31 248.963 169.259 248.963C171.199 248.963 172.823 248.635 174.14 247.979C175.456 247.322 176.518 246.441 177.326 245.321C178.125 244.208 178.704 242.91 179.047 241.446C179.389 239.981 179.556 238.427 179.556 236.786ZM220.435 250.268C220.435 250.588 220.418 250.853 220.383 251.061C220.348 251.269 220.295 251.453 220.216 251.605C220.137 251.749 220.049 251.861 219.935 251.933C219.821 252.005 219.689 252.037 219.531 252.037H204.81C204.415 252.037 204.038 251.917 203.687 251.677C203.335 251.429 203.16 251.005 203.16 250.396V222.287C203.16 222.159 203.195 222.047 203.265 221.959C203.335 221.863 203.449 221.791 203.625 221.734C203.792 221.679 204.029 221.63 204.319 221.591C204.609 221.551 204.959 221.535 205.372 221.535C205.802 221.535 206.153 221.551 206.443 221.591C206.724 221.63 206.952 221.679 207.119 221.734C207.294 221.791 207.409 221.863 207.479 221.959C207.549 222.047 207.584 222.159 207.584 222.287V248.531H219.531C219.689 248.531 219.821 248.563 219.935 248.635C220.04 248.707 220.137 248.811 220.216 248.939C220.295 249.075 220.348 249.251 220.383 249.475C220.418 249.691 220.435 249.956 220.435 250.268ZM229.723 251.429C229.723 251.557 229.688 251.669 229.617 251.757C229.547 251.854 229.433 251.925 229.258 251.981C229.091 252.037 228.863 252.086 228.582 252.125C228.292 252.166 227.941 252.182 227.511 252.182C227.098 252.182 226.747 252.166 226.457 252.125C226.168 252.086 225.931 252.037 225.764 251.981C225.588 251.925 225.474 251.854 225.404 251.757C225.333 251.669 225.299 251.557 225.299 251.429V222.287C225.299 222.159 225.333 222.047 225.413 221.959C225.492 221.863 225.623 221.791 225.799 221.734C225.983 221.679 226.212 221.63 226.493 221.591C226.774 221.551 227.116 221.535 227.511 221.535C227.941 221.535 228.292 221.551 228.582 221.591C228.863 221.63 229.091 221.679 229.258 221.734C229.433 221.791 229.547 221.863 229.617 221.959C229.688 222.047 229.723 222.159 229.723 222.287V251.429ZM263.747 250.348C263.747 250.66 263.686 250.933 263.571 251.149C263.457 251.365 263.308 251.549 263.124 251.685C262.94 251.829 262.729 251.925 262.5 251.989C262.264 252.054 262.036 252.086 261.808 252.086H260.342C259.885 252.086 259.481 252.045 259.13 251.958C258.787 251.869 258.463 251.717 258.147 251.493C257.839 251.269 257.524 250.965 257.216 250.58C256.909 250.196 256.575 249.691 256.225 249.083L246.059 231.814C245.523 230.925 244.988 229.989 244.452 229.012C243.908 228.035 243.408 227.083 242.943 226.162H242.89C242.925 227.283 242.952 228.436 242.969 229.612C242.986 230.782 242.995 231.95 242.995 233.103V251.429C242.995 251.541 242.961 251.645 242.89 251.749C242.811 251.846 242.688 251.925 242.522 251.981C242.346 252.037 242.127 252.086 241.846 252.125C241.565 252.166 241.205 252.182 240.775 252.182C240.335 252.182 239.976 252.166 239.695 252.125C239.414 252.086 239.195 252.037 239.036 251.981C238.869 251.925 238.755 251.846 238.677 251.749C238.606 251.645 238.571 251.541 238.571 251.429V223.416C238.571 222.792 238.764 222.343 239.159 222.079C239.545 221.815 239.967 221.679 240.432 221.679H242.609C243.118 221.679 243.548 221.719 243.891 221.799C244.242 221.871 244.549 222.007 244.822 222.183C245.093 222.359 245.365 222.615 245.62 222.936C245.875 223.256 246.147 223.656 246.427 224.145L254.241 237.466C254.723 238.283 255.188 239.076 255.636 239.852C256.084 240.629 256.522 241.389 256.935 242.142C257.348 242.887 257.76 243.631 258.164 244.359C258.577 245.08 258.972 245.817 259.376 246.553H259.402C259.367 245.313 259.34 244.031 259.332 242.694C259.323 241.357 259.323 240.069 259.323 238.836V222.383C259.323 222.271 259.358 222.167 259.428 222.079C259.507 221.983 259.63 221.903 259.797 221.831C259.972 221.759 260.201 221.711 260.473 221.679C260.753 221.647 261.123 221.63 261.579 221.63C261.974 221.63 262.317 221.647 262.606 221.679C262.895 221.711 263.124 221.759 263.282 221.831C263.449 221.903 263.563 221.983 263.642 222.079C263.712 222.167 263.747 222.271 263.747 222.383V250.348ZM291.109 250.364C291.109 250.652 291.091 250.9 291.056 251.109C291.022 251.317 290.96 251.493 290.881 251.637C290.793 251.781 290.696 251.877 290.582 251.941C290.468 252.005 290.346 252.037 290.205 252.037H274.22C273.825 252.037 273.447 251.917 273.096 251.677C272.745 251.429 272.57 251.005 272.57 250.396V223.32C272.57 222.711 272.745 222.287 273.096 222.039C273.447 221.799 273.825 221.679 274.22 221.679H290.02C290.161 221.679 290.284 221.711 290.398 221.775C290.512 221.839 290.6 221.935 290.67 222.079C290.732 222.223 290.793 222.399 290.837 222.607C290.881 222.816 290.898 223.08 290.898 223.392C290.898 223.68 290.881 223.92 290.837 224.137C290.793 224.345 290.732 224.521 290.67 224.657C290.6 224.785 290.503 224.881 290.398 224.945C290.284 225.009 290.161 225.041 290.02 225.041H276.993V234.553H288.177C288.318 234.553 288.44 234.584 288.555 234.657C288.66 234.728 288.757 234.824 288.835 234.953C288.914 235.081 288.967 235.249 289.002 235.465C289.038 235.689 289.055 235.945 289.055 236.242C289.055 236.53 289.038 236.77 289.002 236.97C288.967 237.178 288.914 237.338 288.835 237.466C288.757 237.594 288.66 237.683 288.555 237.739C288.44 237.795 288.318 237.819 288.177 237.819H276.993V248.675H290.205C290.346 248.675 290.468 248.707 290.582 248.771C290.696 248.835 290.793 248.931 290.881 249.06C290.96 249.195 291.022 249.371 291.056 249.579C291.091 249.788 291.109 250.052 291.109 250.364Z" fill="#0B582C"/>
</svg>
