<svg width="281" height="262" viewBox="0 0 281 262" fill="none" xmlns="http://www.w3.org/2000/svg">
<path fill-rule="evenodd" clip-rule="evenodd" d="M28.7633 225.122C28.4806 224.457 28.0694 223.827 27.6643 223.231C27.0269 222.293 26.3498 221.384 25.7584 220.416C25.149 219.418 24.6154 218.339 24.3917 217.184C24.3197 216.814 24.2805 216.437 24.2805 216.059C24.2805 213.699 26.4828 211.143 27.778 209.275C28.1607 208.723 28.649 208.264 28.8825 207.622L29.2633 206.574L29.6535 207.619C29.9082 208.303 30.3853 208.974 30.8133 209.561C31.4426 210.424 32.1085 211.26 32.6894 212.158C33.3044 213.108 33.8467 214.152 34.0492 215.274C34.1412 215.786 34.1598 216.306 34.0902 216.823C33.9057 218.199 32.8987 220.048 32.1955 221.256C31.6202 222.244 30.999 223.208 30.3219 224.129C30.0448 224.505 29.7603 224.886 29.4478 225.235L29.0161 225.716L28.7633 225.122V225.122ZM27.9985 261.52L18.2758 256.604L18.2466 256.583C17.3104 255.883 16.5625 255.055 16.0953 253.975C15.5822 252.789 15.4766 251.461 15.4555 250.183C15.4306 248.7 15.5008 247.216 15.5207 245.733L15.5294 245.066L16.122 245.376C17.4334 246.061 18.7523 246.732 20.0724 247.4C21.1763 247.96 22.2839 248.514 23.3667 249.114C24.6744 249.839 26.1529 250.719 26.9586 252.015C27.6003 253.047 27.7954 254.28 27.8923 255.471C27.9631 256.341 27.9818 257.214 27.9917 258.087C28.0023 259.009 28.0004 259.932 27.9992 260.855L27.9985 261.52V261.52ZM30.535 235.733C30.5356 234.572 30.5393 233.411 30.5667 232.25C30.5896 231.292 30.6244 230.33 30.7294 229.376C30.8561 228.221 31.0854 226.99 31.8377 226.062C32.5763 225.149 33.8156 224.538 34.8494 224.014C35.683 223.591 36.5217 223.178 37.3498 222.744C38.4729 222.155 39.5787 221.534 40.6634 220.878C41.2529 220.522 41.8095 220.193 42.4662 219.973L43.0085 219.791L43.0079 220.361C43.0072 221.49 43.0029 222.619 42.9749 223.748C42.9513 224.701 42.914 225.656 42.8078 226.604C42.673 227.806 42.427 229.06 41.6679 230.039C40.9168 231.008 39.7061 231.652 38.6301 232.201C37.7995 232.625 36.9572 233.026 36.1204 233.439C35.004 233.99 33.8958 234.559 32.8018 235.153C32.2204 235.469 31.719 235.867 31.0972 236.114L30.5344 236.336L30.535 235.733ZM30.5344 260.857C30.5331 259.9 30.5312 258.941 30.5412 257.984C30.5505 257.094 30.5673 256.204 30.6387 255.317C30.7344 254.128 30.9251 252.885 31.5817 251.86C32.3893 250.601 33.8846 249.752 35.1761 249.057C36.2608 248.474 37.3665 247.932 38.4686 247.382C39.7881 246.723 41.1044 246.058 42.4115 245.376L43.0047 245.067L43.0128 245.733C43.0315 247.263 43.0986 248.792 43.0538 250.322C43.0141 251.656 42.8737 253.047 42.2879 254.266C41.7928 255.296 41.0386 256.079 40.0515 256.746L30.535 261.52L30.5344 260.857V260.857ZM27.3984 248.431C25.9684 247.684 24.5303 246.952 23.1213 246.167C22.3082 245.713 21.4869 245.274 20.6638 244.837C20.0407 244.506 19.4151 244.178 18.8026 243.827C17.9758 243.353 17.1005 242.805 16.5401 242.018C15.8679 241.073 15.7046 239.835 15.6207 238.708C15.5505 237.772 15.5375 236.833 15.5294 235.896C15.5201 234.816 15.5238 233.737 15.525 232.657L15.5257 231.977L20.4004 234.559C21.8944 235.351 23.4183 236.108 24.8415 237.023C25.7087 237.581 26.5554 238.226 27.0984 239.119C27.7165 240.138 27.8693 241.377 27.942 242.542C27.9967 243.427 28.0041 244.314 28.006 245.2C28.0085 246.157 28.0023 247.113 27.9998 248.069L27.9979 248.743L27.3984 248.431V248.431ZM27.4506 236.12C26.5635 235.793 25.7062 235.28 24.8844 234.816C24.2687 234.469 23.6543 234.117 23.0213 233.803C21.526 233.062 20.0016 232.345 18.5889 231.456C17.726 230.912 16.8923 230.278 16.3631 229.39C15.7561 228.372 15.6176 227.125 15.5561 225.965C15.5095 225.086 15.5089 224.206 15.5108 223.326C15.5132 222.384 15.5213 221.442 15.5244 220.5L15.5269 219.827L25.1633 224.855C28.0085 226.693 28.1663 229.979 28.0905 233.025C28.0675 233.932 28.0203 234.837 28.0041 235.744L27.9936 236.321L27.4506 236.12V236.12ZM30.53 248.076C30.5101 246.558 30.4387 245.039 30.4735 243.521C30.5033 242.208 30.6282 240.838 31.1885 239.633C31.6923 238.549 32.4844 237.738 33.4678 237.074C34.025 236.697 34.6294 236.385 35.219 236.06C36.1757 235.534 37.141 235.023 38.112 234.522C39.1345 233.994 40.1627 233.476 41.2069 232.991C41.6163 232.8 42.0282 232.606 42.45 232.443L43.0079 232.229L43.0085 232.825C43.0091 233.82 43.0103 234.815 42.996 235.809C42.983 236.698 42.9606 237.588 42.8824 238.474C42.7774 239.675 42.5705 240.919 41.9033 241.951C41.0821 243.22 39.5949 244.074 38.2922 244.78C37.215 245.363 36.116 245.904 35.0214 246.452C33.72 247.103 32.421 247.759 31.1314 248.433L30.5387 248.742L30.53 248.076V248.076ZM29.5913 220.442L29.5982 220.417C29.6417 220.268 29.7448 220.109 29.8243 219.975C29.9641 219.736 30.1082 219.5 30.2449 219.26C30.6095 218.622 30.9313 217.953 31.1289 217.243C31.7023 215.18 30.9779 213.547 29.277 212.306L29.2665 212.299L29.2559 212.306C26.8698 214.048 26.6014 216.338 28.0457 218.827C28.598 219.778 28.4191 220.132 29.5746 220.438L29.5913 220.442V220.442ZM18.3056 249.686V249.708C18.3056 250.838 18.2652 252.462 18.8952 253.44C19.2754 254.03 19.8754 254.413 20.4936 254.719C22.082 255.505 23.6264 256.375 25.1937 257.201L25.2192 257.214V257.186C25.2192 256.098 25.2683 254.528 24.7085 253.565C24.3395 252.931 23.7102 252.488 23.0946 252.114C22.3479 251.66 21.5708 251.254 20.7967 250.849C20.3091 250.594 19.8189 250.344 19.3219 250.108C19.0132 249.961 18.6566 249.78 18.3274 249.692L18.3056 249.686V249.686ZM33.3149 231.659L33.3354 231.654C33.6933 231.571 34.0604 231.415 34.3984 231.273C34.8897 231.066 35.3737 230.842 35.8539 230.611C36.3229 230.385 36.7869 230.151 37.246 229.906C37.5753 229.73 37.9076 229.553 38.2182 229.345C38.796 228.96 39.3694 228.513 39.7179 227.901C40.2534 226.957 40.2279 225.531 40.2279 224.471V224.45L40.2062 224.455C38.7009 224.803 36.7372 226.034 35.4029 226.841C34.7934 227.209 34.0635 227.664 33.7063 228.298C33.2342 229.137 33.3149 230.687 33.3149 231.638V231.659V231.659ZM40.2279 249.687L40.2062 249.692C39.8937 249.764 39.5154 249.959 39.2228 250.096C38.7115 250.336 38.2071 250.591 37.7045 250.849C36.9311 251.247 36.1595 251.65 35.4016 252.077C34.7618 252.437 34.0784 252.878 33.7187 253.539C33.2149 254.464 33.3149 256.145 33.3149 257.186V257.215L38.0281 254.706C38.6419 254.357 39.2538 253.941 39.6371 253.335C40.2509 252.363 40.2279 250.824 40.2279 249.708V249.687ZM18.3056 236.595V236.622C18.3056 237.696 18.2236 239.323 18.7492 240.281C19.1101 240.937 19.7531 241.374 20.3929 241.733C21.149 242.156 21.9162 242.559 22.6871 242.955C23.1834 243.21 23.6823 243.461 24.1873 243.699C24.5011 243.847 24.862 244.028 25.1968 244.116L25.2192 244.123V244.1C25.2192 242.906 25.2043 241.36 24.5073 240.338C24.0128 239.613 23.1884 239.122 22.4311 238.708C21.0837 237.972 19.6891 237.324 18.3311 236.607L18.3056 236.595ZM18.3056 224.45V224.471C18.3056 225.571 18.2715 227.141 18.8778 228.097C19.2617 228.703 19.8928 229.119 20.5054 229.469C21.2496 229.894 22.0156 230.284 22.7871 230.659C23.235 230.877 23.6866 231.088 24.1457 231.281C24.4818 231.422 24.8415 231.572 25.1975 231.654L25.2192 231.659V231.638C25.2192 230.578 25.2558 229.059 24.6769 228.136C24.2749 227.496 23.581 227.076 22.925 226.733C22.3199 226.416 21.7304 226.072 21.1347 225.739C20.301 225.272 19.2586 224.67 18.3274 224.455L18.3056 224.45V224.45ZM33.3149 244.128L33.3398 244.115C34.6015 243.449 35.9073 242.875 37.1945 242.259C37.9468 241.9 38.791 241.478 39.3284 240.823C40.2093 239.751 40.2279 237.945 40.2279 236.622V236.595L40.203 236.607C38.6363 237.434 37.0913 238.304 35.5029 239.09C34.8848 239.396 34.2847 239.779 33.9045 240.368C33.2739 241.346 33.3149 242.971 33.3149 244.1V244.128V244.128Z" fill="#0B582C"/>
<path fill-rule="evenodd" clip-rule="evenodd" d="M37.9728 110.942H9.49414V95.0515H37.9728V110.942ZM140.5 183.598C175.313 183.598 205.606 164.329 221.232 135.911H210.061C195.445 158.814 169.755 174.011 140.5 174.011C111.245 174.011 85.5547 158.814 70.9393 135.911H59.7678C75.394 164.329 105.687 183.598 140.5 183.598ZM221.232 47.9484C205.606 19.5309 175.313 0.262268 140.5 0.262268C105.687 0.262268 75.394 19.5309 59.7678 47.9484H70.9393C85.5547 25.0456 111.245 9.84868 140.5 9.84868C169.755 9.84868 195.445 25.0456 210.061 47.9484H221.232ZM0 120.307H1.89845H7.63917H37.4976C43.0041 120.307 47.4664 115.956 47.4664 110.659V101.106C47.4664 95.8079 43.0041 91.4569 37.4976 91.4569V91.0788C43.0041 91.0788 47.4664 86.7266 47.4664 81.4299V73.2009C47.4664 67.903 43.0041 63.5527 37.4976 63.5527H1.89845C0.854797 63.5527 0 64.4038 0 65.4437V112.696V118.416V120.307V120.307ZM93.9835 110.848H65.5042V73.0103H93.9835V110.848ZM103.476 63.5527C89.6157 63.5527 75.7562 63.5527 61.8955 63.5527C58.5738 63.5527 56.01 66.1066 56.01 69.4164V112.696V114.443V120.307H61.8955H63.6492H97.5903C100.914 120.307 103.476 117.753 103.476 114.443C103.476 97.4792 103.476 80.5162 103.476 63.5527ZM159.487 63.5527H157.587H151.892H151.848V63.5533C150.824 63.5775 149.994 64.418 149.994 65.4437V105.74L123.317 65.4437C122.463 64.0249 120.945 63.5527 119.71 63.5527H117.906C114.584 63.5527 112.021 66.1066 112.021 69.4164V112.696V118.416V120.307H113.919H119.615H119.659V120.306C120.684 120.282 121.514 119.442 121.514 118.416V78.3089L148.094 118.416C148.949 119.834 150.468 120.307 151.703 120.307H153.6C156.924 120.307 159.487 117.753 159.487 114.443C159.487 97.4792 159.487 80.5162 159.487 63.5527V63.5527ZM215.497 63.5527H213.597H207.902H207.858V63.5533C206.835 63.5775 206.004 64.418 206.004 65.4437V110.848H177.524V65.4437C177.524 64.4038 176.67 63.5527 175.625 63.5527H169.929C168.886 63.5527 168.031 64.4038 168.031 65.4437V112.696V114.443V120.307H173.916H175.67H209.611C212.934 120.307 215.497 117.753 215.497 114.443C215.497 97.4792 215.497 80.5162 215.497 63.5527ZM281 63.5527H275.019H273.361H273.216C271.792 63.5527 270.368 64.2137 269.608 65.4437L252.521 93.4433L235.433 65.4437C234.674 64.2137 233.25 63.5527 231.826 63.5527H230.022C226.7 63.5527 224.041 66.1066 224.041 69.4164V112.696V118.416V120.307H225.939H231.635H231.68V120.306C232.704 120.282 233.535 119.442 233.535 118.416V78.9712L247.584 101.295C248.628 102.334 249.768 103.186 251.192 103.186H253.849C255.273 103.186 256.413 102.334 257.457 101.295L271.507 78.9712V118.416C271.507 119.456 272.362 120.307 273.406 120.307H279.102C280.145 120.307 281 119.456 281 118.416C281 100.128 281 81.8403 281 63.5527ZM37.9728 87.5784H9.49414V72.9175H37.9728V87.5784Z" fill="#0B582C"/>
<path d="M82.2898 250.612C82.4103 250.957 82.4824 251.229 82.4904 251.445C82.4985 251.653 82.4345 251.813 82.314 251.925C82.1854 252.029 81.9761 252.101 81.6872 252.133C81.3977 252.166 81.0119 252.182 80.5218 252.182C80.0397 252.182 79.6465 252.174 79.357 252.149C79.0675 252.125 78.8507 252.086 78.6979 252.029C78.5457 251.974 78.4407 251.901 78.3686 251.805C78.2966 251.709 78.232 251.597 78.168 251.453L75.5564 244.063H62.894L60.3948 251.357C60.347 251.501 60.2904 251.621 60.2103 251.725C60.1295 251.829 60.0171 251.909 59.8643 251.981C59.7202 252.054 59.5027 252.101 59.23 252.133C58.9567 252.166 58.6032 252.182 58.1615 252.182C57.703 252.182 57.3334 252.166 57.0446 252.125C56.7551 252.086 56.5463 252.013 56.4339 251.901C56.3134 251.789 56.2568 251.629 56.2649 251.421C56.273 251.205 56.3376 250.933 56.4656 250.588L66.6778 222.383C66.7425 222.207 66.8307 222.063 66.927 221.959C67.0313 221.847 67.1761 221.759 67.3773 221.703C67.5699 221.638 67.819 221.591 68.1321 221.567C68.4378 221.543 68.8236 221.535 69.2975 221.535C69.7958 221.535 70.2132 221.543 70.5431 221.567C70.8723 221.591 71.1376 221.638 71.3383 221.703C71.547 221.759 71.6998 221.855 71.8122 221.967C71.9247 222.087 72.0129 222.231 72.0694 222.399L82.2898 250.612V250.612ZM69.177 225.714H69.1528L63.906 240.845H74.4959L69.177 225.714V225.714ZM109.873 225.826C109.873 226.122 109.857 226.386 109.825 226.61C109.793 226.834 109.745 227.027 109.688 227.178C109.624 227.323 109.543 227.427 109.447 227.491C109.359 227.555 109.255 227.587 109.142 227.587C108.957 227.587 108.644 227.435 108.202 227.139C107.76 226.842 107.173 226.506 106.434 226.146C105.695 225.786 104.811 225.45 103.783 225.153C102.754 224.857 101.533 224.705 100.127 224.705C98.4397 224.705 96.937 225.009 95.6032 225.617C94.2694 226.234 93.1363 227.075 92.2126 228.155C91.2807 229.236 90.5732 230.517 90.0756 232.007C89.5854 233.495 89.3363 235.105 89.3363 236.842C89.3363 238.788 89.609 240.509 90.1476 242.014C90.6937 243.511 91.441 244.784 92.4052 245.817C93.3612 246.85 94.5024 247.634 95.8362 248.162C97.1619 248.699 98.6242 248.963 100.207 248.963C101.155 248.963 102.111 248.851 103.075 248.619C104.04 248.395 104.94 248.05 105.775 247.602V238.732H98.7205C98.4478 238.732 98.2465 238.595 98.1179 238.331C97.9813 238.067 97.9173 237.651 97.9173 237.082C97.9173 236.786 97.9334 236.53 97.9657 236.322C97.9974 236.114 98.0459 235.937 98.1179 235.801C98.1906 235.673 98.2707 235.577 98.367 235.513C98.4552 235.449 98.5764 235.417 98.7205 235.417H108.387C108.563 235.417 108.732 235.449 108.909 235.513C109.078 235.577 109.238 235.665 109.375 235.793C109.519 235.921 109.632 236.09 109.704 236.306C109.784 236.53 109.825 236.778 109.825 237.058V248.643C109.825 249.051 109.752 249.404 109.616 249.7C109.471 249.996 109.174 250.26 108.716 250.484C108.266 250.708 107.672 250.957 106.949 251.221C106.225 251.493 105.486 251.717 104.715 251.909C103.943 252.094 103.164 252.237 102.384 252.326C101.597 252.422 100.818 252.469 100.054 252.469C97.6924 252.469 95.5871 252.109 93.7389 251.381C91.8833 250.652 90.3166 249.612 89.0388 248.266C87.7615 246.921 86.7812 245.313 86.106 243.431C85.4313 241.55 85.094 239.46 85.094 237.138C85.094 234.728 85.4555 232.543 86.1867 230.589C86.9179 228.636 87.946 226.971 89.2717 225.586C90.5974 224.209 92.1883 223.144 94.0446 222.383C95.9082 221.622 97.9657 221.246 100.223 221.246C101.388 221.246 102.473 221.351 103.493 221.551C104.514 221.759 105.422 221.999 106.217 222.271C107.005 222.551 107.672 222.847 108.218 223.176C108.756 223.496 109.126 223.76 109.335 223.968C109.535 224.168 109.68 224.408 109.752 224.673C109.833 224.937 109.873 225.322 109.873 225.826V225.826ZM137.754 251.429C137.754 251.557 137.73 251.661 137.682 251.757C137.633 251.854 137.537 251.933 137.376 251.997C137.224 252.054 136.999 252.101 136.718 252.133C136.436 252.166 136.058 252.182 135.593 252.182C135.183 252.182 134.845 252.166 134.588 252.133C134.331 252.101 134.122 252.054 133.962 251.981C133.809 251.909 133.688 251.813 133.6 251.685C133.511 251.565 133.439 251.405 133.375 251.221L130.579 244.055C130.249 243.239 129.904 242.494 129.551 241.813C129.197 241.133 128.779 240.549 128.289 240.052C127.807 239.556 127.228 239.18 126.569 238.9C125.911 238.627 125.115 238.491 124.191 238.491H121.483V251.429C121.483 251.557 121.452 251.661 121.379 251.757C121.307 251.854 121.194 251.925 121.05 251.981C120.897 252.037 120.696 252.086 120.439 252.125C120.174 252.166 119.853 252.182 119.459 252.182C119.065 252.182 118.744 252.166 118.478 252.125C118.221 252.086 118.013 252.037 117.86 251.981C117.699 251.925 117.594 251.854 117.53 251.757C117.466 251.669 117.434 251.557 117.434 251.429V223.32C117.434 222.711 117.594 222.287 117.916 222.039C118.237 221.799 118.583 221.679 118.944 221.679H125.421C126.192 221.679 126.826 221.695 127.341 221.734C127.847 221.775 128.305 221.823 128.715 221.863C129.896 222.071 130.932 222.391 131.84 222.823C132.741 223.264 133.495 223.816 134.106 224.489C134.725 225.161 135.183 225.93 135.488 226.803C135.793 227.667 135.946 228.628 135.946 229.677C135.946 230.685 135.809 231.598 135.537 232.407C135.255 233.208 134.861 233.92 134.347 234.537C133.825 235.153 133.206 235.689 132.483 236.145C131.76 236.594 130.956 236.978 130.057 237.29C130.563 237.515 131.013 237.787 131.422 238.123C131.832 238.459 132.21 238.868 132.563 239.332C132.917 239.804 133.254 240.349 133.568 240.957C133.881 241.566 134.195 242.254 134.508 243.023L137.24 249.716C137.457 250.276 137.602 250.676 137.658 250.9C137.722 251.125 137.754 251.301 137.754 251.429V251.429ZM131.656 230.085C131.656 228.9 131.391 227.892 130.852 227.066C130.322 226.25 129.43 225.658 128.168 225.297C127.774 225.185 127.333 225.114 126.843 225.065C126.344 225.017 125.702 224.993 124.898 224.993H121.483V235.225H125.437C126.505 235.225 127.429 235.097 128.209 234.84C128.98 234.576 129.631 234.216 130.145 233.76C130.668 233.295 131.045 232.751 131.294 232.127C131.535 231.502 131.656 230.821 131.656 230.085V230.085ZM168.64 236.506C168.64 238.964 168.35 241.173 167.772 243.143C167.185 245.112 166.318 246.785 165.168 248.171C164.012 249.548 162.565 250.612 160.822 251.357C159.078 252.101 157.045 252.469 154.723 252.469C152.433 252.469 150.457 252.133 148.785 251.453C147.106 250.772 145.732 249.78 144.639 248.483C143.547 247.186 142.735 245.576 142.205 243.655C141.667 241.734 141.402 239.524 141.402 237.026C141.402 234.633 141.691 232.455 142.269 230.501C142.856 228.548 143.724 226.891 144.889 225.521C146.046 224.16 147.5 223.104 149.243 222.359C150.979 221.614 153.012 221.246 155.342 221.246C157.584 221.246 159.536 221.583 161.199 222.255C162.862 222.928 164.253 223.905 165.353 225.193C166.462 226.482 167.29 228.075 167.828 229.981C168.366 231.879 168.64 234.056 168.64 236.506V236.506ZM164.349 236.786C164.349 235.073 164.196 233.471 163.891 231.999C163.585 230.525 163.079 229.244 162.364 228.155C161.649 227.075 160.701 226.226 159.512 225.617C158.315 225.009 156.845 224.705 155.093 224.705C153.333 224.705 151.863 225.033 150.674 225.69C149.484 226.346 148.512 227.219 147.773 228.308C147.026 229.404 146.496 230.678 146.174 232.142C145.853 233.599 145.692 235.129 145.692 236.738C145.692 238.524 145.845 240.156 146.142 241.654C146.439 243.159 146.937 244.448 147.645 245.537C148.344 246.618 149.292 247.458 150.473 248.059C151.654 248.659 153.14 248.963 154.924 248.963C156.7 248.963 158.186 248.635 159.392 247.979C160.597 247.322 161.569 246.441 162.308 245.321C163.039 244.208 163.569 242.91 163.883 241.446C164.196 239.981 164.349 238.427 164.349 236.786V236.786ZM201.766 250.268C201.766 250.588 201.751 250.853 201.719 251.061C201.686 251.269 201.638 251.453 201.566 251.605C201.494 251.749 201.413 251.861 201.309 251.933C201.204 252.005 201.084 252.037 200.939 252.037H187.465C187.103 252.037 186.758 251.917 186.436 251.677C186.115 251.429 185.954 251.005 185.954 250.396V222.287C185.954 222.159 185.986 222.047 186.051 221.959C186.115 221.863 186.219 221.791 186.38 221.734C186.533 221.679 186.75 221.63 187.015 221.591C187.28 221.551 187.601 221.535 187.979 221.535C188.373 221.535 188.694 221.551 188.959 221.591C189.216 221.63 189.425 221.679 189.578 221.734C189.738 221.791 189.843 221.863 189.907 221.959C189.972 222.047 190.004 222.159 190.004 222.287V248.531H200.939C201.084 248.531 201.204 248.563 201.309 248.635C201.405 248.707 201.494 248.811 201.566 248.939C201.638 249.075 201.686 249.251 201.719 249.475C201.751 249.691 201.766 249.956 201.766 250.268V250.268ZM210.267 251.429C210.267 251.557 210.236 251.669 210.171 251.757C210.107 251.854 210.002 251.925 209.842 251.981C209.689 252.037 209.48 252.086 209.223 252.125C208.958 252.166 208.637 252.182 208.243 252.182C207.865 252.182 207.544 252.166 207.279 252.125C207.013 252.086 206.796 252.037 206.644 251.981C206.483 251.925 206.378 251.854 206.314 251.757C206.25 251.669 206.218 251.557 206.218 251.429V222.287C206.218 222.159 206.25 222.047 206.322 221.959C206.395 221.863 206.515 221.791 206.676 221.734C206.844 221.679 207.054 221.63 207.311 221.591C207.568 221.551 207.881 221.535 208.243 221.535C208.637 221.535 208.958 221.551 209.223 221.591C209.48 221.63 209.689 221.679 209.842 221.734C210.002 221.791 210.107 221.863 210.171 221.959C210.236 222.047 210.267 222.159 210.267 222.287V251.429ZM241.41 250.348C241.41 250.66 241.354 250.933 241.249 251.149C241.145 251.365 241.008 251.549 240.84 251.685C240.671 251.829 240.479 251.925 240.269 251.989C240.052 252.054 239.844 252.086 239.635 252.086H238.293C237.875 252.086 237.505 252.045 237.184 251.958C236.87 251.869 236.574 251.717 236.284 251.493C236.003 251.269 235.714 250.965 235.432 250.58C235.151 250.196 234.846 249.691 234.525 249.083L225.22 231.814C224.73 230.925 224.24 229.989 223.75 229.012C223.251 228.035 222.794 227.083 222.368 226.162H222.32C222.352 227.283 222.376 228.436 222.392 229.612C222.408 230.782 222.416 231.95 222.416 233.103V251.429C222.416 251.541 222.384 251.645 222.32 251.749C222.248 251.846 222.135 251.925 221.982 251.981C221.821 252.037 221.621 252.086 221.364 252.125C221.106 252.166 220.777 252.182 220.383 252.182C219.981 252.182 219.652 252.166 219.395 252.125C219.138 252.086 218.937 252.037 218.792 251.981C218.639 251.925 218.535 251.846 218.463 251.749C218.398 251.645 218.367 251.541 218.367 251.429V223.416C218.367 222.792 218.543 222.343 218.905 222.079C219.258 221.815 219.644 221.679 220.07 221.679H222.062C222.528 221.679 222.922 221.719 223.236 221.799C223.557 221.871 223.838 222.007 224.088 222.183C224.336 222.359 224.585 222.615 224.819 222.936C225.052 223.256 225.301 223.656 225.557 224.145L232.709 237.466C233.151 238.283 233.576 239.076 233.986 239.852C234.396 240.629 234.797 241.389 235.175 242.142C235.553 242.887 235.931 243.631 236.3 244.359C236.678 245.08 237.039 245.817 237.409 246.553H237.433C237.401 245.313 237.377 244.031 237.369 242.694C237.361 241.357 237.361 240.069 237.361 238.836V222.383C237.361 222.271 237.393 222.167 237.457 222.079C237.53 221.983 237.642 221.903 237.795 221.831C237.955 221.759 238.164 221.711 238.414 221.679C238.67 221.647 239.008 221.63 239.426 221.63C239.787 221.63 240.101 221.647 240.365 221.679C240.631 221.711 240.84 221.759 240.984 221.831C241.137 221.903 241.241 221.983 241.314 222.079C241.378 222.167 241.41 222.271 241.41 222.383V250.348V250.348ZM266.455 250.364C266.455 250.652 266.439 250.9 266.406 251.109C266.375 251.317 266.318 251.493 266.246 251.637C266.165 251.781 266.077 251.877 265.973 251.941C265.869 252.005 265.756 252.037 265.627 252.037H250.996C250.634 252.037 250.289 251.917 249.968 251.677C249.646 251.429 249.486 251.005 249.486 250.396V223.32C249.486 222.711 249.646 222.287 249.968 222.039C250.289 221.799 250.634 221.679 250.996 221.679H265.459C265.587 221.679 265.7 221.711 265.804 221.775C265.908 221.839 265.989 221.935 266.053 222.079C266.11 222.223 266.165 222.399 266.206 222.607C266.246 222.816 266.262 223.08 266.262 223.392C266.262 223.68 266.246 223.92 266.206 224.137C266.165 224.345 266.11 224.521 266.053 224.657C265.989 224.785 265.9 224.881 265.804 224.945C265.7 225.009 265.587 225.041 265.459 225.041H253.535V234.553H263.771C263.9 234.553 264.012 234.584 264.117 234.657C264.213 234.728 264.302 234.824 264.374 234.953C264.446 235.081 264.494 235.249 264.527 235.465C264.559 235.689 264.575 235.945 264.575 236.242C264.575 236.53 264.559 236.77 264.527 236.97C264.494 237.178 264.446 237.338 264.374 237.466C264.302 237.594 264.213 237.683 264.117 237.739C264.012 237.795 263.9 237.819 263.771 237.819H253.535V248.675H265.627C265.756 248.675 265.869 248.707 265.973 248.771C266.077 248.835 266.165 248.931 266.246 249.06C266.318 249.195 266.375 249.371 266.406 249.579C266.439 249.788 266.455 250.052 266.455 250.364V250.364Z" fill="#0B582C"/>
</svg>
