<svg width="252" height="504" fill="none" xmlns="http://www.w3.org/2000/svg"><path fill-rule="evenodd" clip-rule="evenodd" d="M121.472 170.131c-2.579-6.098-6.332-11.878-10.027-17.346-5.816-8.602-11.994-16.942-17.39-25.817-5.56-9.158-10.43-19.055-12.47-29.65a54.317 54.317 0 01-1.015-10.316c0-21.65 20.094-45.094 31.912-62.235 3.491-5.059 7.947-9.267 10.078-15.155L126.034 0l3.56 9.585c2.324 6.268 6.677 12.423 10.583 17.805 5.741 7.92 11.818 15.591 17.117 23.83 5.612 8.71 10.56 18.288 12.408 28.576.839 4.701 1.009 9.472.374 14.207-1.683 12.628-10.871 29.587-17.288 40.67-5.248 9.056-10.917 17.897-17.095 26.345-2.528 3.453-5.124 6.95-7.975 10.147l-3.939 4.417-2.307-5.451zM114.494 504l-88.713-45.094-.266-.192c-8.542-6.422-15.366-14.019-19.629-23.921C1.204 423.908.241 411.729.048 400.01c-.227-13.609.414-27.214.595-40.824l.08-6.115 5.407 2.845c11.966 6.286 23.999 12.435 36.044 18.567 10.072 5.133 20.179 10.214 30.058 15.722 11.932 6.649 25.422 14.722 32.774 26.606 5.855 9.471 7.635 20.781 8.519 31.705.646 7.977.816 15.983.907 23.989.096 8.46.079 16.926.068 25.391l-.006 6.104zm23.143-236.533c.006-10.652.04-21.303.289-31.949.21-8.795.527-17.613 1.485-26.368 1.157-10.595 3.248-21.883 10.112-30.399 6.74-8.37 18.048-13.974 27.48-18.783 7.606-3.878 15.258-7.671 22.814-11.651a569.688 569.688 0 0030.234-17.113c5.379-3.27 10.458-6.286 16.449-8.301l4.949-1.669-.006 5.223c-.006 10.357-.045 20.718-.301 31.069-.215 8.744-.555 17.506-1.524 26.198-1.23 11.027-3.475 22.53-10.401 31.512-6.853 8.886-17.9 14.796-27.718 19.827-7.578 3.889-15.264 7.568-22.899 11.355-10.186 5.059-20.298 10.272-30.28 15.722-5.305 2.902-9.879 6.553-15.553 8.813l-5.135 2.044.005-5.53zm-.005 230.452c-.012-8.784-.029-17.573.062-26.357.085-8.159.238-16.329.89-24.465.873-10.907 2.613-22.308 8.604-31.705 7.369-11.555 21.012-19.339 32.796-25.716 9.897-5.348 19.986-10.316 30.041-15.364 12.04-6.041 24.051-12.145 35.976-18.402l5.413-2.833.074 6.115c.17 14.03.782 28.06.374 42.09-.363 12.242-1.643 24.999-6.989 36.179-4.517 9.448-11.398 16.625-20.405 22.746L137.637 504l-.005-6.081zm-28.613-113.982c-13.049-6.848-26.17-13.565-39.026-20.77-7.42-4.162-14.913-8.188-22.423-12.197-5.685-3.032-11.393-6.041-16.982-9.26-7.544-4.35-15.53-9.374-20.643-16.602-6.133-8.664-7.624-20.02-8.39-30.359-.64-8.579-.759-17.193-.833-25.789-.085-9.908-.05-19.81-.04-29.713l.007-6.234 44.478 23.682c13.632 7.262 27.536 14.206 40.521 22.604 7.913 5.116 15.639 11.027 20.593 19.226 5.64 9.34 7.034 20.706 7.697 31.398.499 8.113.567 16.25.584 24.375.023 8.778-.034 17.55-.057 26.322l-.017 6.183-5.469-2.866zm.476-112.921c-8.094-3.004-15.916-7.711-23.415-11.964-5.618-3.18-11.223-6.411-17-9.289-13.643-6.797-27.552-13.377-40.442-21.536-7.873-4.985-15.48-10.805-20.309-18.947-5.538-9.34-6.802-20.776-7.363-31.416-.425-8.062-.43-16.136-.413-24.21.022-8.636.096-17.277.124-25.919l.023-6.178 87.924 46.121c25.961 16.863 27.401 47.008 26.709 74.948-.21 8.318-.641 16.619-.788 24.937l-.096 5.292-4.954-1.839zm28.097 109.666c-.181-13.927-.833-27.855-.516-41.783.272-12.043 1.411-24.607 6.524-35.667 4.597-9.937 11.824-17.375 20.797-23.467 5.084-3.458 10.599-6.325 15.978-9.3a1115.798 1115.798 0 0126.397-14.11c9.33-4.843 18.711-9.595 28.239-14.047 3.735-1.748 7.493-3.526 11.342-5.019l5.09-1.971.006 5.474c.005 9.124.016 18.248-.114 27.367-.119 8.159-.323 16.318-1.037 24.449-.958 11.015-2.846 22.428-8.933 31.887-7.494 11.639-21.063 19.48-32.949 25.953-9.829 5.348-19.856 10.306-29.843 15.336-11.875 5.973-23.727 11.992-35.494 18.169l-5.408 2.839-.079-6.11zm-8.565-253.481l.063-.227c.396-1.369 1.337-2.822 2.063-4.059 1.275-2.186 2.59-4.35 3.837-6.553 3.327-5.854 6.264-11.992 8.066-18.498 5.232-18.925-1.377-33.903-16.897-45.287l-.096-.068-.097.068c-21.771 15.972-24.22 36.98-11.041 59.81 5.039 8.727 3.406 11.97 13.949 14.775l.153.039zM26.054 395.451v.204c0 10.357-.369 25.261 5.379 34.232 3.469 5.411 8.944 8.92 14.584 11.725 14.493 7.216 28.584 15.194 42.885 22.774l.233.119v-.261c0-9.982.447-24.381-4.66-33.216-3.366-5.814-9.108-9.873-14.725-13.308-6.814-4.162-13.904-7.893-20.967-11.606-4.45-2.339-8.922-4.633-13.456-6.797-2.817-1.345-6.07-3.009-9.075-3.809l-.198-.057zm136.948-165.356l.187-.046c3.265-.761 6.615-2.197 9.699-3.497 4.483-1.897 8.899-3.951 13.28-6.069a341.079 341.079 0 0012.702-6.468c3.005-1.612 6.037-3.242 8.871-5.144 5.272-3.538 10.503-7.631 13.683-13.252 4.886-8.659 4.654-21.735 4.654-31.456v-.198l-.199.045c-13.734 3.191-31.651 14.485-43.826 21.889-5.56 3.378-12.221 7.551-15.48 13.365-4.308 7.7-3.571 21.916-3.571 30.632v.199zm63.076 165.362l-.199.045c-2.851.664-6.303 2.447-8.972 3.708-4.665 2.203-9.268 4.536-13.853 6.904-7.057 3.651-14.097 7.347-21.012 11.265-5.839 3.304-12.073 7.347-15.355 13.411-4.597 8.488-3.685 23.904-3.685 33.454v.267l43.005-23.013c5.6-3.202 11.183-7.023 14.68-12.582 5.6-8.909 5.391-23.029 5.391-33.261v-.198zM26.054 275.365v.255c0 9.851-.749 24.772 4.047 33.556 3.293 6.024 9.16 10.033 14.998 13.32 6.898 3.884 13.898 7.58 20.932 11.208 4.53 2.34 9.08 4.645 13.689 6.825 2.862 1.357 6.156 3.021 9.21 3.833l.205.057v-.205c0-10.958-.136-25.136-6.496-34.51-4.512-6.649-12.034-11.157-18.943-14.95-12.294-6.757-25.02-12.701-37.41-19.271l-.232-.118zm0-111.4v.198c0 10.09-.312 24.489 5.22 33.261 3.503 5.559 9.262 9.369 14.85 12.583 6.791 3.9 13.78 7.472 20.82 10.912 4.087 1.999 8.207 3.936 12.396 5.707 3.067 1.295 6.349 2.668 9.596 3.423l.199.046v-.199c0-9.721.334-23.648-4.949-32.119-3.667-5.871-9.998-9.721-15.984-12.872-5.52-2.901-10.9-6.058-16.335-9.118-7.607-4.281-17.118-9.801-25.615-11.777l-.198-.045zM163.002 344.47l.227-.12c11.512-6.109 23.427-11.378 35.171-17.022 6.864-3.299 14.567-7.171 19.47-13.172 8.038-9.834 8.208-26.408 8.208-38.536v-.255l-.227.118c-14.295 7.586-28.392 15.558-42.885 22.775-5.64 2.805-11.116 6.313-14.585 11.724-5.753 8.971-5.379 23.876-5.379 34.232v.256z" fill="#00B052"/></svg>