<svg width="423" height="625" fill="none" xmlns="http://www.w3.org/2000/svg"><path fill-rule="evenodd" clip-rule="evenodd" d="M182.441 224.234c-4.6-5.904-10.388-11.118-16.024-16.007-8.867-7.691-18.053-14.991-26.542-23.102-8.751-8.374-16.963-17.755-22.291-28.727-1.712-3.515-3.113-7.187-4.127-10.968-6.334-23.64 8.748-55.118 16.637-77.293 2.333-6.546 5.966-12.444 6.571-19.497l.981-11.512 6.691 9.424c4.372 6.165 10.926 11.611 16.765 16.346 8.587 6.969 17.467 13.567 25.664 21.012 8.676 7.869 16.881 16.88 21.909 27.573 2.292 4.888 3.873 10.047 4.565 15.403 1.857 14.281-3.214 35.488-6.978 49.467-3.081 11.425-6.684 22.737-10.958 33.77-1.751 4.509-3.562 9.087-5.74 13.412l-3.009 5.976-4.114-5.277zm90.065 366.603l-110.061-23.284-.348-.132c-11.206-4.512-20.88-10.812-28.432-20.377-8.297-10.515-12.912-23.532-16.551-36.272-4.23-14.794-7.511-29.837-11.295-44.751l-1.702-6.7 6.737 1.524c14.904 3.363 29.843 6.556 44.789 9.728 12.5 2.657 25.022 5.249 37.422 8.373 14.973 3.769 32.066 8.638 43.571 19.463 9.164 8.628 14.416 20.457 18.578 32.127 3.04 8.521 5.568 17.213 8.009 25.929 2.581 9.209 5.039 18.458 7.504 27.706l1.779 6.666zm-43.934-265.049c-3.111-11.633-6.19-23.273-9.032-34.971-2.345-9.665-4.578-19.386-6.094-29.226-1.837-11.908-2.856-24.845 2.148-36.153 4.91-11.11 15.618-20.539 24.51-28.549 7.171-6.46 14.417-12.841 21.502-19.397a643.611 643.611 0 0028.007-27.532c4.917-5.145 9.58-9.924 15.532-13.878l4.915-3.269 1.523 5.705c3.023 11.31 6.012 22.636 8.762 34.013 2.323 9.611 4.515 19.277 6 29.053 1.883 12.399 2.798 25.617-2.138 37.451-4.883 11.708-15.216 21.394-24.464 29.759-7.137 6.465-14.453 12.731-21.682 19.1-9.642 8.504-19.159 17.154-28.463 26.026-4.944 4.721-8.871 10.046-14.405 14.174l-5.01 3.734-1.611-6.04zm67.42 251.639c-2.583-9.588-5.173-19.18-7.644-28.798-2.294-8.934-4.518-17.9-6.186-26.975-2.238-12.165-3.674-25.123.119-37.137 4.665-14.772 17.285-27.265 28.287-37.675 9.241-8.736 18.805-17.112 28.307-25.566 11.379-10.119 22.708-20.298 33.9-30.619l5.081-4.678 1.87 6.656c4.291 15.27 9.064 30.411 12.723 45.85 3.186 13.473 5.52 27.778 2.954 41.549-2.168 11.639-7.582 21.489-15.626 30.807l-82 73.225-1.785-6.639zm-64.593-116.089c-16.251-3.659-32.544-7.154-48.69-11.261-9.319-2.373-18.679-4.577-28.053-6.757-7.095-1.647-14.208-3.263-21.252-5.143-9.511-2.542-19.702-5.692-27.399-12.088-9.232-7.667-14.182-19.63-18.043-30.696-3.21-9.18-5.86-18.551-8.455-27.916-2.992-10.794-5.852-21.616-8.737-32.432l-1.817-6.81 55.496 12.846c17.01 3.941 34.223 7.456 50.86 12.826 10.137 3.271 20.302 7.465 28.111 14.968 8.891 8.549 13.739 20.552 17.591 32.033 2.919 8.713 5.374 17.578 7.769 26.445 2.593 9.578 5.098 19.173 7.64 28.758l1.79 6.757-6.811-1.53zM198.88 337.897c-9.717-.912-19.635-3.763-29.068-6.213-7.064-1.828-14.13-3.716-21.279-5.169-16.886-3.43-34-6.545-50.461-11.683-10.056-3.14-20.065-7.27-27.72-14.747-8.78-8.579-13.506-20.695-17.232-32.149-2.823-8.68-5.191-17.494-7.535-26.315-2.502-9.436-4.95-18.894-7.447-28.338l-1.783-6.753 109.502 24.636c33.28 10.818 43.672 43.312 51.092 74.024 2.205 9.144 4.163 18.333 6.436 27.459l1.443 5.807-5.948-.559zm62.767 111.528c-4.273-15.155-9.06-30.173-12.788-45.474-3.227-13.229-5.659-27.282-3.312-40.855 2.112-12.195 7.827-22.431 15.842-31.709 4.54-5.263 9.723-10.008 14.727-14.83 8.119-7.824 16.365-15.522 24.695-23.13 8.77-8.018 17.623-15.952 26.725-23.6 3.567-3.003 7.15-6.043 10.916-8.8l4.981-3.64 1.608 5.975c2.676 9.961 5.358 19.921 7.883 29.916 2.257 8.944 4.422 17.913 6.021 27 2.177 12.308 3.455 25.322-.425 37.432-4.776 14.902-17.299 27.433-28.384 37.979-9.168 8.716-18.666 17.063-28.1 25.478-11.219 9.996-22.4 20.035-33.441 30.224l-5.074 4.682-1.874-6.648zm-83.516-274.279l.001-.266c.033-1.61.636-3.472 1.066-5.036.753-2.76 1.556-5.507 2.273-8.277 1.92-7.366 3.33-14.927 3.395-22.559.175-22.195-11.423-36.616-31.7-44.506l-.126-.047-.085.103c-19.1 23.81-15.627 47.466 5.443 68.539 8.055 8.055 7.222 12.073 19.554 12.051l.179-.002zm-33.955 323.039l.06.223c3.03 11.308 6.988 27.691 15.889 35.805 5.371 4.894 12.376 7.123 19.355 8.535 17.938 3.64 35.658 8.228 53.491 12.321l.289.062-.076-.285c-2.921-10.899-6.645-26.754-14.806-34.906-5.378-5.364-12.835-8.116-19.974-10.224-8.657-2.551-17.491-4.55-26.289-6.538-5.543-1.252-11.098-2.449-16.682-3.484-3.47-.646-7.509-1.51-11.024-1.505l-.233-.004zm101.158-220.626l.191-.105c3.342-1.786 6.58-4.334 9.567-6.656 4.34-3.383 8.561-6.918 12.725-10.513a385.718 385.718 0 0011.978-10.778c2.809-2.64 5.643-5.307 8.181-8.213 4.721-5.405 9.236-11.406 11.064-18.474 2.801-10.884-1.278-25.094-4.122-35.708l-.058-.217-.204.107c-14.063 7.503-30.322 25.077-41.451 36.724-5.083 5.316-11.134 11.821-12.992 19.124-2.451 9.667 2.513 24.975 5.063 34.492l.058.217zM362.59 439.668l-.203.107c-2.919 1.56-6.167 4.517-8.713 6.674-4.449 3.771-8.792 7.665-13.107 11.592-6.637 6.051-13.243 12.147-19.647 18.448-5.409 5.317-11.034 11.555-12.843 19.137-2.536 10.614 2.971 27.179 5.765 37.607l.078.292 40.225-37.711c5.178-5.135 10.156-10.941 12.349-18.034 3.508-11.366-.852-26.723-3.846-37.896l-.058-.216zm-253.549-72.609l.075.279c2.882 10.757 6.43 27.268 14.236 35.456 5.359 5.615 12.938 8.276 20.275 10.157 8.668 2.223 17.393 4.211 26.136 6.114 5.629 1.23 11.274 2.415 16.944 3.447 3.522.644 7.605 1.498 11.178 1.49l.24.003-.06-.223c-3.206-11.966-7.503-27.407-17.19-35.782-6.872-5.94-16.404-8.662-25.058-10.782-15.402-3.781-31.036-6.549-46.488-10.097l-.288-.062zm-32.594-121.64l.058.216c2.952 11.017 6.825 26.831 15.432 34.791 5.451 5.045 12.854 7.52 19.897 9.394 8.556 2.273 17.233 4.128 25.926 5.825 5.048.987 10.114 1.896 15.206 2.604 3.727.517 7.712 1.056 11.48.93l.23-.007-.058-.218c-2.844-10.614-6.554-25.919-14.801-33.624-5.722-5.338-13.762-7.689-21.22-9.378-6.877-1.553-13.674-3.426-20.505-5.177-9.559-2.45-21.56-5.694-31.415-5.365l-.23.009zm202.351 157.03l.213-.197c10.783-10.04 22.251-19.279 33.424-28.878 6.53-5.61 13.808-12.092 17.406-20.08 5.899-13.09 1.235-31.236-2.313-44.479l-.075-.279-.213.196c-13.389 12.465-26.45 25.295-40.164 37.415-5.338 4.713-10.29 10.146-12.495 17.07-3.657 11.479 1.112 27.644 4.142 38.952l.075.28z" fill="#0B582C" fill-opacity=".2"/></svg>