<svg width="623" height="118" fill="none" xmlns="http://www.w3.org/2000/svg"><path fill-rule="evenodd" clip-rule="evenodd" d="M30.422 94.765a4.14 4.14 0 00-.398-.688c-.231-.34-.476-.672-.69-1.023-.221-.363-.415-.756-.496-1.176a2.15 2.15 0 01-.04-.409c0-.858.798-1.787 1.267-2.467.139-.2.316-.367.4-.6l.138-.382.142.38c.092.249.265.493.42.706.228.314.47.618.68.945.222.345.419.725.492 1.133.033.186.04.375.015.563-.067.5-.432 1.173-.686 1.612-.209.36-.434.71-.68 1.044a5.31 5.31 0 01-.316.403l-.156.175-.092-.216zM30.145 108l-3.523-1.788-.01-.007c-.34-.255-.61-.556-.78-.949-.186-.431-.224-.914-.232-1.378-.009-.54.017-1.079.024-1.619l.003-.242.215.113c.475.249.953.493 1.431.736.4.203.801.405 1.194.623.474.263 1.01.584 1.301 1.055.233.375.303.823.338 1.256.026.317.033.634.036.951.004.336.004.671.003 1.007V108zm.919-9.377c0-.422.002-.844.011-1.266a12.2 12.2 0 01.06-1.046c.045-.42.128-.867.4-1.205.269-.331.718-.554 1.092-.744.302-.154.606-.304.906-.462.407-.214.808-.44 1.2-.678.214-.13.416-.25.654-.33l.196-.066v.207c0 .41-.002.822-.012 1.232-.008.347-.022.694-.06 1.039-.05.437-.138.893-.413 1.249-.273.352-.711.586-1.101.786-.3.154-.606.3-.91.45-.404.2-.805.407-1.202.623-.21.115-.392.26-.617.35l-.204.08v-.219zm0 9.136c0-.348-.001-.697.002-1.045.004-.323.01-.647.036-.97.034-.432.103-.884.341-1.257.293-.458.835-.766 1.302-1.019.394-.212.794-.409 1.194-.609.477-.24.955-.482 1.428-.73l.215-.112.003.242c.007.557.031 1.113.015 1.669-.015.485-.066.991-.278 1.434-.18.375-.452.659-.81.902L31.064 108v-.241zm-1.137-4.519c-.518-.271-1.039-.537-1.55-.823a43.464 43.464 0 00-.89-.483c-.225-.121-.452-.24-.674-.368-.3-.172-.617-.371-.82-.658-.243-.343-.302-.793-.333-1.203-.025-.34-.03-.682-.033-1.022-.003-.393-.002-.786-.002-1.178v-.248l1.767.94c.541.287 1.093.563 1.61.895.313.203.62.438.817.763.224.37.28.82.305 1.244.02.322.023.644.024.966l-.003 1.044v.245l-.218-.114zm.02-4.476c-.322-.12-.633-.306-.93-.474-.223-.126-.446-.254-.675-.369-.542-.269-1.095-.53-1.606-.853-.313-.198-.615-.429-.807-.751-.22-.37-.27-.824-.292-1.246-.017-.32-.017-.64-.017-.96l.005-1.027.001-.245 3.492 1.829c1.03.668 1.088 1.863 1.06 2.97-.008.33-.025.66-.031.99l-.004.209-.197-.073zm1.115 4.347c-.007-.552-.033-1.104-.02-1.656.01-.477.056-.975.259-1.414.182-.394.47-.689.826-.93.201-.137.42-.25.634-.369a44.538 44.538 0 012.17-1.116c.148-.07.297-.14.45-.199l.202-.078v.217c0 .362.001.723-.004 1.085a13.34 13.34 0 01-.041.969c-.038.437-.113.889-.355 1.264-.298.461-.837.772-1.309 1.029-.39.212-.788.408-1.184.608-.472.237-.943.475-1.41.72l-.215.113-.003-.243zm-.34-10.048l.002-.01c.016-.053.054-.111.082-.16.051-.087.103-.172.153-.26.132-.232.248-.475.32-.733.208-.75-.055-1.344-.67-1.795l-.005-.003-.003.003c-.865.633-.962 1.466-.439 2.37.2.347.135.475.554.586l.006.002zm-4.089 10.634v.008c0 .411-.015 1.001.214 1.357.137.215.355.354.579.465.575.286 1.135.602 1.703.903l.009.004v-.01c0-.396.018-.967-.185-1.317-.134-.23-.362-.391-.585-.527-.27-.165-.552-.313-.832-.46a15.359 15.359 0 00-.535-.27c-.112-.053-.24-.119-.36-.151l-.008-.002zm5.438-6.555l.008-.002c.13-.03.262-.087.385-.139a13.715 13.715 0 001.032-.497c.119-.064.24-.128.352-.204.21-.14.417-.302.543-.525.194-.343.185-.862.185-1.247v-.008l-.008.002c-.545.127-1.257.574-1.74.868-.221.134-.486.3-.615.53-.171.305-.142.868-.142 1.214v.008zm2.505 6.555l-.008.002c-.113.026-.25.097-.356.147-.186.087-.368.18-.55.274-.28.144-.56.291-.835.446-.232.131-.48.291-.61.532-.182.336-.146.947-.146 1.326v.011l1.708-.913c.222-.127.444-.278.583-.499.222-.353.214-.912.214-1.318v-.008zm-7.943-4.76v.01c0 .39-.03.981.16 1.33.131.239.364.397.596.528a26.048 26.048 0 001.375.715c.114.053.245.119.366.152l.008.002v-.008c0-.435-.006-.997-.258-1.368-.18-.264-.478-.443-.752-.593-.488-.268-.994-.504-1.486-.764l-.009-.005zm0-4.417v.008c0 .4-.012.97.207 1.319.14.22.368.371.59.499a14.012 14.012 0 001.319.658c.122.052.252.106.381.136l.008.002v-.008c0-.385.013-.938-.197-1.273-.145-.233-.397-.386-.634-.51-.22-.116-.433-.24-.649-.362-.302-.17-.68-.389-1.017-.467l-.008-.002zm5.438 7.156l.01-.005c.456-.242.93-.451 1.396-.675.272-.13.578-.284.773-.522.32-.39.326-1.047.326-1.528v-.01l-.01.005c-.567.3-1.127.617-1.702.903-.224.111-.441.25-.58.465-.228.355-.213.946-.213 1.357v.01zm1.687-48.43H23.44v-5.778h10.318v5.778zm37.148 26.42c12.614 0 23.59-7.007 29.251-17.34H96.11C90.813 70.652 81.505 76.18 70.905 76.18c-10.6 0-19.908-5.527-25.203-13.855h-4.048c5.662 10.334 16.638 17.34 29.251 17.34zm29.251-49.326C94.496 20.007 83.52 13 70.907 13c-12.614 0-23.59 7.007-29.252 17.34h4.048c5.295-8.328 14.603-13.854 25.203-13.854S90.814 22.012 96.11 30.34h4.048zM20 56.65h13.586c1.995 0 3.612-1.582 3.612-3.508v-3.474c0-1.926-1.617-3.508-3.612-3.508v-.138c1.995 0 3.612-1.582 3.612-3.508v-2.993c0-1.926-1.617-3.508-3.612-3.508H20.688a.69.69 0 00-.688.688V56.65zm34.052-3.44H43.734V39.454h10.318v13.759zm3.44-17.197H42.426a2.1 2.1 0 00-2.132 2.132v18.506h15.065a2.1 2.1 0 002.133-2.132V36.014zm20.294 0h-2.768a.69.69 0 00-.672.688v14.652L64.68 36.702c-.31-.516-.86-.688-1.306-.688h-.654a2.1 2.1 0 00-2.133 2.132v18.505h2.768a.69.69 0 00.672-.687V41.38l9.63 14.584c.31.515.86.687 1.308.687h.688a2.1 2.1 0 002.133-2.132V36.014zm20.293 0h-2.768a.69.69 0 00-.672.688v16.51H84.322v-16.51a.69.69 0 00-.688-.688H81.57a.69.69 0 00-.688.688V56.65h15.065a2.1 2.1 0 002.132-2.132V36.014zm23.733 0h-2.82c-.516 0-1.032.24-1.307.688l-6.191 10.181-6.192-10.181c-.275-.448-.791-.688-1.306-.688h-.654c-1.204 0-2.167.929-2.167 2.132V56.65h2.768a.69.69 0 00.672-.687V41.62l5.09 8.117c.378.378.791.688 1.307.688h.963c.516 0 .929-.31 1.307-.688l5.091-8.117v14.343c0 .378.31.687.688.687h2.063a.69.69 0 00.688-.687v-19.95zM33.758 44.75H23.44v-5.33h10.318v5.33z" fill="#0B582C"/><path d="M49.815 104.034c.044.125.07.224.073.302a.217.217 0 01-.064.175.443.443 0 01-.227.076 4.211 4.211 0 01-.422.017 5.33 5.33 0 01-.422-.012.937.937 0 01-.239-.043.246.246 0 01-.12-.082.627.627 0 01-.072-.128l-.946-2.687h-4.588l-.906 2.652a.44.44 0 01-.066.134.325.325 0 01-.126.093.72.72 0 01-.23.056 3.615 3.615 0 01-.387.017c-.166 0-.3-.006-.404-.02-.105-.015-.181-.041-.222-.082-.043-.041-.064-.099-.061-.174a1 1 0 01.073-.303l3.7-10.256a.465.465 0 01.09-.154.339.339 0 01.163-.094c.07-.023.16-.04.274-.05a6.2 6.2 0 01.422-.01c.18 0 .332.002.451.01.12.01.216.027.288.05a.362.362 0 01.265.254l3.703 10.259zm-4.75-9.054h-.01l-1.9 5.502h3.837l-1.928-5.502zm14.744.04c0 .108-.005.204-.017.286a1.019 1.019 0 01-.05.206.257.257 0 01-.087.114.186.186 0 01-.11.035c-.068 0-.181-.055-.341-.163a5.44 5.44 0 00-.64-.361 5.98 5.98 0 00-.961-.361 4.81 4.81 0 00-1.325-.163c-.611 0-1.156.11-1.639.332-.483.224-.894.53-1.228.923a4.11 4.11 0 00-.775 1.4 5.608 5.608 0 00-.268 1.758c0 .708.1 1.334.294 1.881.198.544.47 1.007.818 1.383.347.375.76.66 1.244.853a4.18 4.18 0 001.583.291c.344 0 .69-.041 1.04-.125.349-.082.675-.207.978-.37v-3.226h-2.556c-.1 0-.172-.05-.219-.145-.05-.096-.072-.248-.072-.454 0-.108.005-.201.017-.277a.606.606 0 01.055-.19.295.295 0 01.09-.104.215.215 0 01.129-.035h3.502a.54.54 0 01.358.137.425.425 0 01.12.186.808.808 0 01.043.274v4.212a.92.92 0 01-.076.385c-.052.107-.16.204-.326.285a6.521 6.521 0 01-.64.268 7.26 7.26 0 01-.81.25 7.227 7.227 0 01-1.688.204c-.856 0-1.619-.131-2.288-.396a4.664 4.664 0 01-1.703-1.132 4.956 4.956 0 01-1.063-1.759c-.244-.684-.367-1.444-.367-2.288 0-.876.131-1.671.396-2.381a5.26 5.26 0 011.118-1.82 4.99 4.99 0 011.73-1.164c.675-.277 1.42-.414 2.238-.414a6.1 6.1 0 011.185.111c.37.076.699.163.987.262.285.102.527.21.725.33.195.115.329.211.404.287.073.073.126.16.152.256.029.096.043.236.043.42zm10.102 9.311a.258.258 0 01-.026.119c-.017.035-.052.064-.11.087a1.059 1.059 0 01-.24.05 3.969 3.969 0 01-.407.017 3.22 3.22 0 01-.364-.017.79.79 0 01-.227-.056.32.32 0 01-.13-.107.655.655 0 01-.082-.169l-1.014-2.606a9.458 9.458 0 00-.372-.815 2.616 2.616 0 00-.457-.64 1.869 1.869 0 00-.623-.42 2.249 2.249 0 00-.862-.148h-.981v4.705a.188.188 0 01-.038.119.258.258 0 01-.12.081 1.163 1.163 0 01-.22.053c-.096.014-.213.02-.355.02a2.53 2.53 0 01-.356-.02 1.204 1.204 0 01-.224-.053.22.22 0 01-.12-.081.199.199 0 01-.034-.119V94.109c0-.221.058-.375.175-.465a.612.612 0 01.372-.131h2.347c.28 0 .509.005.695.02.184.014.35.032.498.046a4.42 4.42 0 011.133.35c.326.16.6.36.82.605.225.245.39.524.501.842.11.314.166.663.166 1.045 0 .366-.05.698-.148.992-.102.292-.245.55-.431.775-.19.224-.413.42-.675.585a4.386 4.386 0 01-.88.416c.184.082.347.18.495.303.149.122.285.27.414.44.128.171.25.37.364.591.113.221.227.471.34.751l.99 2.433c.079.204.131.35.151.431a.75.75 0 01.035.193zm-2.21-7.762c0-.43-.095-.797-.29-1.097-.192-.297-.516-.513-.973-.644a2.754 2.754 0 00-.48-.084 7.537 7.537 0 00-.705-.026h-1.237v3.72h1.432c.388 0 .722-.046 1.005-.14.28-.096.515-.227.701-.392.19-.17.327-.367.417-.594a2.06 2.06 0 00.13-.743zm13.4 2.335c0 .894-.104 1.697-.314 2.414-.212.716-.527 1.324-.943 1.828-.42.5-.943.888-1.575 1.158-.632.271-1.368.405-2.21.405-.83 0-1.545-.122-2.15-.37a3.776 3.776 0 01-1.503-1.08c-.396-.471-.69-1.057-.882-1.755-.195-.699-.291-1.502-.291-2.41 0-.871.105-1.663.314-2.373.213-.71.527-1.313.95-1.811.419-.495.945-.88 1.577-1.15.629-.27 1.365-.405 2.21-.405.812 0 1.52.123 2.122.367a3.84 3.84 0 011.505 1.069c.402.468.702 1.048.897 1.74.195.69.294 1.482.294 2.373zm-1.554.102c0-.623-.055-1.205-.166-1.74a4.008 4.008 0 00-.553-1.398 2.683 2.683 0 00-1.033-.923c-.434-.221-.967-.332-1.602-.332-.637 0-1.17.12-1.6.358a3.006 3.006 0 00-1.052.952c-.27.399-.462.862-.579 1.394a7.751 7.751 0 00-.175 1.671c0 .65.056 1.244.163 1.788.108.547.289 1.016.545 1.412.253.393.597.699 1.024.917.429.218.967.329 1.613.329.644 0 1.182-.12 1.619-.358a2.91 2.91 0 001.057-.967 4.1 4.1 0 00.57-1.409 8.12 8.12 0 00.17-1.694zm13.557 4.902c0 .117-.005.213-.017.289a.744.744 0 01-.055.198.305.305 0 01-.094.119.228.228 0 01-.133.038h-4.883a.614.614 0 01-.372-.131c-.117-.09-.175-.245-.175-.466V93.734c0-.047.012-.087.035-.12a.222.222 0 01.12-.081 1.21 1.21 0 01.23-.052c.096-.015.212-.02.349-.02.142 0 .259.005.355.02.093.014.169.032.224.052.058.02.096.046.12.082a.199.199 0 01.034.119v9.543h3.963c.052 0 .096.011.133.037a.372.372 0 01.094.111.605.605 0 01.055.195c.012.079.017.175.017.288zm3.08.423a.199.199 0 01-.034.119.22.22 0 01-.12.081 1.204 1.204 0 01-.224.053c-.096.014-.212.02-.355.02-.137 0-.253-.006-.35-.02a1.225 1.225 0 01-.23-.053.22.22 0 01-.119-.081.199.199 0 01-.035-.119V93.734c0-.047.012-.087.038-.12a.263.263 0 01.128-.081c.061-.02.137-.038.23-.052a2.25 2.25 0 01.338-.02c.143 0 .259.005.355.02.093.014.169.032.224.052.058.02.096.046.12.082a.199.199 0 01.034.119v10.597zm11.284-.394c0 .114-.02.213-.058.292a.573.573 0 01-.148.195.575.575 0 01-.207.11.78.78 0 01-.23.035h-.486c-.152 0-.286-.014-.402-.046a.951.951 0 01-.326-.169 1.734 1.734 0 01-.309-.332 4.54 4.54 0 01-.329-.545l-3.371-6.279a29.714 29.714 0 01-.533-1.019c-.18-.355-.346-.701-.5-1.036h-.018a90.139 90.139 0 01.035 2.524v6.664c0 .04-.011.078-.035.116a.258.258 0 01-.122.084 1.26 1.26 0 01-.224.053c-.093.014-.213.02-.355.02a2.51 2.51 0 01-.358-.02 1.076 1.076 0 01-.219-.053.248.248 0 01-.12-.084.216.216 0 01-.034-.116V94.144c0-.227.064-.39.195-.486a.687.687 0 01.422-.145h.722c.169 0 .311.014.425.043a.854.854 0 01.309.14c.09.064.18.157.265.274.084.116.174.262.267.44l2.591 4.843a86.8 86.8 0 01.894 1.701l.408.806c.136.262.267.53.401.798h.009c-.012-.452-.02-.917-.023-1.404-.003-.486-.003-.954-.003-1.403V93.77c0-.041.012-.079.035-.11a.316.316 0 01.122-.091.806.806 0 01.224-.055c.093-.012.216-.018.367-.018.131 0 .245.006.341.018a.708.708 0 01.224.055.303.303 0 01.119.09c.023.032.035.07.035.11v10.169zm9.074.006c0 .105-.006.195-.017.271a.66.66 0 01-.058.192.295.295 0 01-.099.111.236.236 0 01-.125.035h-5.302a.612.612 0 01-.372-.131c-.117-.09-.175-.245-.175-.466v-9.846c0-.221.058-.375.175-.465a.61.61 0 01.372-.131h5.24a.229.229 0 01.216.145c.02.052.04.117.055.192.015.076.02.172.02.286 0 .104-.005.192-.02.27-.015.076-.035.14-.055.19a.27.27 0 01-.091.104.23.23 0 01-.125.035h-4.32v3.459h3.709a.21.21 0 01.125.038.336.336 0 01.093.107.556.556 0 01.056.187 2.118 2.118 0 010 .547.54.54 0 01-.056.18.254.254 0 01-.093.1.255.255 0 01-.125.029h-3.709v3.947h4.382c.046 0 .087.012.125.035a.315.315 0 01.099.105.611.611 0 01.058.189c.011.076.017.172.017.285z" fill="#0B582C"/><path d="M172.07 56.576c0 .283-.155.424-.465.424h-2.83c-.118 0-.223-.055-.314-.164a.635.635 0 01-.137-.396V43.424c0-.192-.027-.287-.082-.287-.036 0-.205.3-.506.902l-2.269 4.512c-.201.392-.52.588-.957.588h-2.817c-.428 0-.729-.16-.902-.479l-2.064-4.074c-.493-.966-.757-1.45-.793-1.45-.055 0-.082.096-.082.288V56.44a.635.635 0 01-.137.396.4.4 0 01-.315.164h-2.83c-.31 0-.465-.141-.465-.424V37.312c0-.31.11-.574.329-.792a1.08 1.08 0 01.793-.329h2.283c.474 0 .82.224 1.039.67l2.885 5.838c.938 1.905 1.435 2.903 1.49 2.994.055.092.109.137.164.137.064 0 .146-.096.246-.287l3.486-7.041c.584-1.176.916-1.814.998-1.914.092-.11.21-.2.356-.273.155-.083.319-.124.492-.124h2.283c.31 0 .574.114.793.342.219.219.328.479.328.78v19.263zm15.627-.136a.537.537 0 01-.164.396.538.538 0 01-.396.164h-2.379a.542.542 0 01-.397-.164.541.541 0 01-.164-.396v-.452c-1.349.82-2.666 1.23-3.951 1.23-1.558 0-2.757-.391-3.596-1.175-.829-.784-1.244-1.95-1.244-3.5v-.11c0-1.63.543-2.843 1.627-3.636 1.085-.802 2.821-1.203 5.209-1.203h1.764v-1.23c0-.876-.196-1.473-.588-1.792-.383-.319-1.007-.478-1.873-.478-.848 0-1.659.023-2.434.068l-2.132.15h-.137c-.337 0-.506-.159-.506-.478v-1.791c0-.191.068-.342.205-.451.146-.119.752-.242 1.818-.37a25.243 25.243 0 013.186-.204c4.101 0 6.152 1.782 6.152 5.345V56.44zm-3.691-2.94v-3.445h-1.764c-1.084 0-1.877.16-2.379.478-.492.32-.738.953-.738 1.9v.11c0 .638.141 1.09.424 1.354.291.255.825.382 1.599.382.939 0 1.892-.26 2.858-.779zm15.531-11.703a.588.588 0 01.561-.588h2.584c.145 0 .273.06.382.178a.562.562 0 01.178.41V53.95h3.61c.391 0 .638-.082.738-.246.1-.173.15-.437.15-.793V41.797a.588.588 0 01.561-.588h2.584a.51.51 0 01.383.178.565.565 0 01.177.41V52.94c0 1.312-.296 2.32-.888 3.02-.593.694-1.828 1.04-3.705 1.04h-10.924c-1.878 0-3.113-.346-3.705-1.04-.593-.7-.889-1.708-.889-3.02V41.797a.588.588 0 01.561-.588h2.57a.52.52 0 01.396.178c.11.118.164.255.164.41v11.115c0 .356.051.62.151.793.109.164.36.246.752.246h3.609V41.797zm28.492 14.643a.537.537 0 01-.164.396.538.538 0 01-.396.164h-2.571a.538.538 0 01-.396-.164.541.541 0 01-.164-.396v-.643c-1.376.93-2.844 1.394-4.402 1.394-1.614 0-2.826-.455-3.637-1.367-.802-.911-1.203-2.543-1.203-4.894v-9.133c0-.155.054-.292.164-.41a.547.547 0 01.396-.178h2.571a.52.52 0 01.396.178.588.588 0 01.164.41v9.133c0 1.194.155 2.023.465 2.488.31.465.952.697 1.928.697.729 0 1.782-.373 3.158-1.12V41.796c0-.155.055-.292.164-.41a.518.518 0 01.396-.178h2.571a.52.52 0 01.396.178c.11.118.164.255.164.41V56.44zm7.328-.028a.584.584 0 01-.164.41.518.518 0 01-.396.178h-2.57a.588.588 0 01-.561-.588V41.797a.588.588 0 01.561-.588h2.57a.52.52 0 01.396.178c.11.118.164.255.164.41v5.66h5.551v-5.66c0-.155.055-.292.164-.41a.522.522 0 01.397-.178h2.57c.155 0 .287.06.397.178a.588.588 0 01.164.41v14.615a.588.588 0 01-.164.41.522.522 0 01-.397.178h-2.57a.522.522 0 01-.397-.178.588.588 0 01-.164-.41V50.22h-5.551v6.193zm25.786-6.166c0 2.124-.597 3.82-1.791 5.086-1.185 1.258-2.817 1.887-4.895 1.887-2.087 0-3.728-.63-4.922-1.887-1.185-1.267-1.777-2.962-1.777-5.086V47.99c0-2.123.592-3.814 1.777-5.072 1.194-1.267 2.835-1.9 4.922-1.9 2.078 0 3.71.633 4.895 1.9 1.194 1.258 1.791 2.949 1.791 5.072v2.256zm-3.692 0V47.99c0-1.194-.264-2.123-.793-2.789-.519-.665-1.253-.998-2.201-.998-.948 0-1.686.333-2.215.998-.519.666-.779 1.595-.779 2.79v2.255c0 1.176.255 2.101.766 2.776.519.674 1.262 1.011 2.228 1.011.948 0 1.682-.333 2.201-.998.529-.665.793-1.595.793-2.789zm16.885 5.893c0 .264-.064.45-.191.56-.119.1-.543.21-1.272.328-.72.128-1.631.192-2.734.192-1.951 0-3.505-.597-4.662-1.791-1.149-1.194-1.723-2.862-1.723-5.004v-2.611c0-2.142.574-3.81 1.723-5.004 1.157-1.194 2.711-1.791 4.662-1.791 1.13 0 2.05.063 2.761.191.72.128 1.14.241 1.258.342.119.1.178.282.178.547v1.832c0 .273-.169.41-.506.41h-.082c-1.039-.128-2.242-.192-3.609-.192-1.796 0-2.694 1.222-2.694 3.664v2.612c0 2.443.898 3.664 2.694 3.664.866 0 1.554-.018 2.064-.055l1.545-.136h.082c.337 0 .506.136.506.41v1.832zm10.691-11.909v12.182a.584.584 0 01-.164.41.518.518 0 01-.396.178h-2.571a.52.52 0 01-.396-.178.588.588 0 01-.164-.41V44.231h-4.348a.564.564 0 01-.396-.15.494.494 0 01-.164-.384V41.77c0-.154.054-.287.164-.396a.569.569 0 01.396-.164h12.387c.146 0 .273.055.383.164.118.11.178.242.178.397v1.927a.495.495 0 01-.165.383.564.564 0 01-.396.15h-4.348zm20.645 5.961c0 2.233-.565 3.965-1.695 5.196-1.122 1.221-2.789 1.832-5.004 1.832-.812 0-1.709-.064-2.694-.192v4.963a.522.522 0 01-.164.383.519.519 0 01-.396.178h-2.571a.519.519 0 01-.396-.178.526.526 0 01-.164-.383V42.494c0-.264.1-.46.301-.588.2-.136.948-.319 2.242-.547a22.12 22.12 0 013.842-.341c2.169 0 3.828.606 4.976 1.818 1.149 1.203 1.723 2.94 1.723 5.209v2.146zm-3.705 0v-2.146c0-1.422-.246-2.443-.738-3.063-.484-.629-1.236-.943-2.256-.943-1.112 0-2.01.064-2.694.191v9.776c.966.127 1.864.191 2.694.191 1.02 0 1.772-.31 2.256-.93.492-.628.738-1.654.738-3.076zm19.687.055c0 2.124-.597 3.82-1.791 5.086-1.185 1.258-2.816 1.887-4.894 1.887-2.087 0-3.728-.63-4.922-1.887-1.185-1.267-1.777-2.962-1.777-5.086V47.99c0-2.123.592-3.814 1.777-5.072 1.194-1.267 2.835-1.9 4.922-1.9 2.078 0 3.709.633 4.894 1.9 1.194 1.258 1.791 2.949 1.791 5.072v2.256zm-3.691 0V47.99c0-1.194-.264-2.123-.793-2.789-.52-.665-1.253-.998-2.201-.998-.948 0-1.686.333-2.215.998-.52.666-.779 1.595-.779 2.79v2.255c0 1.176.255 2.101.765 2.776.52.674 1.263 1.011 2.229 1.011.948 0 1.681-.333 2.201-.998.529-.665.793-1.595.793-2.789zm19.797 6.194a.541.541 0 01-.164.396.542.542 0 01-.397.164h-2.57a.542.542 0 01-.397-.164.541.541 0 01-.164-.396v-.643c-1.376.93-2.843 1.394-4.402 1.394-1.613 0-2.826-.455-3.637-1.367-.802-.911-1.203-2.543-1.203-4.894v-9.133a.588.588 0 01.561-.588h2.57c.155 0 .287.06.397.178a.588.588 0 01.164.41v9.133c0 1.194.155 2.023.464 2.488.31.465.953.697 1.928.697.729 0 1.782-.373 3.158-1.12V41.796c0-.155.055-.292.164-.41a.522.522 0 01.397-.178h2.57c.155 0 .287.06.397.178a.588.588 0 01.164.41V56.44zm11.252-12.21v12.182a.588.588 0 01-.164.41.522.522 0 01-.397.178h-2.57a.522.522 0 01-.397-.178.588.588 0 01-.164-.41V44.231h-4.347a.568.568 0 01-.397-.15.498.498 0 01-.164-.384V41.77c0-.154.055-.287.164-.396a.573.573 0 01.397-.164h12.386c.146 0 .274.055.383.164a.52.52 0 01.178.397v1.927a.498.498 0 01-.164.383c-.11.1-.242.15-.397.15h-4.347zm19.92 5.456c0 .474-.187.71-.561.71h-9.119v.082c0 .985.255 1.823.766 2.516.51.693 1.371 1.04 2.584 1.04.902 0 1.8-.033 2.693-.096l2.461-.192h.082c.337 0 .506.141.506.424v1.846c0 .364-.091.583-.274.656-.182.064-.774.173-1.777.328-.994.146-2.315.219-3.965.219-1.941 0-3.559-.602-4.853-1.805-1.286-1.203-1.928-2.944-1.928-5.223v-2.064c0-2.215.592-3.951 1.777-5.209 1.194-1.267 2.844-1.9 4.949-1.9 2.069 0 3.696.642 4.881 1.927 1.185 1.285 1.778 3.013 1.778 5.182v1.558zm-3.719-1.928v-.11c0-1.066-.269-1.905-.807-2.515-.538-.62-1.248-.93-2.133-.93-.902 0-1.627.31-2.173.93-.547.61-.821 1.449-.821 2.515v.11h5.934zm16.256 8.764l-2.776-11.786c-.091-.373-.296-.56-.615-.56s-.524.187-.615.56l-2.734 11.786c-.073.319-.251.478-.534.478h-2.802c-.338 0-.506-.16-.506-.478a.82.82 0 01.027-.137l3.281-12.524c.493-1.895 1.787-2.843 3.883-2.843s3.395.947 3.897 2.843l3.336 12.66c0 .32-.169.479-.506.479h-2.803c-.283 0-.46-.16-.533-.478zm10.213-10.446h1.9c4.803 0 7.205 1.805 7.205 5.414v.11c0 3.6-2.402 5.4-7.205 5.4-.966 0-1.996-.041-3.09-.123-1.094-.082-1.786-.178-2.078-.287-.282-.11-.424-.283-.424-.52V41.797c0-.155.055-.292.164-.41a.522.522 0 01.397-.178h2.57c.155 0 .287.06.397.178a.588.588 0 01.164.41v4.28zm0 3.022v4.744a48.41 48.41 0 001.9.055c1.23 0 2.115-.178 2.652-.534.547-.355.821-.943.821-1.763v-.11c0-.875-.269-1.5-.807-1.873-.538-.383-1.426-.574-2.666-.574-1.03 0-1.663.018-1.9.055zm15.175 7.314a.584.584 0 01-.164.41.518.518 0 01-.396.178h-2.57a.588.588 0 01-.561-.588V41.797a.588.588 0 01.561-.588h2.57a.52.52 0 01.396.178c.11.118.164.255.164.41v5.66h5.551v-5.66c0-.155.055-.292.164-.41a.522.522 0 01.397-.178h2.57c.155 0 .287.06.397.178a.588.588 0 01.164.41v14.615a.588.588 0 01-.164.41.522.522 0 01-.397.178h-2.57a.522.522 0 01-.397-.178.588.588 0 01-.164-.41V50.22h-5.551v6.193zm16.434-10.336h1.9c4.804 0 7.205 1.805 7.205 5.414v.11c0 3.6-2.401 5.4-7.205 5.4a41.41 41.41 0 01-3.089-.123c-1.094-.082-1.787-.178-2.079-.287-.282-.11-.423-.283-.423-.52V41.797c0-.155.054-.292.164-.41a.518.518 0 01.396-.178h2.57a.52.52 0 01.397.178.588.588 0 01.164.41v4.28zm0 3.022v4.744a48.46 48.46 0 001.9.055c1.231 0 2.115-.178 2.653-.534.547-.355.82-.943.82-1.763v-.11c0-.875-.269-1.5-.807-1.873-.537-.383-1.426-.574-2.666-.574-1.03 0-1.663.018-1.9.055zm15.258 7.314a.588.588 0 01-.164.41.522.522 0 01-.397.178h-2.57a.522.522 0 01-.397-.178.588.588 0 01-.164-.41V41.77c0-.155.055-.288.164-.397a.542.542 0 01.397-.164h2.57c.155 0 .287.055.397.164.109.11.164.242.164.397v14.642zm5.373-21.219h2.051c.182 0 .3.11.355.329.328 1.23 1.076 1.845 2.242 1.845 1.176 0 1.923-.615 2.242-1.845.055-.22.178-.329.37-.329h2.037c.209 0 .314.078.314.233 0 .346-.155.875-.465 1.586-.31.702-.856 1.303-1.64 1.804-.775.493-1.727.739-2.858.739-1.13 0-2.082-.246-2.857-.739-.775-.5-1.322-1.102-1.641-1.804-.31-.711-.465-1.24-.465-1.586 0-.155.105-.233.315-.233zm11.06 21.247a.537.537 0 01-.164.396.538.538 0 01-.396.164h-2.57a.54.54 0 01-.397-.164.541.541 0 01-.164-.396v-.643c-1.376.93-2.844 1.394-4.402 1.394-1.614 0-2.826-.455-3.637-1.367-.802-.911-1.203-2.543-1.203-4.894v-9.133a.588.588 0 01.56-.588h2.571a.52.52 0 01.396.178c.11.118.164.255.164.41v9.133c0 1.194.155 2.023.465 2.488.31.465.953.697 1.928.697.729 0 1.782-.373 3.158-1.12V41.796c0-.155.055-.292.164-.41a.52.52 0 01.397-.178h2.57a.52.52 0 01.396.178c.11.118.164.255.164.41V56.44zm21-4.006c0 3.19-2.11 4.785-6.33 4.785-1.039 0-2.064-.078-3.076-.233-1.002-.164-1.577-.291-1.722-.383-.146-.09-.219-.2-.219-.328v-1.941c0-.255.15-.383.451-.383h.027c1.969.2 3.482.301 4.539.301 1.076 0 1.782-.128 2.119-.383.347-.264.52-.743.52-1.435v-.274c0-.71-.178-1.194-.533-1.45-.347-.263-.889-.395-1.627-.395h-4.197c-.301 0-.452-.133-.452-.397v-1.969c0-.273.151-.41.452-.41h4.197c.747 0 1.294-.118 1.64-.355.347-.246.52-.725.52-1.436v-.232c0-.666-.21-1.094-.629-1.285-.419-.201-1.089-.301-2.01-.301-.556 0-1.235.032-2.037.095l-2.502.206h-.027c-.301 0-.451-.133-.451-.397v-1.873c0-.128.073-.237.219-.328.145-.091.72-.214 1.722-.37a19.183 19.183 0 013.076-.245c2.206 0 3.81.373 4.813 1.12 1.012.739 1.517 1.865 1.517 3.378v.232c0 1.404-.674 2.456-2.023 3.158.629.246 1.121.684 1.477 1.313.364.629.546 1.276.546 1.941v.274zm14.875 4.006a.537.537 0 01-.164.396.538.538 0 01-.396.164h-2.379a.542.542 0 01-.397-.164.541.541 0 01-.164-.396v-.452c-1.349.82-2.666 1.23-3.951 1.23-1.558 0-2.757-.391-3.595-1.175-.83-.784-1.245-1.95-1.245-3.5v-.11c0-1.63.543-2.843 1.627-3.636 1.085-.802 2.821-1.203 5.209-1.203h1.764v-1.23c0-.876-.196-1.473-.588-1.792-.383-.319-1.007-.478-1.873-.478-.848 0-1.659.023-2.434.068l-2.132.15h-.137c-.337 0-.506-.159-.506-.478v-1.791c0-.191.068-.342.205-.451.146-.119.752-.242 1.819-.37a25.215 25.215 0 013.185-.204c4.102 0 6.152 1.782 6.152 5.345V56.44zm-3.691-2.94v-3.445h-1.764c-1.084 0-1.877.16-2.379.478-.492.32-.738.953-.738 1.9v.11c0 .638.141 1.09.424 1.354.292.255.825.382 1.6.382.938 0 1.891-.26 2.857-.779zm20.549-.93c0 1.623-.606 2.803-1.819 3.541-1.203.739-3.203 1.108-6.001 1.108-1.185 0-2.256-.041-3.213-.123-.957-.073-1.564-.196-1.819-.37-.246-.173-.369-.473-.369-.902V42.357c0-.337.082-.606.246-.806.173-.21.766-.351 1.778-.424a44.288 44.288 0 013.185-.11c3.081 0 5.168.36 6.262 1.08 1.094.72 1.64 1.85 1.64 3.391v.178c0 .702-.2 1.349-.601 1.941-.401.584-.975.998-1.723 1.245 1.623.528 2.434 1.713 2.434 3.554v.164zm-3.705-6.904v-.178c0-.784-.269-1.267-.807-1.449-.529-.191-1.417-.287-2.666-.287-.857 0-1.641.018-2.351.055v3.787h2.474c1.067 0 1.891-.123 2.475-.37.583-.255.875-.774.875-1.558zm.123 6.604v-.165c0-.874-.283-1.435-.848-1.681s-1.44-.37-2.625-.37h-2.474v4.376c.537.018 1.107.027 1.709.027 1.585 0 2.688-.15 3.308-.451.62-.31.93-.889.93-1.736zm19.428-2.024c0 2.124-.597 3.82-1.791 5.086-1.185 1.258-2.817 1.887-4.895 1.887-2.087 0-3.728-.63-4.922-1.887-1.185-1.267-1.777-2.962-1.777-5.086V47.99c0-2.123.592-3.814 1.777-5.072 1.194-1.267 2.835-1.9 4.922-1.9 2.078 0 3.71.633 4.895 1.9 1.194 1.258 1.791 2.949 1.791 5.072v2.256zm-3.692 0V47.99c0-1.194-.264-2.123-.793-2.789-.519-.665-1.253-.998-2.201-.998-.948 0-1.686.333-2.215.998-.519.666-.779 1.595-.779 2.79v2.255c0 1.176.255 2.101.765 2.776.52.674 1.263 1.011 2.229 1.011.948 0 1.682-.333 2.201-.998.529-.665.793-1.595.793-2.789zM539.584 57h-10.555v3.309a.522.522 0 01-.164.382.518.518 0 01-.396.178h-2.571a.518.518 0 01-.396-.178.526.526 0 01-.164-.382v-5.797c0-.155.055-.287.164-.397a.539.539 0 01.396-.164h1.901l2.693-10.09c.511-1.895 1.805-2.843 3.883-2.843 2.06 0 3.359.947 3.896 2.843l2.831 10.09h1.627c.145 0 .273.055.382.164a.54.54 0 01.164.397v5.797a.538.538 0 01-.164.396.523.523 0 01-.382.164h-2.584a.52.52 0 01-.397-.178.526.526 0 01-.164-.382V57zm-2.27-3.049l-2.173-8.244c-.21-.775-.338-1.19-.383-1.244a.314.314 0 00-.151-.137.584.584 0 00-.232-.04c-.1 0-.182.017-.246.054a.364.364 0 00-.164.15c-.037.064-.178.602-.424 1.613l-1.941 7.848h5.714zM162.582 78.482l1.705.431c-.357 1.4-1.002 2.47-1.933 3.208-.926.733-2.06 1.099-3.402 1.099-1.389 0-2.519-.281-3.392-.844-.868-.568-1.53-1.389-1.987-2.461a8.817 8.817 0 01-.677-3.454c0-1.342.255-2.51.765-3.507.516-1.002 1.245-1.76 2.189-2.276.949-.522 1.992-.782 3.129-.782 1.289 0 2.373.328 3.251.984.879.656 1.492 1.579 1.837 2.768l-1.678.396c-.299-.938-.733-1.62-1.301-2.048-.568-.428-1.283-.641-2.145-.641-.99 0-1.819.237-2.487.711a3.764 3.764 0 00-1.397 1.916 7.644 7.644 0 00-.405 2.47c0 1.096.158 2.054.475 2.874.322.815.82 1.424 1.494 1.828a4.178 4.178 0 002.189.607c.955 0 1.763-.276 2.425-.826.662-.551 1.111-1.369 1.345-2.453zm2.76-4.816h7.585v1.31h-3.006V83h-1.573v-8.024h-3.006v-1.31zm9.096 12.911V73.666h1.442v1.213c.34-.475.724-.83 1.151-1.064.428-.24.947-.36 1.556-.36.797 0 1.5.205 2.109.615.61.41 1.07.99 1.38 1.74.311.745.466 1.562.466 2.453 0 .955-.173 1.816-.519 2.584-.339.761-.837 1.347-1.494 1.758a3.833 3.833 0 01-2.056.606 3.003 3.003 0 01-1.424-.334 3.241 3.241 0 01-1.028-.844v4.544h-1.583zm1.433-8.191c0 1.2.243 2.089.73 2.663.486.574 1.075.861 1.766.861.703 0 1.304-.296 1.802-.888.504-.597.756-1.52.756-2.768 0-1.19-.246-2.08-.738-2.672-.487-.592-1.07-.888-1.749-.888-.674 0-1.272.317-1.793.95-.516.626-.774 1.54-.774 2.742zm14.977 1.608l1.634.202c-.257.955-.735 1.697-1.432 2.224-.697.527-1.588.79-2.672.79-1.365 0-2.449-.418-3.252-1.256-.797-.844-1.195-2.024-1.195-3.542 0-1.57.404-2.789 1.213-3.656.808-.867 1.857-1.3 3.146-1.3 1.248 0 2.268.424 3.059 1.273.791.85 1.186 2.045 1.186 3.586 0 .094-.003.235-.009.422h-6.961c.059 1.026.349 1.81.871 2.356.521.545 1.171.817 1.951.817.58 0 1.075-.152 1.485-.457.41-.305.735-.79.976-1.459zm-5.195-2.558h5.212c-.07-.785-.269-1.374-.597-1.766-.504-.61-1.158-.914-1.96-.914-.727 0-1.339.243-1.837.73-.492.486-.765 1.136-.818 1.95zm8.868-3.77h2.461l2.453 7.47 2.724-7.47h2.277V83h-1.582v-7.515L200.094 83h-1.415l-2.611-7.875V83h-1.547v-9.334zm19.679 0V83h-1.573v-3.639h-.914c-.557 0-.973.074-1.248.22-.27.14-.665.6-1.187 1.38L207.898 83h-1.96l1.706-2.514c.521-.767 1.04-1.2 1.555-1.3-.902-.124-1.573-.449-2.012-.976a2.781 2.781 0 01-.651-1.82c0-.808.284-1.464.853-1.968.574-.504 1.403-.756 2.487-.756h4.324zm-1.573 1.31h-2.25c-.943 0-1.553.146-1.828.439-.27.293-.404.636-.404 1.028 0 .557.199.967.597 1.23.404.259 1.116.388 2.136.388h1.749v-3.085zm10.072 4.605l1.556.202c-.17 1.073-.607 1.913-1.31 2.523-.697.603-1.555.905-2.575.905-1.277 0-2.306-.416-3.085-1.248-.773-.838-1.16-2.036-1.16-3.595 0-1.008.167-1.89.501-2.645.334-.756.841-1.322 1.52-1.697a4.524 4.524 0 012.233-.57c1.014 0 1.843.257 2.487.772.645.51 1.058 1.237 1.239 2.18l-1.538.237c-.146-.626-.407-1.098-.782-1.414-.369-.317-.817-.475-1.345-.475-.796 0-1.444.287-1.942.861-.498.569-.747 1.47-.747 2.707 0 1.254.24 2.165.721 2.734.48.568 1.107.852 1.881.852.621 0 1.139-.19 1.555-.571.416-.381.68-.967.791-1.758zm2.883-5.915h1.582v3.648h2.004c1.307 0 2.311.254 3.015.764.709.504 1.063 1.201 1.063 2.092 0 .78-.296 1.447-.888 2.004-.586.55-1.526.826-2.821.826h-3.955v-9.334zm1.582 8.033h1.661c1.002 0 1.717-.123 2.145-.369.427-.246.641-.63.641-1.151 0-.405-.158-.765-.474-1.081-.317-.317-1.017-.475-2.101-.475h-1.872v3.076zm12.832-8.033h1.582V77.7c.504 0 .856-.097 1.055-.29.205-.193.504-.756.896-1.687.311-.739.563-1.225.756-1.46.194-.234.416-.392.668-.474.252-.082.656-.123 1.213-.123h.316v1.31l-.439-.01c-.416 0-.683.062-.8.185-.123.13-.31.513-.562 1.152-.241.61-.46 1.031-.66 1.265-.199.235-.506.449-.922.642.679.182 1.347.814 2.004 1.898L246.834 83h-1.74l-1.688-2.892c-.345-.58-.647-.96-.905-1.142a1.526 1.526 0 00-.923-.281V83h-1.582v-9.334zm19.283 6.328l1.635.202c-.258.955-.735 1.697-1.433 2.224-.697.527-1.587.79-2.671.79-1.366 0-2.45-.418-3.252-1.256-.797-.844-1.196-2.024-1.196-3.542 0-1.57.405-2.789 1.213-3.656.809-.867 1.858-1.3 3.147-1.3 1.248 0 2.267.424 3.058 1.273.791.85 1.187 2.045 1.187 3.586 0 .094-.003.235-.009.422h-6.961c.059 1.026.349 1.81.87 2.356.522.545 1.172.817 1.951.817.58 0 1.076-.152 1.486-.457.41-.305.735-.79.975-1.459zm-5.194-2.558h5.212c-.07-.785-.27-1.374-.598-1.766-.504-.61-1.157-.914-1.96-.914-.726 0-1.339.243-1.837.73-.492.486-.764 1.136-.817 1.95zm8.833-3.77h3.647c.897 0 1.562.076 1.996.228.439.147.814.42 1.125.818.316.398.474.876.474 1.432 0 .446-.094.835-.281 1.17a2.235 2.235 0 01-.826.826 2.15 2.15 0 011.09.826c.293.398.439.873.439 1.424-.059.884-.375 1.54-.949 1.968-.574.428-1.409.642-2.505.642h-4.21v-9.334zm1.582 3.929h1.688c.673 0 1.136-.035 1.388-.106.252-.07.478-.21.677-.422.199-.216.299-.474.299-.773 0-.492-.176-.835-.528-1.028-.345-.194-.94-.29-1.784-.29h-1.74v2.619zm0 4.104h2.083c.896 0 1.512-.102 1.846-.307.334-.211.509-.572.527-1.081a1.33 1.33 0 00-.29-.827 1.227 1.227 0 00-.756-.483c-.31-.07-.808-.106-1.494-.106H264.5V81.7zm7.972 4.878V73.666h1.441v1.213c.34-.475.724-.83 1.151-1.064.428-.24.947-.36 1.556-.36.797 0 1.5.205 2.109.615.61.41 1.07.99 1.38 1.74.311.745.466 1.562.466 2.453 0 .955-.173 1.816-.518 2.584-.34.761-.838 1.347-1.495 1.758a3.83 3.83 0 01-2.056.606 3.006 3.006 0 01-1.424-.334 3.241 3.241 0 01-1.028-.844v4.544h-1.582zm1.432-8.191c0 1.2.243 2.089.73 2.663.486.574 1.075.861 1.766.861.704 0 1.304-.296 1.802-.888.504-.597.756-1.52.756-2.768 0-1.19-.246-2.08-.738-2.672-.487-.592-1.07-.888-1.749-.888-.674 0-1.272.317-1.793.95-.516.626-.774 1.54-.774 2.742zm7.998-.053c0-1.728.481-3.009 1.442-3.84.802-.692 1.781-1.038 2.935-1.038 1.283 0 2.332.422 3.147 1.266.814.838 1.221 1.998 1.221 3.48 0 1.201-.181 2.148-.544 2.839a3.8 3.8 0 01-1.574 1.6 4.552 4.552 0 01-2.25.57c-1.306 0-2.364-.418-3.173-1.256-.802-.838-1.204-2.045-1.204-3.621zm1.626 0c0 1.195.261 2.092.783 2.69a2.51 2.51 0 001.968.887c.785 0 1.439-.299 1.96-.896.522-.598.782-1.51.782-2.734 0-1.154-.263-2.027-.791-2.619-.521-.597-1.171-.896-1.951-.896a2.51 2.51 0 00-1.968.887c-.522.592-.783 1.486-.783 2.681zm8.992-4.667h7.365V83h-1.582v-8.024h-4.201V83h-1.582v-9.334zm16.136 6.328l1.635.202c-.258.955-.735 1.697-1.433 2.224-.697.527-1.587.79-2.671.79-1.366 0-2.45-.418-3.252-1.256-.797-.844-1.196-2.024-1.196-3.542 0-1.57.405-2.789 1.213-3.656.809-.867 1.858-1.3 3.147-1.3 1.248 0 2.267.424 3.058 1.273.791.85 1.187 2.045 1.187 3.586 0 .094-.003.235-.009.422h-6.961c.059 1.026.349 1.81.87 2.356.522.545 1.172.817 1.951.817.58 0 1.076-.152 1.486-.457.41-.305.735-.79.975-1.459zm-5.194-2.558h5.212c-.07-.785-.27-1.374-.598-1.766-.504-.61-1.157-.914-1.96-.914-.726 0-1.339.243-1.837.73-.492.486-.764 1.136-.817 1.95zm8.824-3.77h1.582v7.12l4.386-7.12h1.705V83h-1.582v-7.075L313.991 83h-1.705v-9.334zm5.493-3.533h1.081c-.088.732-.357 1.295-.808 1.687-.446.393-1.04.59-1.784.59-.75 0-1.351-.194-1.802-.58-.445-.394-.712-.959-.8-1.697h1.081c.082.398.243.697.483.896.247.194.575.29.985.29.474 0 .832-.093 1.072-.28.246-.194.41-.496.492-.906zm10.653 9.448l1.555.202c-.17 1.073-.606 1.913-1.309 2.523-.698.603-1.556.905-2.575.905-1.278 0-2.306-.416-3.085-1.248-.774-.838-1.161-2.036-1.161-3.595 0-1.008.167-1.89.501-2.645.334-.756.841-1.322 1.521-1.697a4.52 4.52 0 012.232-.57c1.014 0 1.843.257 2.488.772.644.51 1.057 1.237 1.239 2.18l-1.538.237c-.147-.626-.407-1.098-.782-1.414-.37-.317-.818-.475-1.345-.475-.797 0-1.444.287-1.943.861-.498.569-.747 1.47-.747 2.707 0 1.254.241 2.165.721 2.734.481.568 1.108.852 1.881.852.621 0 1.14-.19 1.556-.571.416-.381.679-.967.791-1.758zm2.9-5.915h1.582V77.7c.504 0 .856-.097 1.055-.29.205-.193.504-.756.896-1.687.311-.739.563-1.225.756-1.46a1.44 1.44 0 01.668-.474c.252-.082.656-.123 1.213-.123h.316v1.31l-.439-.01c-.416 0-.683.062-.8.185-.123.13-.31.513-.562 1.152-.241.61-.46 1.031-.66 1.265-.199.235-.506.449-.922.642.679.182 1.347.814 2.003 1.898L338.17 83h-1.74l-1.688-2.892c-.346-.58-.647-.96-.905-1.142a1.528 1.528 0 00-.923-.281V83h-1.582v-9.334zm7.506 4.667c0-1.728.48-3.009 1.441-3.84.803-.692 1.782-1.038 2.936-1.038 1.283 0 2.332.422 3.146 1.266.815.838 1.222 1.998 1.222 3.48 0 1.201-.182 2.148-.545 2.839a3.797 3.797 0 01-1.573 1.6 4.558 4.558 0 01-2.25.57c-1.307 0-2.364-.418-3.173-1.256-.803-.838-1.204-2.045-1.204-3.621zm1.626 0c0 1.195.261 2.092.782 2.69a2.514 2.514 0 001.969.887c.785 0 1.438-.299 1.96-.896.521-.598.782-1.51.782-2.734 0-1.154-.264-2.027-.791-2.619-.521-.597-1.172-.896-1.951-.896-.791 0-1.447.296-1.969.887-.521.592-.782 1.486-.782 2.681zm9.026-4.667h2.461l2.452 7.47 2.725-7.47h2.276V83h-1.582v-7.515L355.062 83h-1.415l-2.61-7.875V83h-1.547v-9.334zm12.472 12.929l-.176-1.486c.346.094.648.141.905.141.352 0 .633-.059.844-.176a1.44 1.44 0 00.519-.492c.099-.158.26-.55.483-1.178.029-.088.076-.216.141-.386l-3.542-9.352h1.705l1.942 5.405c.252.686.478 1.407.677 2.162.182-.726.398-1.435.65-2.127l1.995-5.44h1.583l-3.551 9.492c-.381 1.026-.677 1.732-.888 2.118-.281.522-.603.903-.967 1.143-.363.246-.797.37-1.301.37a3.17 3.17 0 01-1.019-.194zm14.071-12.929h1.582V77.7c.504 0 .856-.097 1.055-.29.205-.193.504-.756.896-1.687.311-.739.563-1.225.756-1.46.194-.234.416-.392.668-.474.252-.082.656-.123 1.213-.123h.317v1.31l-.44-.01c-.416 0-.683.062-.8.185-.123.13-.31.513-.562 1.152-.24.61-.46 1.031-.659 1.265-.2.235-.507.449-.923.642.679.182 1.347.814 2.004 1.898L382.871 83h-1.74l-1.688-2.892c-.345-.58-.647-.96-.905-1.142a1.526 1.526 0 00-.923-.281V83h-1.582v-9.334zm14.379 8.183c-.586.498-1.151.85-1.696 1.054a4.852 4.852 0 01-1.74.308c-1.026 0-1.814-.25-2.365-.747-.55-.504-.826-1.146-.826-1.925 0-.457.103-.873.308-1.248a2.64 2.64 0 01.817-.914c.34-.229.721-.401 1.143-.519.31-.082.779-.16 1.406-.237 1.277-.152 2.218-.334 2.821-.545.006-.217.009-.354.009-.413 0-.644-.149-1.099-.448-1.362-.404-.358-1.005-.536-1.802-.536-.744 0-1.295.132-1.652.395-.352.258-.613.718-.783 1.38l-1.546-.21c.14-.663.372-1.196.694-1.6.322-.41.788-.724 1.397-.94.61-.224 1.316-.335 2.119-.335.796 0 1.444.094 1.942.281.498.188.864.425 1.099.712.234.282.398.639.492 1.073.053.269.079.755.079 1.459v2.109c0 1.47.032 2.402.097 2.795.07.386.205.759.404 1.116h-1.652a3.336 3.336 0 01-.317-1.151zm-.132-3.534c-.574.235-1.435.434-2.584.598-.65.094-1.11.2-1.38.317-.269.117-.477.29-.624.518a1.333 1.333 0 00-.219.747c0 .422.158.774.474 1.055.323.281.791.422 1.407.422.609 0 1.151-.132 1.625-.396.475-.27.824-.636 1.046-1.098.17-.358.255-.885.255-1.582v-.58zm3.076-4.649h1.582v1.767c0 .761.044 1.315.132 1.66.094.34.314.64.659.897.346.252.78.378 1.301.378.598 0 1.371-.158 2.321-.474v-4.228h1.582V83h-1.582v-3.762c-.973.305-1.881.457-2.725.457-.709 0-1.336-.178-1.881-.536-.539-.363-.905-.806-1.099-1.327a4.929 4.929 0 01-.29-1.723v-2.443zm16.357 6.328l1.635.202c-.258.955-.736 1.697-1.433 2.224-.697.527-1.588.79-2.672.79-1.365 0-2.449-.418-3.252-1.256-.797-.844-1.195-2.024-1.195-3.542 0-1.57.404-2.789 1.213-3.656.808-.867 1.857-1.3 3.146-1.3 1.248 0 2.268.424 3.059 1.273.791.85 1.186 2.045 1.186 3.586 0 .094-.003.235-.008.422h-6.961c.058 1.026.348 1.81.87 2.356.521.545 1.172.817 1.951.817.58 0 1.075-.152 1.485-.457.41-.305.736-.79.976-1.459zm-5.194-2.558h5.211c-.07-.785-.269-1.374-.597-1.766-.504-.61-1.157-.914-1.96-.914-.727 0-1.339.243-1.837.73-.492.486-.765 1.136-.817 1.95zm14.915 2.145l1.555.202c-.17 1.073-.606 1.913-1.309 2.523-.698.603-1.556.905-2.576.905-1.277 0-2.305-.416-3.084-1.248-.774-.838-1.161-2.036-1.161-3.595 0-1.008.167-1.89.501-2.645.334-.756.841-1.322 1.521-1.697a4.52 4.52 0 012.232-.57c1.014 0 1.843.257 2.488.772.644.51 1.057 1.237 1.239 2.18l-1.538.237c-.147-.626-.407-1.098-.782-1.414-.37-.317-.818-.475-1.345-.475-.797 0-1.445.287-1.943.861-.498.569-.747 1.47-.747 2.707 0 1.254.241 2.165.721 2.734.481.568 1.107.852 1.881.852.621 0 1.14-.19 1.556-.571.416-.381.679-.967.791-1.758zm2.056-5.915h7.585v1.31h-3.006V83h-1.573v-8.024h-3.006v-1.31zm9.106 0h3.647c.897 0 1.562.076 1.995.228.44.147.815.42 1.125.818.317.398.475.876.475 1.432 0 .446-.094.835-.281 1.17a2.23 2.23 0 01-.827.826c.44.146.803.421 1.09.826.293.398.44.873.44 1.424-.059.884-.375 1.54-.949 1.968-.575.428-1.41.642-2.505.642h-4.21v-9.334zm1.582 3.929h1.687c.674 0 1.137-.035 1.389-.106.252-.07.477-.21.677-.422.199-.216.298-.474.298-.773 0-.492-.175-.835-.527-1.028-.346-.194-.94-.29-1.784-.29h-1.74v2.619zm0 4.104h2.083c.896 0 1.511-.102 1.845-.307.334-.211.51-.572.528-1.081a1.33 1.33 0 00-.29-.827 1.233 1.233 0 00-.756-.483c-.311-.07-.809-.106-1.494-.106h-1.916V81.7zm7.497 4.896l-.176-1.486c.346.094.647.141.905.141.352 0 .633-.059.844-.176a1.44 1.44 0 00.519-.492c.099-.158.26-.55.483-1.178.029-.088.076-.216.141-.386l-3.542-9.352h1.705l1.942 5.405c.252.686.478 1.407.677 2.162a21.11 21.11 0 01.65-2.127l1.995-5.44h1.582l-3.55 9.492c-.381 1.026-.677 1.732-.888 2.118-.281.522-.604.903-.967 1.143-.363.246-.797.37-1.301.37a3.17 3.17 0 01-1.019-.194zm13.465-7.462v-1.591H458v1.59h-4.86zm11.663-5.467h2.461l2.452 7.47 2.724-7.47h2.277V83h-1.582v-7.515L470.375 83h-1.415l-2.61-7.875V83h-1.547v-9.334zm21.217 0h1.582V83h-1.582v-9.334zm-8.851 0h1.582v3.648h2.004c1.307 0 2.311.254 3.015.764.709.504 1.063 1.201 1.063 2.092 0 .78-.296 1.447-.888 2.004-.586.55-1.526.826-2.821.826h-3.955v-9.334zm1.582 8.033h1.661c1.002 0 1.717-.123 2.145-.369.427-.246.641-.63.641-1.151 0-.405-.158-.765-.474-1.081-.317-.317-1.017-.475-2.101-.475h-1.872v3.076zm16.339-8.033h7.365V83h-1.582v-8.024h-4.201V83h-1.582v-9.334zm9.747 12.911V73.666h1.441v1.213c.34-.475.724-.83 1.152-1.064.427-.24.946-.36 1.555-.36.797 0 1.5.205 2.11.615.609.41 1.069.99 1.38 1.74.31.745.465 1.562.465 2.453 0 .955-.172 1.816-.518 2.584-.34.761-.838 1.347-1.494 1.758a3.837 3.837 0 01-2.057.606 3.006 3.006 0 01-1.424-.334 3.241 3.241 0 01-1.028-.844v4.544h-1.582zm1.433-8.191c0 1.2.243 2.089.729 2.663.486.574 1.075.861 1.767.861.703 0 1.303-.296 1.801-.888.504-.597.756-1.52.756-2.768 0-1.19-.246-2.08-.738-2.672-.486-.592-1.069-.888-1.749-.888-.674 0-1.272.317-1.793.95-.516.626-.773 1.54-.773 2.742zm14.976 1.608l1.635.202c-.258.955-.735 1.697-1.433 2.224-.697.527-1.588.79-2.672.79-1.365 0-2.449-.418-3.252-1.256-.796-.844-1.195-2.024-1.195-3.542 0-1.57.404-2.789 1.213-3.656s1.857-1.3 3.146-1.3c1.249 0 2.268.424 3.059 1.273.791.85 1.187 2.045 1.187 3.586 0 .094-.003.235-.009.422h-6.961c.058 1.026.348 1.81.87 2.356.521.545 1.172.817 1.951.817.58 0 1.075-.152 1.486-.457.41-.305.735-.79.975-1.459zm-5.194-2.558h5.212c-.071-.785-.27-1.374-.598-1.766-.504-.61-1.157-.914-1.96-.914-.727 0-1.339.243-1.837.73-.492.486-.765 1.136-.817 1.95zm8.833-3.77h3.647c.897 0 1.562.076 1.995.228.44.147.815.42 1.125.818.317.398.475.876.475 1.432 0 .446-.094.835-.281 1.17a2.235 2.235 0 01-.826.826 2.15 2.15 0 011.089.826c.293.398.44.873.44 1.424-.059.884-.375 1.54-.949 1.968-.575.428-1.41.642-2.505.642h-4.21v-9.334zm1.582 3.929h1.687c.674 0 1.137-.035 1.389-.106.252-.07.478-.21.677-.422.199-.216.299-.474.299-.773 0-.492-.176-.835-.528-1.028-.345-.194-.94-.29-1.784-.29h-1.74v2.619zm0 4.104h2.083c.896 0 1.512-.102 1.846-.307.333-.211.509-.572.527-1.081a1.33 1.33 0 00-.29-.827 1.23 1.23 0 00-.756-.483c-.311-.07-.809-.106-1.494-.106h-1.916V81.7zm9.826-2.918v-1.239c.668-.006 1.122-.032 1.362-.08.246-.046.478-.187.695-.421.216-.234.325-.527.325-.879 0-.428-.144-.768-.431-1.02-.281-.257-.647-.386-1.098-.386-.891 0-1.515.524-1.873 1.573l-1.502-.246c.468-1.752 1.599-2.628 3.392-2.628.996 0 1.775.273 2.338.817.568.545.853 1.196.853 1.952 0 .761-.37 1.368-1.108 1.819.469.252.82.574 1.055.967.234.386.351.846.351 1.38 0 .838-.304 1.517-.914 2.039-.609.521-1.462.782-2.557.782-2.127 0-3.361-.946-3.701-2.839l1.486-.316c.135.597.407 1.06.817 1.388.416.328.891.492 1.424.492.533 0 .976-.149 1.327-.448.358-.304.536-.691.536-1.16 0-.363-.111-.68-.334-.95-.222-.269-.46-.436-.712-.5-.252-.07-.709-.106-1.371-.106-.052 0-.173.003-.36.01zm5.396-.448c0-1.728.481-3.009 1.442-3.84.803-.692 1.781-1.038 2.935-1.038 1.284 0 2.332.422 3.147 1.266.814.838 1.222 1.998 1.222 3.48 0 1.201-.182 2.148-.545 2.839a3.8 3.8 0 01-1.574 1.6 4.552 4.552 0 01-2.25.57c-1.306 0-2.364-.418-3.172-1.256-.803-.838-1.205-2.045-1.205-3.621zm1.626 0c0 1.195.261 2.092.783 2.69a2.51 2.51 0 001.968.887c.786 0 1.439-.299 1.96-.896.522-.598.783-1.51.783-2.734 0-1.154-.264-2.027-.791-2.619-.522-.597-1.172-.896-1.952-.896a2.51 2.51 0 00-1.968.887c-.522.592-.783 1.486-.783 2.681zm9.036-4.667h1.582v8.024h3.603v-8.024h1.582v8.024h3.612v-8.024h1.574V83h-11.953v-9.334zm15.17 0h7.347V83h-1.573v-8.024h-4.192v4.649c0 1.084-.036 1.799-.106 2.144-.07.346-.264.648-.58.906-.316.258-.773.386-1.371.386-.369 0-.794-.023-1.275-.07v-1.318h.695c.328 0 .562-.032.703-.097a.532.532 0 00.281-.325c.047-.147.071-.624.071-1.433v-6.152zm9.738 0h1.582v7.12l4.386-7.12h1.705V83h-1.582v-7.075L578.964 83h-1.705v-9.334zm21.454 6.328l1.635.202c-.258.955-.736 1.697-1.433 2.224-.697.527-1.588.79-2.672.79-1.365 0-2.449-.418-3.252-1.256-.797-.844-1.195-2.024-1.195-3.542 0-1.57.404-2.789 1.213-3.656.808-.867 1.857-1.3 3.146-1.3 1.248 0 2.268.424 3.059 1.273.791.85 1.186 2.045 1.186 3.586 0 .094-.003.235-.008.422h-6.961c.058 1.026.348 1.81.87 2.356.521.545 1.172.817 1.951.817.58 0 1.075-.152 1.485-.457.41-.305.736-.79.976-1.459zm-5.194-2.558h5.211c-.07-.785-.269-1.374-.597-1.766-.504-.61-1.157-.914-1.96-.914-.727 0-1.339.243-1.837.73-.492.486-.765 1.136-.817 1.95zm8.833-3.77h5.37v1.31h-3.788V83h-1.582v-9.334zm5.572 4.667c0-1.728.48-3.009 1.441-3.84.803-.692 1.781-1.038 2.936-1.038 1.283 0 2.332.422 3.146 1.266.815.838 1.222 1.998 1.222 3.48 0 1.201-.182 2.148-.545 2.839a3.797 3.797 0 01-1.573 1.6 4.558 4.558 0 01-2.25.57c-1.307 0-2.364-.418-3.173-1.256-.803-.838-1.204-2.045-1.204-3.621zm1.626 0c0 1.195.261 2.092.782 2.69a2.514 2.514 0 001.969.887c.785 0 1.438-.299 1.96-.896.521-.598.782-1.51.782-2.734 0-1.154-.264-2.027-.791-2.619-.522-.597-1.172-.896-1.951-.896-.791 0-1.447.296-1.969.887-.521.592-.782 1.486-.782 2.681zm9.826 1.468l-.483-6.83v-2.856h1.96v2.857l-.457 6.829h-1.02zM618.963 83v-1.802h1.819V83h-1.819z" fill="#2E2E2E"/></svg>