<svg width="623" height="118" viewBox="0 0 623 118" fill="none" xmlns="http://www.w3.org/2000/svg">
<path fill-rule="evenodd" clip-rule="evenodd" d="M30.422 94.7647C30.3196 94.523 30.1706 94.2938 30.0238 94.0771C29.7929 93.7361 29.5476 93.4054 29.3333 93.0536C29.1125 92.6906 28.9191 92.2983 28.8381 91.8783C28.812 91.7437 28.7978 91.6066 28.7978 91.4693C28.7978 90.611 29.5957 89.6817 30.065 89.0022C30.2037 88.8016 30.3806 88.6348 30.4652 88.4014L30.6032 88.0203L30.7446 88.4003C30.8368 88.6488 31.0097 88.8928 31.1648 89.1062C31.3928 89.4201 31.6341 89.7242 31.8445 90.0508C32.0674 90.3961 32.2639 90.7758 32.3372 91.1836C32.3705 91.37 32.3773 91.5591 32.3521 91.7468C32.2852 92.2474 31.9204 92.9197 31.6656 93.3591C31.4572 93.7181 31.2321 94.0685 30.9867 94.4035C30.8864 94.5403 30.7833 94.679 30.67 94.8057L30.5136 94.9808L30.422 94.7647ZM30.1449 108L26.6222 106.212L26.6116 106.205C26.2724 105.95 26.0014 105.649 25.8321 105.256C25.6462 104.825 25.6079 104.342 25.6003 103.878C25.5913 103.338 25.6167 102.799 25.6239 102.259L25.6271 102.017L25.8418 102.13C26.317 102.379 26.7948 102.623 27.2731 102.866C27.6731 103.069 28.0744 103.271 28.4667 103.489C28.9405 103.752 29.4762 104.073 29.7681 104.544C30.0007 104.919 30.0713 105.367 30.1064 105.8C30.1321 106.117 30.1389 106.434 30.1425 106.751C30.1463 107.087 30.1456 107.422 30.1452 107.758L30.1449 108ZM31.0639 98.6233C31.0642 98.2011 31.0655 97.7788 31.0754 97.3568C31.0837 97.0081 31.0964 96.6586 31.1344 96.3115C31.1803 95.8915 31.2634 95.444 31.5359 95.1064C31.8036 94.7746 32.2526 94.5524 32.6271 94.3618C32.9292 94.2081 33.2331 94.0577 33.5331 93.8999C33.94 93.6859 34.3407 93.4599 34.7337 93.2216C34.9473 93.0919 35.149 92.9724 35.3869 92.8925L35.5834 92.8263L35.5831 93.0334C35.5829 93.4439 35.5813 93.8547 35.5712 94.265C35.5627 94.6116 35.5492 94.959 35.5107 95.3036C35.4618 95.7407 35.3727 96.1967 35.0976 96.5528C34.8255 96.905 34.3868 97.1393 33.997 97.3387C33.6961 97.4929 33.3908 97.6388 33.0877 97.7889C32.6832 97.9894 32.2816 98.1961 31.8853 98.4122C31.6746 98.5272 31.4929 98.6719 31.2676 98.7615L31.0637 98.8425L31.0639 98.6233ZM31.0637 107.759C31.0633 107.411 31.0626 107.062 31.0662 106.714C31.0696 106.391 31.0756 106.067 31.1015 105.744C31.1362 105.312 31.2053 104.86 31.4432 104.487C31.7358 104.029 32.2776 103.721 32.7455 103.468C33.1385 103.256 33.5392 103.059 33.9385 102.859C34.4165 102.619 34.8935 102.377 35.3671 102.129L35.582 102.017L35.5849 102.259C35.5917 102.816 35.616 103.372 35.5998 103.928C35.5854 104.413 35.5345 104.919 35.3223 105.362C35.1429 105.737 34.8696 106.021 34.512 106.264L31.0639 108L31.0637 107.759ZM29.9275 103.24C29.4094 102.969 28.8883 102.703 28.3778 102.417C28.0832 102.252 27.7856 102.092 27.4874 101.934C27.2616 101.813 27.035 101.694 26.813 101.566C26.5135 101.394 26.1963 101.195 25.9933 100.908C25.7497 100.565 25.6906 100.115 25.6602 99.7048C25.6347 99.3647 25.63 99.0233 25.6271 98.6825C25.6237 98.2897 25.6251 97.8972 25.6255 97.5046L25.6257 97.2575L27.392 98.1963C27.9333 98.4842 28.4854 98.7595 29.0011 99.0924C29.3153 99.2952 29.6221 99.5295 29.8188 99.8545C30.0427 100.225 30.0981 100.675 30.1244 101.099C30.1443 101.421 30.147 101.743 30.1476 102.065C30.1485 102.413 30.1463 102.761 30.1454 103.109L30.1447 103.354L29.9275 103.24ZM29.9464 98.764C29.625 98.6449 29.3144 98.4583 29.0166 98.2897C28.7935 98.1637 28.5709 98.0356 28.3416 97.9215C27.7998 97.652 27.2474 97.3912 26.7356 97.0678C26.423 96.8701 26.1209 96.6394 25.9291 96.3166C25.7092 95.9464 25.659 95.4931 25.6368 95.0713C25.6199 94.7516 25.6197 94.4316 25.6203 94.1115C25.6212 93.7692 25.6242 93.4266 25.6253 93.084L25.6262 92.8391L29.1177 94.6675C30.1485 95.336 30.2057 96.5309 30.1782 97.6386C30.1699 97.9683 30.1528 98.2974 30.147 98.6271L30.1431 98.8369L29.9464 98.764ZM31.0621 103.111C31.0549 102.559 31.0291 102.007 31.0417 101.455C31.0525 100.978 31.0977 100.48 31.3007 100.041C31.4833 99.6472 31.7702 99.3523 32.1266 99.1108C32.3285 98.9738 32.5475 98.8601 32.7611 98.7421C33.1077 98.5508 33.4575 98.3649 33.8093 98.1828C34.1798 97.9908 34.5523 97.8024 34.9306 97.626C35.079 97.5566 35.2282 97.4862 35.381 97.427L35.5831 97.3489L35.5834 97.5659C35.5836 97.9276 35.584 98.2893 35.5789 98.6507C35.5741 98.9742 35.566 99.2976 35.5377 99.62C35.4996 100.057 35.4247 100.509 35.1829 100.884C34.8854 101.345 34.3465 101.656 33.8745 101.913C33.4843 102.125 33.0861 102.321 32.6895 102.521C32.2179 102.758 31.7473 102.996 31.28 103.241L31.0653 103.354L31.0621 103.111ZM30.722 93.0628L30.7245 93.0538C30.7403 92.9996 30.7776 92.942 30.8064 92.8929C30.8571 92.8063 30.9093 92.7205 30.9588 92.6332C31.091 92.4011 31.2075 92.1578 31.2791 91.8999C31.4869 91.1497 31.2244 90.5559 30.6082 90.1046L30.6043 90.1019L30.6005 90.1046C29.736 90.7378 29.6387 91.5706 30.162 92.4756C30.3621 92.8216 30.2973 92.9501 30.716 93.0613L30.722 93.0628ZM26.633 103.697V103.705C26.633 104.116 26.6183 104.706 26.8466 105.062C26.9843 105.277 27.2018 105.416 27.4257 105.527C28.0012 105.813 28.5608 106.129 29.1287 106.43L29.1379 106.434V106.424C29.1379 106.028 29.1557 105.457 28.9529 105.107C28.8192 104.877 28.5912 104.716 28.3681 104.58C28.0976 104.415 27.816 104.267 27.5356 104.12C27.3589 104.027 27.1813 103.936 27.0012 103.85C26.8893 103.797 26.7601 103.731 26.6409 103.699L26.633 103.697ZM32.0712 97.1418L32.0786 97.14C32.2083 97.1098 32.3413 97.0529 32.4637 97.0013C32.6418 96.9262 32.8171 96.8447 32.9911 96.7608C33.161 96.6786 33.3292 96.5935 33.4955 96.5044C33.6148 96.4404 33.7352 96.3758 33.8478 96.3004C34.0571 96.1602 34.2648 95.9979 34.3911 95.7751C34.5851 95.4318 34.5759 94.9135 34.5759 94.5281V94.5203L34.568 94.5221C34.0226 94.6486 33.3112 95.0963 32.8277 95.3898C32.6069 95.5237 32.3424 95.6891 32.213 95.9196C32.0419 96.2248 32.0712 96.7884 32.0712 97.1339V97.1418ZM34.5759 103.697L34.568 103.699C34.4548 103.725 34.3177 103.796 34.2117 103.846C34.0265 103.933 33.8437 104.026 33.6616 104.12C33.3814 104.264 33.1018 104.411 32.8272 104.566C32.5954 104.697 32.3478 104.857 32.2175 105.098C32.0349 105.434 32.0712 106.045 32.0712 106.424V106.435L33.7789 105.522C34.0013 105.395 34.223 105.244 34.3618 105.023C34.5842 104.67 34.5759 104.111 34.5759 103.705V103.697ZM26.633 98.9364V98.9465C26.633 99.337 26.6033 99.9285 26.7937 100.277C26.9245 100.516 27.1574 100.674 27.3893 100.805C27.6632 100.959 27.9412 101.105 28.2205 101.249C28.4003 101.342 28.5811 101.433 28.7641 101.52C28.8777 101.573 29.0085 101.639 29.1298 101.672L29.1379 101.674V101.666C29.1379 101.231 29.1325 100.669 28.88 100.298C28.7008 100.034 28.4021 99.8554 28.1277 99.705C27.6395 99.4372 27.1342 99.2015 26.6422 98.9411L26.633 98.9364ZM26.633 94.5203V94.5281C26.633 94.9281 26.6206 95.4989 26.8403 95.8467C26.9794 96.067 27.2081 96.2181 27.43 96.3455C27.6996 96.5001 27.9772 96.6417 28.2567 96.7781C28.419 96.8573 28.5826 96.9341 28.749 97.0043C28.8707 97.0556 29.0011 97.1101 29.13 97.14L29.1379 97.1418V97.1339C29.1379 96.7486 29.1512 96.1965 28.9414 95.8606C28.7958 95.6279 28.5444 95.4753 28.3067 95.3504C28.0875 95.2354 27.8739 95.1102 27.658 94.9889C27.3559 94.8192 26.9783 94.6004 26.6409 94.5221L26.633 94.5203ZM32.0712 101.676L32.0802 101.671C32.5373 101.429 33.0105 101.22 33.4768 100.996C33.7494 100.866 34.0553 100.712 34.25 100.474C34.5691 100.084 34.5759 99.4273 34.5759 98.9465V98.9364L34.5669 98.9411C33.9992 99.2418 33.4395 99.5578 32.8639 99.8439C32.64 99.9551 32.4225 100.094 32.2848 100.309C32.0563 100.664 32.0712 101.255 32.0712 101.666V101.676Z" fill="#0B582C"/>
<path fill-rule="evenodd" clip-rule="evenodd" d="M33.7584 53.246H23.4399V47.4677H33.7584V53.246ZM70.9062 79.6653C83.5196 79.6653 94.4955 72.6587 100.157 62.3254H96.1095C90.814 70.6534 81.506 76.1795 70.9062 76.1795C60.3064 76.1795 50.9983 70.6534 45.7028 62.3254H41.6552C47.3169 72.6587 58.2926 79.6653 70.9062 79.6653ZM100.157 30.3399C94.4955 20.0066 83.5196 13 70.9062 13C58.2926 13 47.3169 20.0066 41.6552 30.3399H45.7028C50.9983 22.0118 60.3064 16.4859 70.9062 16.4859C81.506 16.4859 90.814 22.0118 96.1095 30.3399H100.157ZM20 56.6513H20.6878H22.7678H33.5862C35.5813 56.6513 37.1981 55.069 37.1981 53.143V49.6693C37.1981 47.7428 35.5813 46.1607 33.5862 46.1607V46.0232C35.5813 46.0232 37.1981 44.4406 37.1981 42.5146V39.5223C37.1981 37.5959 35.5813 36.014 33.5862 36.014H20.6878C20.3097 36.014 20 36.3235 20 36.7016V53.8837V55.9637V56.6513ZM54.0522 53.2116H43.7336V39.453H54.0522V53.2116ZM57.4917 36.014C52.4697 36.014 47.4481 36.014 42.4261 36.014C41.2225 36.014 40.2936 36.9427 40.2936 38.1462V53.8837V54.5189V56.6513H42.4261H43.0615H55.3591C56.5633 56.6513 57.4917 55.7226 57.4917 54.5189C57.4917 48.3505 57.4917 42.1824 57.4917 36.014ZM77.7856 36.014H77.0973H75.0337H75.0177V36.0142C74.6468 36.023 74.3459 36.3286 74.3459 36.7016V51.3542L64.6804 36.7016C64.3709 36.1857 63.8208 36.014 63.3736 36.014H62.7197C61.5162 36.014 60.5875 36.9427 60.5875 38.1462V53.8837V55.9637V56.6513H61.2751H63.3389H63.3551V56.6511C63.7263 56.6421 64.0272 56.3366 64.0272 55.9637V41.3797L73.6578 55.9637C73.9673 56.4793 74.5176 56.6513 74.9651 56.6513H75.6527C76.8569 56.6513 77.7856 55.7226 77.7856 54.5189C77.7856 48.3505 77.7856 42.1824 77.7856 36.014ZM98.0792 36.014H97.3909H95.3274H95.3114V36.0142C94.9407 36.023 94.6395 36.3286 94.6395 36.7016V53.2116H84.3208V36.7016C84.3208 36.3235 84.0114 36.014 83.6328 36.014H81.569C81.1908 36.014 80.8811 36.3235 80.8811 36.7016V53.8837V54.5189V56.6513H83.0136H83.649H95.9466C97.1505 56.6513 98.0792 55.7226 98.0792 54.5189C98.0792 48.3505 98.0792 42.1824 98.0792 36.014ZM121.812 36.014H119.645H119.045H118.992C118.476 36.014 117.96 36.2544 117.685 36.7016L111.494 46.883L105.302 36.7016C105.027 36.2544 104.511 36.014 103.996 36.014H103.342C102.138 36.014 101.175 36.9427 101.175 38.1462V53.8837V55.9637V56.6513H101.863H103.926H103.943V56.6511C104.314 56.6421 104.615 56.3366 104.615 55.9637V41.6206L109.705 49.7379C110.083 50.1158 110.496 50.4255 111.012 50.4255H111.975C112.491 50.4255 112.904 50.1158 113.282 49.7379L118.373 41.6206V55.9637C118.373 56.3418 118.683 56.6513 119.061 56.6513H121.124C121.503 56.6513 121.812 56.3418 121.812 55.9637C121.812 49.3136 121.812 42.6638 121.812 36.014ZM33.7584 44.7503H23.4399V39.4193H33.7584V44.7503Z" fill="#0B582C"/>
<path d="M49.8154 104.034C49.859 104.159 49.8852 104.258 49.8881 104.336C49.891 104.412 49.8678 104.47 49.8242 104.511C49.7776 104.549 49.7017 104.575 49.5971 104.587C49.4922 104.598 49.3524 104.604 49.1748 104.604C49.0001 104.604 48.8577 104.601 48.7528 104.592C48.6479 104.584 48.5693 104.569 48.514 104.549C48.4588 104.529 48.4208 104.502 48.3947 104.467C48.3686 104.432 48.3451 104.392 48.322 104.339L47.3757 101.652H42.7879L41.8824 104.304C41.865 104.357 41.8445 104.4 41.8155 104.438C41.7863 104.476 41.7455 104.505 41.6901 104.531C41.6379 104.558 41.5591 104.575 41.4603 104.587C41.3613 104.598 41.2332 104.604 41.0732 104.604C40.9071 104.604 40.7732 104.598 40.6685 104.584C40.5636 104.569 40.488 104.543 40.4472 104.502C40.4036 104.461 40.3831 104.403 40.386 104.328C40.3889 104.249 40.4123 104.15 40.4587 104.025L44.1588 93.7687C44.1823 93.7048 44.2142 93.6524 44.2491 93.6145C44.2869 93.5738 44.3394 93.5416 44.4123 93.5214C44.4821 93.498 44.5723 93.4806 44.6858 93.4718C44.7965 93.4631 44.9363 93.4602 45.108 93.4602C45.2885 93.4602 45.4398 93.4631 45.5593 93.4718C45.6786 93.4806 45.7747 93.498 45.8474 93.5214C45.923 93.5416 45.9784 93.5765 46.0191 93.6175C46.0599 93.6612 46.0918 93.7134 46.1123 93.7746L49.8154 104.034ZM45.0643 94.9799H45.0556L43.1545 100.482H46.9915L45.0643 94.9799ZM59.8093 95.0207C59.8093 95.1282 59.8036 95.2243 59.7919 95.3058C59.7802 95.3873 59.7629 95.4573 59.7424 95.5124C59.7192 95.5649 59.69 95.6027 59.6551 95.6261C59.6231 95.6493 59.5853 95.661 59.5443 95.661C59.4775 95.661 59.364 95.6056 59.2038 95.498C59.0438 95.3902 58.8313 95.268 58.5634 95.137C58.2956 95.006 57.9753 94.8838 57.6028 94.776C57.23 94.6684 56.7875 94.613 56.2782 94.613C55.6668 94.613 55.1224 94.7235 54.6391 94.9448C54.1559 95.169 53.7453 95.4746 53.4106 95.8676C53.073 96.2606 52.8166 96.7265 52.6363 97.2681C52.4588 97.8094 52.3685 98.3946 52.3685 99.0264C52.3685 99.7339 52.4673 100.36 52.6624 100.907C52.8603 101.451 53.1311 101.914 53.4804 102.29C53.8268 102.665 54.2403 102.95 54.7235 103.143C55.2039 103.338 55.7337 103.434 56.3072 103.434C56.6507 103.434 56.9971 103.393 57.3464 103.309C57.696 103.227 58.0219 103.102 58.3246 102.939V99.7134H55.7686C55.6698 99.7134 55.5968 99.6639 55.5503 99.5678C55.5007 99.4717 55.4775 99.3204 55.4775 99.1138C55.4775 99.0059 55.4834 98.9128 55.4951 98.8372C55.5066 98.7615 55.5241 98.6974 55.5503 98.6478C55.5766 98.6012 55.6056 98.5664 55.6405 98.5432C55.6725 98.5198 55.7164 98.5081 55.7686 98.5081H59.2709C59.3348 98.5081 59.396 98.5198 59.4599 98.5432C59.5212 98.5664 59.5795 98.5983 59.629 98.6449C59.6812 98.6915 59.7219 98.7527 59.7483 98.8313C59.7773 98.9128 59.7919 99.003 59.7919 99.105V103.317C59.7919 103.466 59.7656 103.594 59.7163 103.702C59.6639 103.809 59.556 103.906 59.3902 103.987C59.2272 104.068 59.0118 104.159 58.7498 104.255C58.4878 104.354 58.22 104.435 57.9404 104.505C57.6608 104.572 57.3786 104.624 57.0961 104.657C56.8109 104.692 56.5285 104.709 56.2518 104.709C55.3961 104.709 54.6333 104.578 53.9636 104.313C53.2913 104.048 52.7237 103.67 52.2607 103.181C51.7979 102.691 51.4427 102.106 51.1981 101.422C50.9536 100.738 50.8314 99.9783 50.8314 99.134C50.8314 98.2578 50.9624 97.463 51.2273 96.7527C51.4922 96.0423 51.8648 95.4368 52.3451 94.9333C52.8254 94.4325 53.4018 94.0454 54.0744 93.7687C54.7496 93.4921 55.4951 93.3553 56.3131 93.3553C56.7351 93.3553 57.1281 93.3933 57.4979 93.466C57.8677 93.5416 58.1965 93.6289 58.4849 93.728C58.7701 93.8299 59.0118 93.9376 59.2096 94.0571C59.4048 94.1734 59.5387 94.2695 59.6143 94.3452C59.687 94.4179 59.7395 94.5052 59.7656 94.6013C59.7949 94.6974 59.8093 94.8372 59.8093 95.0207ZM69.9112 104.331C69.9112 104.377 69.9026 104.415 69.8851 104.45C69.8675 104.485 69.8326 104.514 69.7743 104.537C69.7192 104.558 69.6377 104.575 69.5357 104.587C69.4338 104.598 69.2969 104.604 69.1281 104.604C68.9796 104.604 68.8573 104.598 68.7642 104.587C68.6712 104.575 68.5953 104.558 68.5373 104.531C68.4819 104.505 68.4382 104.47 68.4063 104.424C68.3741 104.38 68.348 104.322 68.3246 104.255L67.3115 101.649C67.1922 101.352 67.067 101.082 66.939 100.834C66.8109 100.587 66.6594 100.374 66.4818 100.194C66.3072 100.013 66.0976 99.8763 65.8588 99.7746C65.6202 99.6756 65.3319 99.6261 64.9972 99.6261H64.016V104.331C64.016 104.377 64.0046 104.415 63.9782 104.45C63.9521 104.485 63.9114 104.511 63.8589 104.531C63.8036 104.552 63.7309 104.569 63.6377 104.584C63.5416 104.598 63.4252 104.604 63.2825 104.604C63.1398 104.604 63.0234 104.598 62.9273 104.584C62.8341 104.569 62.7585 104.552 62.7031 104.531C62.6448 104.511 62.607 104.485 62.5838 104.45C62.5604 104.418 62.549 104.377 62.549 104.331V94.1093C62.549 93.888 62.607 93.7339 62.7236 93.6436C62.84 93.5563 62.9651 93.5126 63.0961 93.5126H65.4426C65.7222 93.5126 65.952 93.5184 66.1383 93.5328C66.3218 93.5475 66.4877 93.565 66.6362 93.5794C67.0641 93.6553 67.4395 93.7717 67.7686 93.9288C68.0948 94.089 68.3682 94.2898 68.5895 94.5345C68.8137 94.7789 68.9796 95.0584 69.0903 95.3758C69.2008 95.69 69.2562 96.0394 69.2562 96.4209C69.2562 96.7875 69.2067 97.1195 69.1079 97.4135C69.0059 97.7047 68.8632 97.9638 68.6768 98.188C68.4878 98.4122 68.2636 98.6071 68.0016 98.773C67.7396 98.9362 67.4483 99.0757 67.1224 99.1894C67.3058 99.2709 67.4688 99.3699 67.6171 99.4921C67.7657 99.6144 67.9025 99.7629 68.0306 99.9317C68.1587 100.103 68.2809 100.302 68.3946 100.523C68.508 100.744 68.6217 100.994 68.7351 101.274L69.725 103.707C69.8036 103.911 69.856 104.057 69.8763 104.138C69.8997 104.22 69.9112 104.284 69.9112 104.331ZM67.7018 96.5692C67.7018 96.1384 67.6057 95.7717 67.4105 95.4717C67.2185 95.1748 66.8953 94.9594 66.4382 94.8284C66.2955 94.7877 66.1354 94.7616 65.9578 94.744C65.7773 94.7264 65.5446 94.7179 65.2533 94.7179H64.016V98.4383H65.4485C65.8356 98.4383 66.1703 98.3917 66.4528 98.2985C66.7323 98.2024 66.968 98.0714 67.1544 97.9055C67.3437 97.7367 67.4805 97.5386 67.5708 97.3118C67.6581 97.0847 67.7018 96.837 67.7018 96.5692ZM81.1018 98.904C81.1018 99.7978 80.9969 100.601 80.7874 101.318C80.5749 102.034 80.2604 102.642 79.844 103.146C79.4249 103.646 78.901 104.034 78.2691 104.304C77.6373 104.575 76.9009 104.709 76.0595 104.709C75.2299 104.709 74.5136 104.587 73.9082 104.339C73.2998 104.092 72.8019 103.731 72.406 103.259C72.0101 102.788 71.7161 102.202 71.5239 101.504C71.329 100.805 71.2329 100.002 71.2329 99.0933C71.2329 98.2229 71.3377 97.431 71.5473 96.7207C71.7598 96.0103 72.0742 95.4078 72.4962 94.9099C72.9156 94.4149 73.4425 94.0307 74.0741 93.76C74.7029 93.4892 75.4394 93.3553 76.2837 93.3553C77.096 93.3553 77.8034 93.4777 78.406 93.7221C79.0085 93.9668 79.5123 94.322 79.9111 94.7906C80.3129 95.2592 80.6127 95.8386 80.8076 96.5314C81.0028 97.2215 81.1018 98.0133 81.1018 98.904ZM79.5472 99.006C79.5472 98.3829 79.4918 97.8006 79.3813 97.2652C79.2705 96.7295 79.0871 96.2635 78.828 95.8676C78.569 95.4746 78.2255 95.166 77.7947 94.9448C77.3609 94.7235 76.8282 94.613 76.1934 94.613C75.556 94.613 75.0232 94.7323 74.5924 94.9711C74.1614 95.2097 73.8091 95.5271 73.5413 95.923C73.2708 96.3218 73.0785 96.7848 72.9622 97.3174C72.8456 97.8472 72.7875 98.4034 72.7875 98.9884C72.7875 99.6378 72.8426 100.232 72.9505 100.776C73.058 101.323 73.2386 101.792 73.4949 102.188C73.7481 102.581 74.0916 102.887 74.5195 103.105C74.9476 103.323 75.486 103.434 76.1324 103.434C76.7757 103.434 77.3144 103.314 77.751 103.076C78.1877 102.837 78.5399 102.517 78.8078 102.109C79.0727 101.705 79.2647 101.233 79.3784 100.7C79.4918 100.168 79.5472 99.6026 79.5472 99.006ZM93.1043 103.908C93.1043 104.025 93.0987 104.121 93.087 104.197C93.0753 104.272 93.0577 104.339 93.0316 104.395C93.0055 104.447 92.9762 104.488 92.9384 104.514C92.9006 104.54 92.857 104.552 92.8045 104.552H87.9225C87.7915 104.552 87.6663 104.508 87.55 104.421C87.4334 104.331 87.3753 104.176 87.3753 103.955V93.7339C87.3753 93.6873 87.3868 93.6465 87.4102 93.6145C87.4334 93.5794 87.4712 93.5533 87.5295 93.5328C87.5849 93.5126 87.6634 93.495 87.7595 93.4806C87.8556 93.466 87.972 93.4602 88.1088 93.4602C88.2515 93.4602 88.3679 93.466 88.464 93.4806C88.5572 93.495 88.6328 93.5126 88.6882 93.5328C88.7463 93.5533 88.7843 93.5794 88.8075 93.6145C88.8309 93.6465 88.8424 93.6873 88.8424 93.7339V103.277H92.8045C92.857 103.277 92.9006 103.288 92.9384 103.314C92.9733 103.341 93.0055 103.379 93.0316 103.425C93.0577 103.474 93.0753 103.539 93.087 103.62C93.0987 103.699 93.1043 103.795 93.1043 103.908ZM96.1843 104.331C96.1843 104.377 96.1729 104.418 96.1495 104.45C96.1263 104.485 96.0882 104.511 96.0302 104.531C95.9748 104.552 95.8992 104.569 95.806 104.584C95.7099 104.598 95.5935 104.604 95.4508 104.604C95.3139 104.604 95.1976 104.598 95.1015 104.584C95.0054 104.569 94.9268 104.552 94.8714 104.531C94.8131 104.511 94.7753 104.485 94.7521 104.45C94.7287 104.418 94.7173 104.377 94.7173 104.331V93.7339C94.7173 93.6873 94.7287 93.6465 94.7551 93.6145C94.7812 93.5794 94.8248 93.5533 94.8831 93.5328C94.9441 93.5126 95.02 93.495 95.1132 93.4806C95.2064 93.466 95.3198 93.4602 95.4508 93.4602C95.5935 93.4602 95.7099 93.466 95.806 93.4806C95.8992 93.495 95.9748 93.5126 96.0302 93.5328C96.0882 93.5533 96.1263 93.5794 96.1495 93.6145C96.1729 93.6465 96.1843 93.6873 96.1843 93.7339V104.331ZM107.468 103.937C107.468 104.051 107.448 104.15 107.41 104.229C107.372 104.307 107.323 104.374 107.262 104.424C107.2 104.476 107.131 104.511 107.055 104.534C106.976 104.558 106.901 104.569 106.825 104.569H106.339C106.187 104.569 106.053 104.555 105.937 104.523C105.823 104.491 105.716 104.435 105.611 104.354C105.509 104.272 105.404 104.162 105.302 104.022C105.2 103.882 105.09 103.699 104.973 103.477L101.602 97.1981C101.424 96.8749 101.247 96.5343 101.069 96.1791C100.889 95.824 100.723 95.4775 100.569 95.1428H100.551C100.563 95.5505 100.572 95.9696 100.577 96.3975C100.583 96.8226 100.586 97.2476 100.586 97.6667V104.331C100.586 104.371 100.575 104.409 100.551 104.447C100.525 104.482 100.484 104.511 100.429 104.531C100.371 104.552 100.298 104.569 100.205 104.584C100.112 104.598 99.9923 104.604 99.8496 104.604C99.7039 104.604 99.5847 104.598 99.4915 104.584C99.3983 104.569 99.3256 104.552 99.2731 104.531C99.2178 104.511 99.18 104.482 99.1539 104.447C99.1304 104.409 99.119 104.371 99.119 104.331V94.1444C99.119 93.9173 99.1829 93.7541 99.3139 93.6582C99.442 93.5621 99.5817 93.5126 99.7361 93.5126H100.458C100.627 93.5126 100.769 93.5272 100.883 93.5563C101 93.5824 101.101 93.6319 101.192 93.696C101.282 93.76 101.372 93.8531 101.457 93.9697C101.541 94.0861 101.631 94.2317 101.724 94.4093L104.315 99.2533C104.475 99.5504 104.63 99.8385 104.778 100.121C104.927 100.403 105.072 100.68 105.209 100.954C105.346 101.224 105.483 101.495 105.617 101.76C105.753 102.022 105.884 102.29 106.018 102.558H106.027C106.015 102.106 106.007 101.641 106.004 101.154C106.001 100.668 106.001 100.2 106.001 99.7512V93.7687C106.001 93.728 106.013 93.6902 106.036 93.6582C106.062 93.6231 106.103 93.5941 106.158 93.568C106.216 93.5416 106.292 93.5243 106.382 93.5126C106.475 93.5009 106.598 93.495 106.749 93.495C106.88 93.495 106.994 93.5009 107.09 93.5126C107.186 93.5243 107.262 93.5416 107.314 93.568C107.369 93.5941 107.407 93.6231 107.433 93.6582C107.456 93.6902 107.468 93.728 107.468 93.7687V103.937ZM116.542 103.943C116.542 104.048 116.536 104.138 116.525 104.214C116.513 104.29 116.493 104.354 116.467 104.406C116.437 104.459 116.406 104.493 116.368 104.517C116.33 104.54 116.289 104.552 116.243 104.552H110.941C110.81 104.552 110.685 104.508 110.569 104.421C110.452 104.331 110.394 104.176 110.394 103.955V94.1093C110.394 93.888 110.452 93.7339 110.569 93.6436C110.685 93.5563 110.81 93.5126 110.941 93.5126H116.181C116.228 93.5126 116.269 93.5243 116.306 93.5475C116.344 93.5709 116.374 93.6058 116.397 93.6582C116.417 93.7104 116.437 93.7746 116.452 93.8502C116.467 93.9261 116.472 94.022 116.472 94.1356C116.472 94.2403 116.467 94.3276 116.452 94.4064C116.437 94.482 116.417 94.5459 116.397 94.5955C116.374 94.6421 116.341 94.6769 116.306 94.7004C116.269 94.7235 116.228 94.7352 116.181 94.7352H111.861V98.1938H115.57C115.617 98.1938 115.657 98.2053 115.695 98.2317C115.73 98.2578 115.762 98.2927 115.788 98.3393C115.814 98.3858 115.832 98.4471 115.844 98.5256C115.855 98.6071 115.861 98.7003 115.861 98.8081C115.861 98.9128 115.855 99.0001 115.844 99.073C115.832 99.1487 115.814 99.2067 115.788 99.2533C115.762 99.2999 115.73 99.3321 115.695 99.3524C115.657 99.3728 115.617 99.3816 115.57 99.3816H111.861V103.329H116.243C116.289 103.329 116.33 103.341 116.368 103.364C116.406 103.387 116.437 103.422 116.467 103.469C116.493 103.518 116.513 103.582 116.525 103.658C116.536 103.734 116.542 103.83 116.542 103.943Z" fill="#0B582C"/>
<path d="M172.07 56.5762C172.07 56.8587 171.915 57 171.605 57H168.775C168.657 57 168.552 56.9453 168.461 56.8359C168.37 56.7174 168.324 56.5853 168.324 56.4395V43.4238C168.324 43.2324 168.297 43.1367 168.242 43.1367C168.206 43.1367 168.037 43.4375 167.736 44.0391L165.467 48.5508C165.266 48.9427 164.947 49.1387 164.51 49.1387H161.693C161.265 49.1387 160.964 48.9792 160.791 48.6602L158.727 44.5859C158.234 43.6198 157.97 43.1367 157.934 43.1367C157.879 43.1367 157.852 43.2324 157.852 43.4238V56.4395C157.852 56.5853 157.806 56.7174 157.715 56.8359C157.624 56.9453 157.519 57 157.4 57H154.57C154.26 57 154.105 56.8587 154.105 56.5762V37.3125C154.105 37.0026 154.215 36.7383 154.434 36.5195C154.652 36.3008 154.917 36.1914 155.227 36.1914H157.51C157.984 36.1914 158.33 36.4147 158.549 36.8613L161.434 42.6992C162.372 44.6042 162.869 45.6022 162.924 45.6934C162.979 45.7845 163.033 45.8301 163.088 45.8301C163.152 45.8301 163.234 45.7344 163.334 45.543L166.82 38.502C167.404 37.3262 167.736 36.6882 167.818 36.5879C167.91 36.4785 168.028 36.3874 168.174 36.3145C168.329 36.2324 168.493 36.1914 168.666 36.1914H170.949C171.259 36.1914 171.523 36.3053 171.742 36.5332C171.961 36.752 172.07 37.0117 172.07 37.3125V56.5762ZM187.697 56.4395C187.697 56.5944 187.643 56.7266 187.533 56.8359C187.424 56.9453 187.292 57 187.137 57H184.758C184.603 57 184.471 56.9453 184.361 56.8359C184.252 56.7266 184.197 56.5944 184.197 56.4395V55.9883C182.848 56.8086 181.531 57.2188 180.246 57.2188C178.688 57.2188 177.489 56.8268 176.65 56.043C175.821 55.2591 175.406 54.0924 175.406 52.543V52.4336C175.406 50.8021 175.949 49.5898 177.033 48.7969C178.118 47.9948 179.854 47.5938 182.242 47.5938H184.006V46.3633C184.006 45.4883 183.81 44.8913 183.418 44.5723C183.035 44.2533 182.411 44.0938 181.545 44.0938C180.697 44.0938 179.886 44.1165 179.111 44.1621L176.979 44.3125H176.842C176.505 44.3125 176.336 44.153 176.336 43.834V42.043C176.336 41.8516 176.404 41.7012 176.541 41.5918C176.687 41.4733 177.293 41.3503 178.359 41.2227C179.435 41.0859 180.497 41.0176 181.545 41.0176C185.646 41.0176 187.697 42.7995 187.697 46.3633V56.4395ZM184.006 53.5V50.0547H182.242C181.158 50.0547 180.365 50.2142 179.863 50.5332C179.371 50.8522 179.125 51.4857 179.125 52.4336V52.543C179.125 53.181 179.266 53.6322 179.549 53.8965C179.84 54.1517 180.374 54.2793 181.148 54.2793C182.087 54.2793 183.04 54.0195 184.006 53.5ZM199.537 41.7969C199.537 41.6419 199.592 41.5052 199.701 41.3867C199.82 41.2682 199.952 41.209 200.098 41.209H202.682C202.827 41.209 202.955 41.2682 203.064 41.3867C203.183 41.5052 203.242 41.6419 203.242 41.7969V53.9512H206.852C207.243 53.9512 207.49 53.8691 207.59 53.7051C207.69 53.5319 207.74 53.2676 207.74 52.9121V41.7969C207.74 41.6419 207.795 41.5052 207.904 41.3867C208.023 41.2682 208.155 41.209 208.301 41.209H210.885C211.031 41.209 211.158 41.2682 211.268 41.3867C211.386 41.5052 211.445 41.6419 211.445 41.7969V52.9395C211.445 54.252 211.149 55.2591 210.557 55.9609C209.964 56.6536 208.729 57 206.852 57H195.928C194.05 57 192.815 56.6536 192.223 55.9609C191.63 55.2591 191.334 54.252 191.334 52.9395V41.7969C191.334 41.6419 191.389 41.5052 191.498 41.3867C191.617 41.2682 191.749 41.209 191.895 41.209H194.465C194.62 41.209 194.752 41.2682 194.861 41.3867C194.971 41.5052 195.025 41.6419 195.025 41.7969V52.9121C195.025 53.2676 195.076 53.5319 195.176 53.7051C195.285 53.8691 195.536 53.9512 195.928 53.9512H199.537V41.7969ZM228.029 56.4395C228.029 56.5944 227.975 56.7266 227.865 56.8359C227.756 56.9453 227.624 57 227.469 57H224.898C224.743 57 224.611 56.9453 224.502 56.8359C224.393 56.7266 224.338 56.5944 224.338 56.4395V55.7969C222.962 56.7266 221.494 57.1914 219.936 57.1914C218.322 57.1914 217.11 56.7357 216.299 55.8242C215.497 54.9128 215.096 53.2812 215.096 50.9297V41.7969C215.096 41.6419 215.15 41.5052 215.26 41.3867C215.378 41.2682 215.51 41.209 215.656 41.209H218.227C218.382 41.209 218.514 41.2682 218.623 41.3867C218.732 41.5052 218.787 41.6419 218.787 41.7969V50.9297C218.787 52.1237 218.942 52.9531 219.252 53.418C219.562 53.8828 220.204 54.1152 221.18 54.1152C221.909 54.1152 222.962 53.7415 224.338 52.9941V41.7969C224.338 41.6419 224.393 41.5052 224.502 41.3867C224.611 41.2682 224.743 41.209 224.898 41.209H227.469C227.624 41.209 227.756 41.2682 227.865 41.3867C227.975 41.5052 228.029 41.6419 228.029 41.7969V56.4395ZM235.357 56.4121C235.357 56.5671 235.303 56.7038 235.193 56.8223C235.084 56.9408 234.952 57 234.797 57H232.227C232.081 57 231.949 56.9408 231.83 56.8223C231.721 56.7038 231.666 56.5671 231.666 56.4121V41.7969C231.666 41.6419 231.721 41.5052 231.83 41.3867C231.949 41.2682 232.081 41.209 232.227 41.209H234.797C234.952 41.209 235.084 41.2682 235.193 41.3867C235.303 41.5052 235.357 41.6419 235.357 41.7969V47.457H240.908V41.7969C240.908 41.6419 240.963 41.5052 241.072 41.3867C241.182 41.2682 241.314 41.209 241.469 41.209H244.039C244.194 41.209 244.326 41.2682 244.436 41.3867C244.545 41.5052 244.6 41.6419 244.6 41.7969V56.4121C244.6 56.5671 244.545 56.7038 244.436 56.8223C244.326 56.9408 244.194 57 244.039 57H241.469C241.314 57 241.182 56.9408 241.072 56.8223C240.963 56.7038 240.908 56.5671 240.908 56.4121V50.2188H235.357V56.4121ZM261.143 50.2461C261.143 52.3698 260.546 54.0651 259.352 55.332C258.167 56.5898 256.535 57.2188 254.457 57.2188C252.37 57.2188 250.729 56.5898 249.535 55.332C248.35 54.0651 247.758 52.3698 247.758 50.2461V47.9902C247.758 45.8665 248.35 44.1758 249.535 42.918C250.729 41.651 252.37 41.0176 254.457 41.0176C256.535 41.0176 258.167 41.651 259.352 42.918C260.546 44.1758 261.143 45.8665 261.143 47.9902V50.2461ZM257.451 50.2461V47.9902C257.451 46.7962 257.187 45.8665 256.658 45.2012C256.139 44.5358 255.405 44.2031 254.457 44.2031C253.509 44.2031 252.771 44.5358 252.242 45.2012C251.723 45.8665 251.463 46.7962 251.463 47.9902V50.2461C251.463 51.4219 251.718 52.347 252.229 53.0215C252.748 53.696 253.491 54.0332 254.457 54.0332C255.405 54.0332 256.139 53.7005 256.658 53.0352C257.187 52.3698 257.451 51.4401 257.451 50.2461ZM274.336 56.1387C274.336 56.403 274.272 56.5898 274.145 56.6992C274.026 56.7995 273.602 56.9089 272.873 57.0273C272.153 57.1549 271.242 57.2188 270.139 57.2188C268.188 57.2188 266.634 56.6217 265.477 55.4277C264.328 54.2337 263.754 52.5658 263.754 50.4238V47.8125C263.754 45.6706 264.328 44.0026 265.477 42.8086C266.634 41.6146 268.188 41.0176 270.139 41.0176C271.269 41.0176 272.189 41.0814 272.9 41.209C273.62 41.3366 274.04 41.4505 274.158 41.5508C274.277 41.651 274.336 41.8333 274.336 42.0977V43.9297C274.336 44.2031 274.167 44.3398 273.83 44.3398H273.748C272.709 44.2122 271.506 44.1484 270.139 44.1484C268.343 44.1484 267.445 45.3698 267.445 47.8125V50.4238C267.445 52.8665 268.343 54.0879 270.139 54.0879C271.005 54.0879 271.693 54.0697 272.203 54.0332L273.748 53.8965H273.83C274.167 53.8965 274.336 54.0332 274.336 54.3066V56.1387ZM285.027 44.2305V56.4121C285.027 56.5671 284.973 56.7038 284.863 56.8223C284.754 56.9408 284.622 57 284.467 57H281.896C281.742 57 281.609 56.9408 281.5 56.8223C281.391 56.7038 281.336 56.5671 281.336 56.4121V44.2305H276.988C276.833 44.2305 276.701 44.1803 276.592 44.0801C276.482 43.9798 276.428 43.8522 276.428 43.6973V41.7695C276.428 41.6146 276.482 41.4824 276.592 41.373C276.71 41.2637 276.842 41.209 276.988 41.209H289.375C289.521 41.209 289.648 41.2637 289.758 41.373C289.876 41.4824 289.936 41.6146 289.936 41.7695V43.6973C289.936 43.8522 289.881 43.9798 289.771 44.0801C289.662 44.1803 289.53 44.2305 289.375 44.2305H285.027ZM305.672 50.1914C305.672 52.4245 305.107 54.1562 303.977 55.3867C302.855 56.6081 301.188 57.2188 298.973 57.2188C298.161 57.2188 297.264 57.1549 296.279 57.0273V61.9902C296.279 62.1361 296.225 62.2637 296.115 62.373C296.006 62.4915 295.874 62.5508 295.719 62.5508H293.148C292.993 62.5508 292.861 62.4915 292.752 62.373C292.643 62.2637 292.588 62.1361 292.588 61.9902V42.4941C292.588 42.2298 292.688 42.0339 292.889 41.9062C293.089 41.7695 293.837 41.5872 295.131 41.3594C296.425 41.1315 297.706 41.0176 298.973 41.0176C301.142 41.0176 302.801 41.6237 303.949 42.8359C305.098 44.0391 305.672 45.7754 305.672 48.0449V50.1914ZM301.967 50.1914V48.0449C301.967 46.623 301.721 45.6022 301.229 44.9824C300.745 44.3535 299.993 44.0391 298.973 44.0391C297.861 44.0391 296.963 44.1029 296.279 44.2305V54.0059C297.245 54.1335 298.143 54.1973 298.973 54.1973C299.993 54.1973 300.745 53.8874 301.229 53.2676C301.721 52.6387 301.967 51.6133 301.967 50.1914ZM321.654 50.2461C321.654 52.3698 321.057 54.0651 319.863 55.332C318.678 56.5898 317.047 57.2188 314.969 57.2188C312.882 57.2188 311.241 56.5898 310.047 55.332C308.862 54.0651 308.27 52.3698 308.27 50.2461V47.9902C308.27 45.8665 308.862 44.1758 310.047 42.918C311.241 41.651 312.882 41.0176 314.969 41.0176C317.047 41.0176 318.678 41.651 319.863 42.918C321.057 44.1758 321.654 45.8665 321.654 47.9902V50.2461ZM317.963 50.2461V47.9902C317.963 46.7962 317.699 45.8665 317.17 45.2012C316.65 44.5358 315.917 44.2031 314.969 44.2031C314.021 44.2031 313.283 44.5358 312.754 45.2012C312.234 45.8665 311.975 46.7962 311.975 47.9902V50.2461C311.975 51.4219 312.23 52.347 312.74 53.0215C313.26 53.696 314.003 54.0332 314.969 54.0332C315.917 54.0332 316.65 53.7005 317.17 53.0352C317.699 52.3698 317.963 51.4401 317.963 50.2461ZM337.76 56.4395C337.76 56.5944 337.705 56.7266 337.596 56.8359C337.486 56.9453 337.354 57 337.199 57H334.629C334.474 57 334.342 56.9453 334.232 56.8359C334.123 56.7266 334.068 56.5944 334.068 56.4395V55.7969C332.692 56.7266 331.225 57.1914 329.666 57.1914C328.053 57.1914 326.84 56.7357 326.029 55.8242C325.227 54.9128 324.826 53.2812 324.826 50.9297V41.7969C324.826 41.6419 324.881 41.5052 324.99 41.3867C325.109 41.2682 325.241 41.209 325.387 41.209H327.957C328.112 41.209 328.244 41.2682 328.354 41.3867C328.463 41.5052 328.518 41.6419 328.518 41.7969V50.9297C328.518 52.1237 328.673 52.9531 328.982 53.418C329.292 53.8828 329.935 54.1152 330.91 54.1152C331.639 54.1152 332.692 53.7415 334.068 52.9941V41.7969C334.068 41.6419 334.123 41.5052 334.232 41.3867C334.342 41.2682 334.474 41.209 334.629 41.209H337.199C337.354 41.209 337.486 41.2682 337.596 41.3867C337.705 41.5052 337.76 41.6419 337.76 41.7969V56.4395ZM349.012 44.2305V56.4121C349.012 56.5671 348.957 56.7038 348.848 56.8223C348.738 56.9408 348.606 57 348.451 57H345.881C345.726 57 345.594 56.9408 345.484 56.8223C345.375 56.7038 345.32 56.5671 345.32 56.4121V44.2305H340.973C340.818 44.2305 340.686 44.1803 340.576 44.0801C340.467 43.9798 340.412 43.8522 340.412 43.6973V41.7695C340.412 41.6146 340.467 41.4824 340.576 41.373C340.695 41.2637 340.827 41.209 340.973 41.209H353.359C353.505 41.209 353.633 41.2637 353.742 41.373C353.861 41.4824 353.92 41.6146 353.92 41.7695V43.6973C353.92 43.8522 353.865 43.9798 353.756 44.0801C353.646 44.1803 353.514 44.2305 353.359 44.2305H349.012ZM368.932 49.6855C368.932 50.1595 368.745 50.3965 368.371 50.3965H359.252V50.4785C359.252 51.4629 359.507 52.3014 360.018 52.9941C360.528 53.6868 361.389 54.0332 362.602 54.0332C363.504 54.0332 364.402 54.0013 365.295 53.9375L367.756 53.7461H367.838C368.175 53.7461 368.344 53.8874 368.344 54.1699V56.0156C368.344 56.3802 368.253 56.599 368.07 56.6719C367.888 56.7357 367.296 56.8451 366.293 57C365.299 57.1458 363.978 57.2188 362.328 57.2188C360.387 57.2188 358.769 56.6172 357.475 55.4141C356.189 54.2109 355.547 52.4701 355.547 50.1914V48.127C355.547 45.9121 356.139 44.1758 357.324 42.918C358.518 41.651 360.168 41.0176 362.273 41.0176C364.342 41.0176 365.969 41.6602 367.154 42.9453C368.339 44.2305 368.932 45.9577 368.932 48.127V49.6855ZM365.213 47.7578V47.6484C365.213 46.582 364.944 45.7435 364.406 45.1328C363.868 44.513 363.158 44.2031 362.273 44.2031C361.371 44.2031 360.646 44.513 360.1 45.1328C359.553 45.7435 359.279 46.582 359.279 47.6484V47.7578H365.213ZM381.469 56.5215L378.693 44.7363C378.602 44.3626 378.397 44.1758 378.078 44.1758C377.759 44.1758 377.554 44.3626 377.463 44.7363L374.729 56.5215C374.656 56.8405 374.478 57 374.195 57H371.393C371.055 57 370.887 56.8405 370.887 56.5215C370.887 56.5033 370.896 56.4577 370.914 56.3848L374.195 43.8613C374.688 41.9655 375.982 41.0176 378.078 41.0176C380.174 41.0176 381.473 41.9655 381.975 43.8613L385.311 56.5215C385.311 56.8405 385.142 57 384.805 57H382.002C381.719 57 381.542 56.8405 381.469 56.5215ZM391.682 46.0762H393.582C398.385 46.0762 400.787 47.8809 400.787 51.4902V51.5996C400.787 55.1999 398.385 57 393.582 57C392.616 57 391.586 56.959 390.492 56.877C389.398 56.7949 388.706 56.6992 388.414 56.5898C388.132 56.4805 387.99 56.3073 387.99 56.0703V41.7969C387.99 41.6419 388.045 41.5052 388.154 41.3867C388.264 41.2682 388.396 41.209 388.551 41.209H391.121C391.276 41.209 391.408 41.2682 391.518 41.3867C391.627 41.5052 391.682 41.6419 391.682 41.7969V46.0762ZM391.682 49.0977V53.8418C392.529 53.8783 393.163 53.8965 393.582 53.8965C394.812 53.8965 395.697 53.7188 396.234 53.3633C396.781 53.0078 397.055 52.4199 397.055 51.5996V51.4902C397.055 50.6152 396.786 49.9909 396.248 49.6172C395.71 49.2344 394.822 49.043 393.582 49.043C392.552 49.043 391.919 49.0612 391.682 49.0977ZM406.857 56.4121C406.857 56.5671 406.803 56.7038 406.693 56.8223C406.584 56.9408 406.452 57 406.297 57H403.727C403.581 57 403.449 56.9408 403.33 56.8223C403.221 56.7038 403.166 56.5671 403.166 56.4121V41.7969C403.166 41.6419 403.221 41.5052 403.33 41.3867C403.449 41.2682 403.581 41.209 403.727 41.209H406.297C406.452 41.209 406.584 41.2682 406.693 41.3867C406.803 41.5052 406.857 41.6419 406.857 41.7969V47.457H412.408V41.7969C412.408 41.6419 412.463 41.5052 412.572 41.3867C412.682 41.2682 412.814 41.209 412.969 41.209H415.539C415.694 41.209 415.826 41.2682 415.936 41.3867C416.045 41.5052 416.1 41.6419 416.1 41.7969V56.4121C416.1 56.5671 416.045 56.7038 415.936 56.8223C415.826 56.9408 415.694 57 415.539 57H412.969C412.814 57 412.682 56.9408 412.572 56.8223C412.463 56.7038 412.408 56.5671 412.408 56.4121V50.2188H406.857V56.4121ZM423.291 46.0762H425.191C429.995 46.0762 432.396 47.8809 432.396 51.4902V51.5996C432.396 55.1999 429.995 57 425.191 57C424.225 57 423.195 56.959 422.102 56.877C421.008 56.7949 420.315 56.6992 420.023 56.5898C419.741 56.4805 419.6 56.3073 419.6 56.0703V41.7969C419.6 41.6419 419.654 41.5052 419.764 41.3867C419.873 41.2682 420.005 41.209 420.16 41.209H422.73C422.885 41.209 423.018 41.2682 423.127 41.3867C423.236 41.5052 423.291 41.6419 423.291 41.7969V46.0762ZM423.291 49.0977V53.8418C424.139 53.8783 424.772 53.8965 425.191 53.8965C426.422 53.8965 427.306 53.7188 427.844 53.3633C428.391 53.0078 428.664 52.4199 428.664 51.5996V51.4902C428.664 50.6152 428.395 49.9909 427.857 49.6172C427.32 49.2344 426.431 49.043 425.191 49.043C424.161 49.043 423.528 49.0612 423.291 49.0977ZM438.549 56.4121C438.549 56.5671 438.494 56.7038 438.385 56.8223C438.275 56.9408 438.143 57 437.988 57H435.418C435.263 57 435.131 56.9408 435.021 56.8223C434.912 56.7038 434.857 56.5671 434.857 56.4121V41.7695C434.857 41.6146 434.912 41.4824 435.021 41.373C435.131 41.2637 435.263 41.209 435.418 41.209H437.988C438.143 41.209 438.275 41.2637 438.385 41.373C438.494 41.4824 438.549 41.6146 438.549 41.7695V56.4121ZM443.922 35.1934H445.973C446.155 35.1934 446.273 35.3027 446.328 35.5215C446.656 36.752 447.404 37.3672 448.57 37.3672C449.746 37.3672 450.493 36.752 450.812 35.5215C450.867 35.3027 450.99 35.1934 451.182 35.1934H453.219C453.428 35.1934 453.533 35.2708 453.533 35.4258C453.533 35.7721 453.378 36.3008 453.068 37.0117C452.758 37.7135 452.212 38.3151 451.428 38.8164C450.653 39.3086 449.701 39.5547 448.57 39.5547C447.44 39.5547 446.488 39.3086 445.713 38.8164C444.938 38.3151 444.391 37.7135 444.072 37.0117C443.762 36.3008 443.607 35.7721 443.607 35.4258C443.607 35.2708 443.712 35.1934 443.922 35.1934ZM454.982 56.4395C454.982 56.5944 454.928 56.7266 454.818 56.8359C454.709 56.9453 454.577 57 454.422 57H451.852C451.697 57 451.564 56.9453 451.455 56.8359C451.346 56.7266 451.291 56.5944 451.291 56.4395V55.7969C449.915 56.7266 448.447 57.1914 446.889 57.1914C445.275 57.1914 444.063 56.7357 443.252 55.8242C442.45 54.9128 442.049 53.2812 442.049 50.9297V41.7969C442.049 41.6419 442.104 41.5052 442.213 41.3867C442.331 41.2682 442.464 41.209 442.609 41.209H445.18C445.335 41.209 445.467 41.2682 445.576 41.3867C445.686 41.5052 445.74 41.6419 445.74 41.7969V50.9297C445.74 52.1237 445.895 52.9531 446.205 53.418C446.515 53.8828 447.158 54.1152 448.133 54.1152C448.862 54.1152 449.915 53.7415 451.291 52.9941V41.7969C451.291 41.6419 451.346 41.5052 451.455 41.3867C451.564 41.2682 451.697 41.209 451.852 41.209H454.422C454.577 41.209 454.709 41.2682 454.818 41.3867C454.928 41.5052 454.982 41.6419 454.982 41.7969V56.4395ZM475.982 52.4336C475.982 55.6237 473.872 57.2188 469.652 57.2188C468.613 57.2188 467.588 57.1413 466.576 56.9863C465.574 56.8223 464.999 56.6947 464.854 56.6035C464.708 56.5124 464.635 56.403 464.635 56.2754V54.334C464.635 54.0788 464.785 53.9512 465.086 53.9512H465.113C467.082 54.1517 468.595 54.252 469.652 54.252C470.728 54.252 471.434 54.1243 471.771 53.8691C472.118 53.6048 472.291 53.1263 472.291 52.4336V52.1602C472.291 51.4492 472.113 50.9661 471.758 50.7109C471.411 50.4466 470.869 50.3145 470.131 50.3145H465.934C465.633 50.3145 465.482 50.1823 465.482 49.918V47.9492C465.482 47.6758 465.633 47.5391 465.934 47.5391H470.131C470.878 47.5391 471.425 47.4206 471.771 47.1836C472.118 46.9375 472.291 46.459 472.291 45.748V45.5156C472.291 44.8503 472.081 44.4219 471.662 44.2305C471.243 44.0299 470.573 43.9297 469.652 43.9297C469.096 43.9297 468.417 43.9616 467.615 44.0254L465.113 44.2305H465.086C464.785 44.2305 464.635 44.0983 464.635 43.834V41.9609C464.635 41.8333 464.708 41.724 464.854 41.6328C464.999 41.5417 465.574 41.4186 466.576 41.2637C467.588 41.0996 468.613 41.0176 469.652 41.0176C471.858 41.0176 473.462 41.3913 474.465 42.1387C475.477 42.877 475.982 44.0026 475.982 45.5156V45.748C475.982 47.1517 475.308 48.2044 473.959 48.9062C474.588 49.1523 475.08 49.5898 475.436 50.2188C475.8 50.8477 475.982 51.4948 475.982 52.1602V52.4336ZM490.857 56.4395C490.857 56.5944 490.803 56.7266 490.693 56.8359C490.584 56.9453 490.452 57 490.297 57H487.918C487.763 57 487.631 56.9453 487.521 56.8359C487.412 56.7266 487.357 56.5944 487.357 56.4395V55.9883C486.008 56.8086 484.691 57.2188 483.406 57.2188C481.848 57.2188 480.649 56.8268 479.811 56.043C478.981 55.2591 478.566 54.0924 478.566 52.543V52.4336C478.566 50.8021 479.109 49.5898 480.193 48.7969C481.278 47.9948 483.014 47.5938 485.402 47.5938H487.166V46.3633C487.166 45.4883 486.97 44.8913 486.578 44.5723C486.195 44.2533 485.571 44.0938 484.705 44.0938C483.857 44.0938 483.046 44.1165 482.271 44.1621L480.139 44.3125H480.002C479.665 44.3125 479.496 44.153 479.496 43.834V42.043C479.496 41.8516 479.564 41.7012 479.701 41.5918C479.847 41.4733 480.453 41.3503 481.52 41.2227C482.595 41.0859 483.657 41.0176 484.705 41.0176C488.807 41.0176 490.857 42.7995 490.857 46.3633V56.4395ZM487.166 53.5V50.0547H485.402C484.318 50.0547 483.525 50.2142 483.023 50.5332C482.531 50.8522 482.285 51.4857 482.285 52.4336V52.543C482.285 53.181 482.426 53.6322 482.709 53.8965C483.001 54.1517 483.534 54.2793 484.309 54.2793C485.247 54.2793 486.2 54.0195 487.166 53.5ZM507.715 52.5703C507.715 54.1927 507.109 55.373 505.896 56.1113C504.693 56.8496 502.693 57.2188 499.895 57.2188C498.71 57.2188 497.639 57.1777 496.682 57.0957C495.725 57.0228 495.118 56.8997 494.863 56.7266C494.617 56.5534 494.494 56.2526 494.494 55.8242V42.3574C494.494 42.0202 494.576 41.7513 494.74 41.5508C494.913 41.3411 495.506 41.1999 496.518 41.127C497.529 41.054 498.591 41.0176 499.703 41.0176C502.784 41.0176 504.871 41.3776 505.965 42.0977C507.059 42.8177 507.605 43.9479 507.605 45.4883V45.666C507.605 46.3678 507.405 47.015 507.004 47.6074C506.603 48.1908 506.029 48.6055 505.281 48.8516C506.904 49.3802 507.715 50.5651 507.715 52.4062V52.5703ZM504.01 45.666V45.4883C504.01 44.7044 503.741 44.2214 503.203 44.0391C502.674 43.8477 501.786 43.752 500.537 43.752C499.68 43.752 498.896 43.7702 498.186 43.8066V47.5938H500.66C501.727 47.5938 502.551 47.4707 503.135 47.2246C503.718 46.9694 504.01 46.4499 504.01 45.666ZM504.133 52.2695V52.1055C504.133 51.2305 503.85 50.6699 503.285 50.4238C502.72 50.1777 501.845 50.0547 500.66 50.0547H498.186V54.4297C498.723 54.4479 499.293 54.457 499.895 54.457C501.48 54.457 502.583 54.3066 503.203 54.0059C503.823 53.696 504.133 53.1172 504.133 52.2695ZM523.561 50.2461C523.561 52.3698 522.964 54.0651 521.77 55.332C520.585 56.5898 518.953 57.2188 516.875 57.2188C514.788 57.2188 513.147 56.5898 511.953 55.332C510.768 54.0651 510.176 52.3698 510.176 50.2461V47.9902C510.176 45.8665 510.768 44.1758 511.953 42.918C513.147 41.651 514.788 41.0176 516.875 41.0176C518.953 41.0176 520.585 41.651 521.77 42.918C522.964 44.1758 523.561 45.8665 523.561 47.9902V50.2461ZM519.869 50.2461V47.9902C519.869 46.7962 519.605 45.8665 519.076 45.2012C518.557 44.5358 517.823 44.2031 516.875 44.2031C515.927 44.2031 515.189 44.5358 514.66 45.2012C514.141 45.8665 513.881 46.7962 513.881 47.9902V50.2461C513.881 51.4219 514.136 52.347 514.646 53.0215C515.166 53.696 515.909 54.0332 516.875 54.0332C517.823 54.0332 518.557 53.7005 519.076 53.0352C519.605 52.3698 519.869 51.4401 519.869 50.2461ZM539.584 57H529.029V60.3086C529.029 60.4544 528.975 60.582 528.865 60.6914C528.756 60.8099 528.624 60.8691 528.469 60.8691H525.898C525.743 60.8691 525.611 60.8099 525.502 60.6914C525.393 60.582 525.338 60.4544 525.338 60.3086V54.5117C525.338 54.3568 525.393 54.2246 525.502 54.1152C525.611 54.0059 525.743 53.9512 525.898 53.9512H527.799L530.492 43.8613C531.003 41.9655 532.297 41.0176 534.375 41.0176C536.435 41.0176 537.734 41.9655 538.271 43.8613L541.102 53.9512H542.729C542.874 53.9512 543.002 54.0059 543.111 54.1152C543.221 54.2246 543.275 54.3568 543.275 54.5117V60.3086C543.275 60.4635 543.221 60.5957 543.111 60.7051C543.002 60.8145 542.874 60.8691 542.729 60.8691H540.145C539.99 60.8691 539.857 60.8099 539.748 60.6914C539.639 60.582 539.584 60.4544 539.584 60.3086V57ZM537.314 53.9512L535.141 45.707C534.931 44.9323 534.803 44.5176 534.758 44.4629C534.721 44.3991 534.671 44.3535 534.607 44.3262C534.544 44.2988 534.466 44.2852 534.375 44.2852C534.275 44.2852 534.193 44.3034 534.129 44.3398C534.065 44.3672 534.01 44.4173 533.965 44.4902C533.928 44.554 533.787 45.0918 533.541 46.1035L531.6 53.9512H537.314Z" fill="#2E2E2E"/>
<path d="M162.582 78.4824L164.287 78.9131C163.93 80.3135 163.285 81.3828 162.354 82.1211C161.428 82.8535 160.294 83.2197 158.952 83.2197C157.563 83.2197 156.433 82.9385 155.56 82.376C154.692 81.8076 154.03 80.9873 153.573 79.915C153.122 78.8428 152.896 77.6914 152.896 76.4609C152.896 75.1191 153.151 73.9502 153.661 72.9541C154.177 71.9521 154.906 71.1934 155.85 70.6777C156.799 70.1562 157.842 69.8955 158.979 69.8955C160.268 69.8955 161.352 70.2236 162.23 70.8799C163.109 71.5361 163.722 72.459 164.067 73.6484L162.389 74.0439C162.09 73.1064 161.656 72.4238 161.088 71.9961C160.52 71.5684 159.805 71.3545 158.943 71.3545C157.953 71.3545 157.124 71.5918 156.456 72.0664C155.794 72.541 155.328 73.1797 155.059 73.9824C154.789 74.7793 154.654 75.6025 154.654 76.4521C154.654 77.5479 154.812 78.5059 155.129 79.3262C155.451 80.1406 155.949 80.75 156.623 81.1543C157.297 81.5586 158.026 81.7607 158.812 81.7607C159.767 81.7607 160.575 81.4854 161.237 80.9346C161.899 80.3838 162.348 79.5664 162.582 78.4824ZM165.342 73.666H172.927V74.9756H169.921V83H168.348V74.9756H165.342V73.666ZM174.438 86.5771V73.666H175.88V74.8789C176.22 74.4043 176.604 74.0498 177.031 73.8154C177.459 73.5752 177.978 73.4551 178.587 73.4551C179.384 73.4551 180.087 73.6602 180.696 74.0703C181.306 74.4805 181.766 75.0605 182.076 75.8105C182.387 76.5547 182.542 77.3721 182.542 78.2627C182.542 79.2178 182.369 80.0791 182.023 80.8467C181.684 81.6084 181.186 82.1943 180.529 82.6045C179.879 83.0088 179.193 83.2109 178.473 83.2109C177.945 83.2109 177.471 83.0996 177.049 82.877C176.633 82.6543 176.29 82.373 176.021 82.0332V86.5771H174.438ZM175.871 78.3857C175.871 79.5869 176.114 80.4746 176.601 81.0488C177.087 81.623 177.676 81.9102 178.367 81.9102C179.07 81.9102 179.671 81.6143 180.169 81.0225C180.673 80.4248 180.925 79.502 180.925 78.2539C180.925 77.0645 180.679 76.1738 180.187 75.582C179.7 74.9902 179.117 74.6943 178.438 74.6943C177.764 74.6943 177.166 75.0107 176.645 75.6436C176.129 76.2705 175.871 77.1846 175.871 78.3857ZM190.848 79.9941L192.482 80.1963C192.225 81.1514 191.747 81.8926 191.05 82.4199C190.353 82.9473 189.462 83.2109 188.378 83.2109C187.013 83.2109 185.929 82.792 185.126 81.9541C184.329 81.1104 183.931 79.9297 183.931 78.4121C183.931 76.8418 184.335 75.623 185.144 74.7559C185.952 73.8887 187.001 73.4551 188.29 73.4551C189.538 73.4551 190.558 73.8799 191.349 74.7295C192.14 75.5791 192.535 76.7744 192.535 78.3154C192.535 78.4092 192.532 78.5498 192.526 78.7373H185.565C185.624 79.7627 185.914 80.5479 186.436 81.0928C186.957 81.6377 187.607 81.9102 188.387 81.9102C188.967 81.9102 189.462 81.7578 189.872 81.4531C190.282 81.1484 190.607 80.6621 190.848 79.9941ZM185.653 77.4365H190.865C190.795 76.6514 190.596 76.0625 190.268 75.6699C189.764 75.0605 189.11 74.7559 188.308 74.7559C187.581 74.7559 186.969 74.999 186.471 75.4854C185.979 75.9717 185.706 76.6221 185.653 77.4365ZM194.521 73.666H196.982L199.435 81.1367L202.159 73.666H204.436V83H202.854V75.4854L200.094 83H198.679L196.068 75.125V83H194.521V73.666ZM214.2 73.666V83H212.627V79.3613H211.713C211.156 79.3613 210.74 79.4346 210.465 79.5811C210.195 79.7217 209.8 80.1816 209.278 80.9609L207.898 83H205.938L207.644 80.4863C208.165 79.7188 208.684 79.2852 209.199 79.1855C208.297 79.0625 207.626 78.7373 207.187 78.21C206.753 77.6826 206.536 77.0762 206.536 76.3906C206.536 75.582 206.82 74.9258 207.389 74.4219C207.963 73.918 208.792 73.666 209.876 73.666H214.2ZM212.627 74.9756H210.377C209.434 74.9756 208.824 75.1221 208.549 75.415C208.279 75.708 208.145 76.0508 208.145 76.4434C208.145 77 208.344 77.4102 208.742 77.6738C209.146 77.9316 209.858 78.0605 210.878 78.0605H212.627V74.9756ZM222.699 79.5811L224.255 79.7832C224.085 80.8555 223.648 81.6963 222.945 82.3057C222.248 82.9092 221.39 83.2109 220.37 83.2109C219.093 83.2109 218.064 82.7949 217.285 81.9629C216.512 81.125 216.125 79.9268 216.125 78.3682C216.125 77.3604 216.292 76.4785 216.626 75.7227C216.96 74.9668 217.467 74.4014 218.146 74.0264C218.832 73.6455 219.576 73.4551 220.379 73.4551C221.393 73.4551 222.222 73.7129 222.866 74.2285C223.511 74.7383 223.924 75.4648 224.105 76.4082L222.567 76.6455C222.421 76.0186 222.16 75.5469 221.785 75.2305C221.416 74.9141 220.968 74.7559 220.44 74.7559C219.644 74.7559 218.996 75.043 218.498 75.6172C218 76.1855 217.751 77.0879 217.751 78.3242C217.751 79.5781 217.991 80.4893 218.472 81.0576C218.952 81.626 219.579 81.9102 220.353 81.9102C220.974 81.9102 221.492 81.7197 221.908 81.3389C222.324 80.958 222.588 80.3721 222.699 79.5811ZM225.582 73.666H227.164V77.3135H229.168C230.475 77.3135 231.479 77.5684 232.183 78.0781C232.892 78.582 233.246 79.2793 233.246 80.1699C233.246 80.9492 232.95 81.6172 232.358 82.1738C231.772 82.7246 230.832 83 229.537 83H225.582V73.666ZM227.164 81.6992H228.825C229.827 81.6992 230.542 81.5762 230.97 81.3301C231.397 81.084 231.611 80.7002 231.611 80.1787C231.611 79.7744 231.453 79.4141 231.137 79.0977C230.82 78.7812 230.12 78.623 229.036 78.623H227.164V81.6992ZM239.996 73.666H241.578V77.7002C242.082 77.7002 242.434 77.6035 242.633 77.4102C242.838 77.2168 243.137 76.6543 243.529 75.7227C243.84 74.9844 244.092 74.498 244.285 74.2637C244.479 74.0293 244.701 73.8711 244.953 73.7891C245.205 73.707 245.609 73.666 246.166 73.666H246.482V74.9756L246.043 74.9668C245.627 74.9668 245.36 75.0283 245.243 75.1514C245.12 75.2803 244.933 75.6641 244.681 76.3027C244.44 76.9121 244.221 77.334 244.021 77.5684C243.822 77.8027 243.515 78.0166 243.099 78.21C243.778 78.3916 244.446 79.0244 245.103 80.1084L246.834 83H245.094L243.406 80.1084C243.061 79.5283 242.759 79.1475 242.501 78.9658C242.243 78.7783 241.936 78.6846 241.578 78.6846V83H239.996V73.666ZM259.279 79.9941L260.914 80.1963C260.656 81.1514 260.179 81.8926 259.481 82.4199C258.784 82.9473 257.894 83.2109 256.81 83.2109C255.444 83.2109 254.36 82.792 253.558 81.9541C252.761 81.1104 252.362 79.9297 252.362 78.4121C252.362 76.8418 252.767 75.623 253.575 74.7559C254.384 73.8887 255.433 73.4551 256.722 73.4551C257.97 73.4551 258.989 73.8799 259.78 74.7295C260.571 75.5791 260.967 76.7744 260.967 78.3154C260.967 78.4092 260.964 78.5498 260.958 78.7373H253.997C254.056 79.7627 254.346 80.5479 254.867 81.0928C255.389 81.6377 256.039 81.9102 256.818 81.9102C257.398 81.9102 257.894 81.7578 258.304 81.4531C258.714 81.1484 259.039 80.6621 259.279 79.9941ZM254.085 77.4365H259.297C259.227 76.6514 259.027 76.0625 258.699 75.6699C258.195 75.0605 257.542 74.7559 256.739 74.7559C256.013 74.7559 255.4 74.999 254.902 75.4854C254.41 75.9717 254.138 76.6221 254.085 77.4365ZM262.918 73.666H266.565C267.462 73.666 268.127 73.7422 268.561 73.8945C269 74.041 269.375 74.3135 269.686 74.7119C270.002 75.1104 270.16 75.5879 270.16 76.1445C270.16 76.5898 270.066 76.9795 269.879 77.3135C269.697 77.6416 269.422 77.917 269.053 78.1396C269.492 78.2861 269.855 78.5615 270.143 78.9658C270.436 79.3643 270.582 79.8389 270.582 80.3896C270.523 81.2744 270.207 81.9307 269.633 82.3584C269.059 82.7861 268.224 83 267.128 83H262.918V73.666ZM264.5 77.5947H266.188C266.861 77.5947 267.324 77.5596 267.576 77.4893C267.828 77.4189 268.054 77.2783 268.253 77.0674C268.452 76.8506 268.552 76.5928 268.552 76.2939C268.552 75.8018 268.376 75.459 268.024 75.2656C267.679 75.0723 267.084 74.9756 266.24 74.9756H264.5V77.5947ZM264.5 81.6992H266.583C267.479 81.6992 268.095 81.5967 268.429 81.3916C268.763 81.1807 268.938 80.8203 268.956 80.3105C268.956 80.0117 268.859 79.7363 268.666 79.4844C268.473 79.2266 268.221 79.0654 267.91 79.001C267.6 78.9307 267.102 78.8955 266.416 78.8955H264.5V81.6992ZM272.472 86.5771V73.666H273.913V74.8789C274.253 74.4043 274.637 74.0498 275.064 73.8154C275.492 73.5752 276.011 73.4551 276.62 73.4551C277.417 73.4551 278.12 73.6602 278.729 74.0703C279.339 74.4805 279.799 75.0605 280.109 75.8105C280.42 76.5547 280.575 77.3721 280.575 78.2627C280.575 79.2178 280.402 80.0791 280.057 80.8467C279.717 81.6084 279.219 82.1943 278.562 82.6045C277.912 83.0088 277.227 83.2109 276.506 83.2109C275.979 83.2109 275.504 83.0996 275.082 82.877C274.666 82.6543 274.323 82.373 274.054 82.0332V86.5771H272.472ZM273.904 78.3857C273.904 79.5869 274.147 80.4746 274.634 81.0488C275.12 81.623 275.709 81.9102 276.4 81.9102C277.104 81.9102 277.704 81.6143 278.202 81.0225C278.706 80.4248 278.958 79.502 278.958 78.2539C278.958 77.0645 278.712 76.1738 278.22 75.582C277.733 74.9902 277.15 74.6943 276.471 74.6943C275.797 74.6943 275.199 75.0107 274.678 75.6436C274.162 76.2705 273.904 77.1846 273.904 78.3857ZM281.902 78.333C281.902 76.6045 282.383 75.3242 283.344 74.4922C284.146 73.8008 285.125 73.4551 286.279 73.4551C287.562 73.4551 288.611 73.877 289.426 74.7207C290.24 75.5586 290.647 76.7188 290.647 78.2012C290.647 79.4023 290.466 80.3486 290.103 81.04C289.745 81.7256 289.221 82.2588 288.529 82.6396C287.844 83.0205 287.094 83.2109 286.279 83.2109C284.973 83.2109 283.915 82.792 283.106 81.9541C282.304 81.1162 281.902 79.9092 281.902 78.333ZM283.528 78.333C283.528 79.5283 283.789 80.4248 284.311 81.0225C284.832 81.6143 285.488 81.9102 286.279 81.9102C287.064 81.9102 287.718 81.6113 288.239 81.0137C288.761 80.416 289.021 79.5049 289.021 78.2803C289.021 77.126 288.758 76.2529 288.23 75.6611C287.709 75.0635 287.059 74.7646 286.279 74.7646C285.488 74.7646 284.832 75.0605 284.311 75.6523C283.789 76.2441 283.528 77.1377 283.528 78.333ZM292.52 73.666H299.885V83H298.303V74.9756H294.102V83H292.52V73.666ZM308.656 79.9941L310.291 80.1963C310.033 81.1514 309.556 81.8926 308.858 82.4199C308.161 82.9473 307.271 83.2109 306.187 83.2109C304.821 83.2109 303.737 82.792 302.935 81.9541C302.138 81.1104 301.739 79.9297 301.739 78.4121C301.739 76.8418 302.144 75.623 302.952 74.7559C303.761 73.8887 304.81 73.4551 306.099 73.4551C307.347 73.4551 308.366 73.8799 309.157 74.7295C309.948 75.5791 310.344 76.7744 310.344 78.3154C310.344 78.4092 310.341 78.5498 310.335 78.7373H303.374C303.433 79.7627 303.723 80.5479 304.244 81.0928C304.766 81.6377 305.416 81.9102 306.195 81.9102C306.775 81.9102 307.271 81.7578 307.681 81.4531C308.091 81.1484 308.416 80.6621 308.656 79.9941ZM303.462 77.4365H308.674C308.604 76.6514 308.404 76.0625 308.076 75.6699C307.572 75.0605 306.919 74.7559 306.116 74.7559C305.39 74.7559 304.777 74.999 304.279 75.4854C303.787 75.9717 303.515 76.6221 303.462 77.4365ZM312.286 73.666H313.868V80.7852L318.254 73.666H319.959V83H318.377V75.9248L313.991 83H312.286V73.666ZM317.779 70.1328H318.86C318.772 70.8652 318.503 71.4277 318.052 71.8203C317.606 72.2129 317.012 72.4092 316.268 72.4092C315.518 72.4092 314.917 72.2158 314.466 71.8291C314.021 71.4365 313.754 70.8711 313.666 70.1328H314.747C314.829 70.5312 314.99 70.8301 315.23 71.0293C315.477 71.2227 315.805 71.3193 316.215 71.3193C316.689 71.3193 317.047 71.2256 317.287 71.0381C317.533 70.8447 317.697 70.543 317.779 70.1328ZM328.432 79.5811L329.987 79.7832C329.817 80.8555 329.381 81.6963 328.678 82.3057C327.98 82.9092 327.122 83.2109 326.103 83.2109C324.825 83.2109 323.797 82.7949 323.018 81.9629C322.244 81.125 321.857 79.9268 321.857 78.3682C321.857 77.3604 322.024 76.4785 322.358 75.7227C322.692 74.9668 323.199 74.4014 323.879 74.0264C324.564 73.6455 325.309 73.4551 326.111 73.4551C327.125 73.4551 327.954 73.7129 328.599 74.2285C329.243 74.7383 329.656 75.4648 329.838 76.4082L328.3 76.6455C328.153 76.0186 327.893 75.5469 327.518 75.2305C327.148 74.9141 326.7 74.7559 326.173 74.7559C325.376 74.7559 324.729 75.043 324.23 75.6172C323.732 76.1855 323.483 77.0879 323.483 78.3242C323.483 79.5781 323.724 80.4893 324.204 81.0576C324.685 81.626 325.312 81.9102 326.085 81.9102C326.706 81.9102 327.225 81.7197 327.641 81.3389C328.057 80.958 328.32 80.3721 328.432 79.5811ZM331.332 73.666H332.914V77.7002C333.418 77.7002 333.77 77.6035 333.969 77.4102C334.174 77.2168 334.473 76.6543 334.865 75.7227C335.176 74.9844 335.428 74.498 335.621 74.2637C335.814 74.0293 336.037 73.8711 336.289 73.7891C336.541 73.707 336.945 73.666 337.502 73.666H337.818V74.9756L337.379 74.9668C336.963 74.9668 336.696 75.0283 336.579 75.1514C336.456 75.2803 336.269 75.6641 336.017 76.3027C335.776 76.9121 335.557 77.334 335.357 77.5684C335.158 77.8027 334.851 78.0166 334.435 78.21C335.114 78.3916 335.782 79.0244 336.438 80.1084L338.17 83H336.43L334.742 80.1084C334.396 79.5283 334.095 79.1475 333.837 78.9658C333.579 78.7783 333.271 78.6846 332.914 78.6846V83H331.332V73.666ZM338.838 78.333C338.838 76.6045 339.318 75.3242 340.279 74.4922C341.082 73.8008 342.061 73.4551 343.215 73.4551C344.498 73.4551 345.547 73.877 346.361 74.7207C347.176 75.5586 347.583 76.7188 347.583 78.2012C347.583 79.4023 347.401 80.3486 347.038 81.04C346.681 81.7256 346.156 82.2588 345.465 82.6396C344.779 83.0205 344.029 83.2109 343.215 83.2109C341.908 83.2109 340.851 82.792 340.042 81.9541C339.239 81.1162 338.838 79.9092 338.838 78.333ZM340.464 78.333C340.464 79.5283 340.725 80.4248 341.246 81.0225C341.768 81.6143 342.424 81.9102 343.215 81.9102C344 81.9102 344.653 81.6113 345.175 81.0137C345.696 80.416 345.957 79.5049 345.957 78.2803C345.957 77.126 345.693 76.2529 345.166 75.6611C344.645 75.0635 343.994 74.7646 343.215 74.7646C342.424 74.7646 341.768 75.0605 341.246 75.6523C340.725 76.2441 340.464 77.1377 340.464 78.333ZM349.49 73.666H351.951L354.403 81.1367L357.128 73.666H359.404V83H357.822V75.4854L355.062 83H353.647L351.037 75.125V83H349.49V73.666ZM361.962 86.5947L361.786 85.1094C362.132 85.2031 362.434 85.25 362.691 85.25C363.043 85.25 363.324 85.1914 363.535 85.0742C363.746 84.957 363.919 84.793 364.054 84.582C364.153 84.4238 364.314 84.0312 364.537 83.4043C364.566 83.3164 364.613 83.1875 364.678 83.0176L361.136 73.666H362.841L364.783 79.0713C365.035 79.7568 365.261 80.4775 365.46 81.2334C365.642 80.5068 365.858 79.7979 366.11 79.1064L368.105 73.666H369.688L366.137 83.1582C365.756 84.1836 365.46 84.8896 365.249 85.2764C364.968 85.7979 364.646 86.1787 364.282 86.4189C363.919 86.665 363.485 86.7881 362.981 86.7881C362.677 86.7881 362.337 86.7236 361.962 86.5947ZM376.033 73.666H377.615V77.7002C378.119 77.7002 378.471 77.6035 378.67 77.4102C378.875 77.2168 379.174 76.6543 379.566 75.7227C379.877 74.9844 380.129 74.498 380.322 74.2637C380.516 74.0293 380.738 73.8711 380.99 73.7891C381.242 73.707 381.646 73.666 382.203 73.666H382.52V74.9756L382.08 74.9668C381.664 74.9668 381.397 75.0283 381.28 75.1514C381.157 75.2803 380.97 75.6641 380.718 76.3027C380.478 76.9121 380.258 77.334 380.059 77.5684C379.859 77.8027 379.552 78.0166 379.136 78.21C379.815 78.3916 380.483 79.0244 381.14 80.1084L382.871 83H381.131L379.443 80.1084C379.098 79.5283 378.796 79.1475 378.538 78.9658C378.28 78.7783 377.973 78.6846 377.615 78.6846V83H376.033V73.666ZM390.412 81.8486C389.826 82.3467 389.261 82.6982 388.716 82.9033C388.177 83.1084 387.597 83.2109 386.976 83.2109C385.95 83.2109 385.162 82.9619 384.611 82.4639C384.061 81.96 383.785 81.3184 383.785 80.5391C383.785 80.082 383.888 79.666 384.093 79.291C384.304 78.9102 384.576 78.6055 384.91 78.377C385.25 78.1484 385.631 77.9756 386.053 77.8584C386.363 77.7764 386.832 77.6973 387.459 77.6211C388.736 77.4688 389.677 77.2871 390.28 77.0762C390.286 76.8594 390.289 76.7217 390.289 76.6631C390.289 76.0186 390.14 75.5645 389.841 75.3008C389.437 74.9434 388.836 74.7646 388.039 74.7646C387.295 74.7646 386.744 74.8965 386.387 75.1602C386.035 75.418 385.774 75.8779 385.604 76.54L384.058 76.3291C384.198 75.667 384.43 75.1338 384.752 74.7295C385.074 74.3193 385.54 74.0059 386.149 73.7891C386.759 73.5664 387.465 73.4551 388.268 73.4551C389.064 73.4551 389.712 73.5488 390.21 73.7363C390.708 73.9238 391.074 74.1611 391.309 74.4482C391.543 74.7295 391.707 75.0869 391.801 75.5205C391.854 75.79 391.88 76.2764 391.88 76.9795V79.0889C391.88 80.5596 391.912 81.4912 391.977 81.8838C392.047 82.2705 392.182 82.6426 392.381 83H390.729C390.564 82.6719 390.459 82.2881 390.412 81.8486ZM390.28 78.3154C389.706 78.5498 388.845 78.749 387.696 78.9131C387.046 79.0068 386.586 79.1123 386.316 79.2295C386.047 79.3467 385.839 79.5195 385.692 79.748C385.546 79.9707 385.473 80.2197 385.473 80.4951C385.473 80.917 385.631 81.2686 385.947 81.5498C386.27 81.8311 386.738 81.9717 387.354 81.9717C387.963 81.9717 388.505 81.8398 388.979 81.5762C389.454 81.3066 389.803 80.9404 390.025 80.4775C390.195 80.1201 390.28 79.5928 390.28 78.8955V78.3154ZM393.356 73.666H394.938V75.4326C394.938 76.1943 394.982 76.748 395.07 77.0938C395.164 77.4336 395.384 77.7324 395.729 77.9902C396.075 78.2422 396.509 78.3682 397.03 78.3682C397.628 78.3682 398.401 78.21 399.351 77.8936V73.666H400.933V83H399.351V79.2383C398.378 79.543 397.47 79.6953 396.626 79.6953C395.917 79.6953 395.29 79.5166 394.745 79.1592C394.206 78.7959 393.84 78.3535 393.646 77.832C393.453 77.3105 393.356 76.7363 393.356 76.1094V73.666ZM409.713 79.9941L411.348 80.1963C411.09 81.1514 410.612 81.8926 409.915 82.4199C409.218 82.9473 408.327 83.2109 407.243 83.2109C405.878 83.2109 404.794 82.792 403.991 81.9541C403.194 81.1104 402.796 79.9297 402.796 78.4121C402.796 76.8418 403.2 75.623 404.009 74.7559C404.817 73.8887 405.866 73.4551 407.155 73.4551C408.403 73.4551 409.423 73.8799 410.214 74.7295C411.005 75.5791 411.4 76.7744 411.4 78.3154C411.4 78.4092 411.397 78.5498 411.392 78.7373H404.431C404.489 79.7627 404.779 80.5479 405.301 81.0928C405.822 81.6377 406.473 81.9102 407.252 81.9102C407.832 81.9102 408.327 81.7578 408.737 81.4531C409.147 81.1484 409.473 80.6621 409.713 79.9941ZM404.519 77.4365H409.73C409.66 76.6514 409.461 76.0625 409.133 75.6699C408.629 75.0605 407.976 74.7559 407.173 74.7559C406.446 74.7559 405.834 74.999 405.336 75.4854C404.844 75.9717 404.571 76.6221 404.519 77.4365ZM419.434 79.5811L420.989 79.7832C420.819 80.8555 420.383 81.6963 419.68 82.3057C418.982 82.9092 418.124 83.2109 417.104 83.2109C415.827 83.2109 414.799 82.7949 414.02 81.9629C413.246 81.125 412.859 79.9268 412.859 78.3682C412.859 77.3604 413.026 76.4785 413.36 75.7227C413.694 74.9668 414.201 74.4014 414.881 74.0264C415.566 73.6455 416.311 73.4551 417.113 73.4551C418.127 73.4551 418.956 73.7129 419.601 74.2285C420.245 74.7383 420.658 75.4648 420.84 76.4082L419.302 76.6455C419.155 76.0186 418.895 75.5469 418.52 75.2305C418.15 74.9141 417.702 74.7559 417.175 74.7559C416.378 74.7559 415.73 75.043 415.232 75.6172C414.734 76.1855 414.485 77.0879 414.485 78.3242C414.485 79.5781 414.726 80.4893 415.206 81.0576C415.687 81.626 416.313 81.9102 417.087 81.9102C417.708 81.9102 418.227 81.7197 418.643 81.3389C419.059 80.958 419.322 80.3721 419.434 79.5811ZM421.49 73.666H429.075V74.9756H426.069V83H424.496V74.9756H421.49V73.666ZM430.596 73.666H434.243C435.14 73.666 435.805 73.7422 436.238 73.8945C436.678 74.041 437.053 74.3135 437.363 74.7119C437.68 75.1104 437.838 75.5879 437.838 76.1445C437.838 76.5898 437.744 76.9795 437.557 77.3135C437.375 77.6416 437.1 77.917 436.73 78.1396C437.17 78.2861 437.533 78.5615 437.82 78.9658C438.113 79.3643 438.26 79.8389 438.26 80.3896C438.201 81.2744 437.885 81.9307 437.311 82.3584C436.736 82.7861 435.901 83 434.806 83H430.596V73.666ZM432.178 77.5947H433.865C434.539 77.5947 435.002 77.5596 435.254 77.4893C435.506 77.4189 435.731 77.2783 435.931 77.0674C436.13 76.8506 436.229 76.5928 436.229 76.2939C436.229 75.8018 436.054 75.459 435.702 75.2656C435.356 75.0723 434.762 74.9756 433.918 74.9756H432.178V77.5947ZM432.178 81.6992H434.261C435.157 81.6992 435.772 81.5967 436.106 81.3916C436.44 81.1807 436.616 80.8203 436.634 80.3105C436.634 80.0117 436.537 79.7363 436.344 79.4844C436.15 79.2266 435.898 79.0654 435.588 79.001C435.277 78.9307 434.779 78.8955 434.094 78.8955H432.178V81.6992ZM439.675 86.5947L439.499 85.1094C439.845 85.2031 440.146 85.25 440.404 85.25C440.756 85.25 441.037 85.1914 441.248 85.0742C441.459 84.957 441.632 84.793 441.767 84.582C441.866 84.4238 442.027 84.0312 442.25 83.4043C442.279 83.3164 442.326 83.1875 442.391 83.0176L438.849 73.666H440.554L442.496 79.0713C442.748 79.7568 442.974 80.4775 443.173 81.2334C443.354 80.5068 443.571 79.7979 443.823 79.1064L445.818 73.666H447.4L443.85 83.1582C443.469 84.1836 443.173 84.8896 442.962 85.2764C442.681 85.7979 442.358 86.1787 441.995 86.4189C441.632 86.665 441.198 86.7881 440.694 86.7881C440.39 86.7881 440.05 86.7236 439.675 86.5947ZM453.14 79.1328V77.542H458V79.1328H453.14ZM464.803 73.666H467.264L469.716 81.1367L472.44 73.666H474.717V83H473.135V75.4854L470.375 83H468.96L466.35 75.125V83H464.803V73.666ZM486.02 73.666H487.602V83H486.02V73.666ZM477.169 73.666H478.751V77.3135H480.755C482.062 77.3135 483.066 77.5684 483.77 78.0781C484.479 78.582 484.833 79.2793 484.833 80.1699C484.833 80.9492 484.537 81.6172 483.945 82.1738C483.359 82.7246 482.419 83 481.124 83H477.169V73.666ZM478.751 81.6992H480.412C481.414 81.6992 482.129 81.5762 482.557 81.3301C482.984 81.084 483.198 80.7002 483.198 80.1787C483.198 79.7744 483.04 79.4141 482.724 79.0977C482.407 78.7812 481.707 78.623 480.623 78.623H478.751V81.6992ZM495.09 73.666H502.455V83H500.873V74.9756H496.672V83H495.09V73.666ZM504.837 86.5771V73.666H506.278V74.8789C506.618 74.4043 507.002 74.0498 507.43 73.8154C507.857 73.5752 508.376 73.4551 508.985 73.4551C509.782 73.4551 510.485 73.6602 511.095 74.0703C511.704 74.4805 512.164 75.0605 512.475 75.8105C512.785 76.5547 512.94 77.3721 512.94 78.2627C512.94 79.2178 512.768 80.0791 512.422 80.8467C512.082 81.6084 511.584 82.1943 510.928 82.6045C510.277 83.0088 509.592 83.2109 508.871 83.2109C508.344 83.2109 507.869 83.0996 507.447 82.877C507.031 82.6543 506.688 82.373 506.419 82.0332V86.5771H504.837ZM506.27 78.3857C506.27 79.5869 506.513 80.4746 506.999 81.0488C507.485 81.623 508.074 81.9102 508.766 81.9102C509.469 81.9102 510.069 81.6143 510.567 81.0225C511.071 80.4248 511.323 79.502 511.323 78.2539C511.323 77.0645 511.077 76.1738 510.585 75.582C510.099 74.9902 509.516 74.6943 508.836 74.6943C508.162 74.6943 507.564 75.0107 507.043 75.6436C506.527 76.2705 506.27 77.1846 506.27 78.3857ZM521.246 79.9941L522.881 80.1963C522.623 81.1514 522.146 81.8926 521.448 82.4199C520.751 82.9473 519.86 83.2109 518.776 83.2109C517.411 83.2109 516.327 82.792 515.524 81.9541C514.728 81.1104 514.329 79.9297 514.329 78.4121C514.329 76.8418 514.733 75.623 515.542 74.7559C516.351 73.8887 517.399 73.4551 518.688 73.4551C519.937 73.4551 520.956 73.8799 521.747 74.7295C522.538 75.5791 522.934 76.7744 522.934 78.3154C522.934 78.4092 522.931 78.5498 522.925 78.7373H515.964C516.022 79.7627 516.312 80.5479 516.834 81.0928C517.355 81.6377 518.006 81.9102 518.785 81.9102C519.365 81.9102 519.86 81.7578 520.271 81.4531C520.681 81.1484 521.006 80.6621 521.246 79.9941ZM516.052 77.4365H521.264C521.193 76.6514 520.994 76.0625 520.666 75.6699C520.162 75.0605 519.509 74.7559 518.706 74.7559C517.979 74.7559 517.367 74.999 516.869 75.4854C516.377 75.9717 516.104 76.6221 516.052 77.4365ZM524.885 73.666H528.532C529.429 73.666 530.094 73.7422 530.527 73.8945C530.967 74.041 531.342 74.3135 531.652 74.7119C531.969 75.1104 532.127 75.5879 532.127 76.1445C532.127 76.5898 532.033 76.9795 531.846 77.3135C531.664 77.6416 531.389 77.917 531.02 78.1396C531.459 78.2861 531.822 78.5615 532.109 78.9658C532.402 79.3643 532.549 79.8389 532.549 80.3896C532.49 81.2744 532.174 81.9307 531.6 82.3584C531.025 82.7861 530.19 83 529.095 83H524.885V73.666ZM526.467 77.5947H528.154C528.828 77.5947 529.291 77.5596 529.543 77.4893C529.795 77.4189 530.021 77.2783 530.22 77.0674C530.419 76.8506 530.519 76.5928 530.519 76.2939C530.519 75.8018 530.343 75.459 529.991 75.2656C529.646 75.0723 529.051 74.9756 528.207 74.9756H526.467V77.5947ZM526.467 81.6992H528.55C529.446 81.6992 530.062 81.5967 530.396 81.3916C530.729 81.1807 530.905 80.8203 530.923 80.3105C530.923 80.0117 530.826 79.7363 530.633 79.4844C530.439 79.2266 530.188 79.0654 529.877 79.001C529.566 78.9307 529.068 78.8955 528.383 78.8955H526.467V81.6992ZM536.293 78.7812V77.542C536.961 77.5361 537.415 77.5098 537.655 77.4629C537.901 77.416 538.133 77.2754 538.35 77.041C538.566 76.8066 538.675 76.5137 538.675 76.1621C538.675 75.7344 538.531 75.3945 538.244 75.1426C537.963 74.8848 537.597 74.7559 537.146 74.7559C536.255 74.7559 535.631 75.2803 535.273 76.3291L533.771 76.083C534.239 74.3311 535.37 73.4551 537.163 73.4551C538.159 73.4551 538.938 73.7275 539.501 74.2725C540.069 74.8174 540.354 75.4678 540.354 76.2236C540.354 76.9854 539.984 77.5918 539.246 78.043C539.715 78.2949 540.066 78.6172 540.301 79.0098C540.535 79.3965 540.652 79.8564 540.652 80.3896C540.652 81.2275 540.348 81.9072 539.738 82.4287C539.129 82.9502 538.276 83.2109 537.181 83.2109C535.054 83.2109 533.82 82.2646 533.48 80.3721L534.966 80.0557C535.101 80.6533 535.373 81.1162 535.783 81.4443C536.199 81.7725 536.674 81.9365 537.207 81.9365C537.74 81.9365 538.183 81.7871 538.534 81.4883C538.892 81.1836 539.07 80.7969 539.07 80.3281C539.07 79.9648 538.959 79.6484 538.736 79.3789C538.514 79.1094 538.276 78.9424 538.024 78.8779C537.772 78.8076 537.315 78.7725 536.653 78.7725C536.601 78.7725 536.48 78.7754 536.293 78.7812ZM541.689 78.333C541.689 76.6045 542.17 75.3242 543.131 74.4922C543.934 73.8008 544.912 73.4551 546.066 73.4551C547.35 73.4551 548.398 73.877 549.213 74.7207C550.027 75.5586 550.435 76.7188 550.435 78.2012C550.435 79.4023 550.253 80.3486 549.89 81.04C549.532 81.7256 549.008 82.2588 548.316 82.6396C547.631 83.0205 546.881 83.2109 546.066 83.2109C544.76 83.2109 543.702 82.792 542.894 81.9541C542.091 81.1162 541.689 79.9092 541.689 78.333ZM543.315 78.333C543.315 79.5283 543.576 80.4248 544.098 81.0225C544.619 81.6143 545.275 81.9102 546.066 81.9102C546.852 81.9102 547.505 81.6113 548.026 81.0137C548.548 80.416 548.809 79.5049 548.809 78.2803C548.809 77.126 548.545 76.2529 548.018 75.6611C547.496 75.0635 546.846 74.7646 546.066 74.7646C545.275 74.7646 544.619 75.0605 544.098 75.6523C543.576 76.2441 543.315 77.1377 543.315 78.333ZM552.351 73.666H553.933V81.6904H557.536V73.666H559.118V81.6904H562.73V73.666H564.304V83H552.351V73.666ZM567.521 73.666H574.868V83H573.295V74.9756H569.103V79.625C569.103 80.709 569.067 81.4238 568.997 81.7695C568.927 82.1152 568.733 82.417 568.417 82.6748C568.101 82.9326 567.644 83.0615 567.046 83.0615C566.677 83.0615 566.252 83.0381 565.771 82.9912V81.6729H566.466C566.794 81.6729 567.028 81.6406 567.169 81.5762C567.31 81.5059 567.403 81.3975 567.45 81.251C567.497 81.1045 567.521 80.627 567.521 79.8184V73.666ZM577.259 73.666H578.841V80.7852L583.227 73.666H584.932V83H583.35V75.9248L578.964 83H577.259V73.666ZM598.713 79.9941L600.348 80.1963C600.09 81.1514 599.612 81.8926 598.915 82.4199C598.218 82.9473 597.327 83.2109 596.243 83.2109C594.878 83.2109 593.794 82.792 592.991 81.9541C592.194 81.1104 591.796 79.9297 591.796 78.4121C591.796 76.8418 592.2 75.623 593.009 74.7559C593.817 73.8887 594.866 73.4551 596.155 73.4551C597.403 73.4551 598.423 73.8799 599.214 74.7295C600.005 75.5791 600.4 76.7744 600.4 78.3154C600.4 78.4092 600.397 78.5498 600.392 78.7373H593.431C593.489 79.7627 593.779 80.5479 594.301 81.0928C594.822 81.6377 595.473 81.9102 596.252 81.9102C596.832 81.9102 597.327 81.7578 597.737 81.4531C598.147 81.1484 598.473 80.6621 598.713 79.9941ZM593.519 77.4365H598.73C598.66 76.6514 598.461 76.0625 598.133 75.6699C597.629 75.0605 596.976 74.7559 596.173 74.7559C595.446 74.7559 594.834 74.999 594.336 75.4854C593.844 75.9717 593.571 76.6221 593.519 77.4365ZM602.352 73.666H607.722V74.9756H603.934V83H602.352V73.666ZM607.924 78.333C607.924 76.6045 608.404 75.3242 609.365 74.4922C610.168 73.8008 611.146 73.4551 612.301 73.4551C613.584 73.4551 614.633 73.877 615.447 74.7207C616.262 75.5586 616.669 76.7188 616.669 78.2012C616.669 79.4023 616.487 80.3486 616.124 81.04C615.767 81.7256 615.242 82.2588 614.551 82.6396C613.865 83.0205 613.115 83.2109 612.301 83.2109C610.994 83.2109 609.937 82.792 609.128 81.9541C608.325 81.1162 607.924 79.9092 607.924 78.333ZM609.55 78.333C609.55 79.5283 609.811 80.4248 610.332 81.0225C610.854 81.6143 611.51 81.9102 612.301 81.9102C613.086 81.9102 613.739 81.6113 614.261 81.0137C614.782 80.416 615.043 79.5049 615.043 78.2803C615.043 77.126 614.779 76.2529 614.252 75.6611C613.73 75.0635 613.08 74.7646 612.301 74.7646C611.51 74.7646 610.854 75.0605 610.332 75.6523C609.811 76.2441 609.55 77.1377 609.55 78.333ZM619.376 79.8008L618.893 72.9717V70.1152H620.853V72.9717L620.396 79.8008H619.376ZM618.963 83V81.1982H620.782V83H618.963Z" fill="#2E2E2E"/>
</svg>
