<svg width="46" height="46" fill="none" xmlns="http://www.w3.org/2000/svg"><path d="M38.333 3.834h-23A3.845 3.845 0 0011.5 7.667v23a3.845 3.845 0 003.833 3.834h23a3.845 3.845 0 003.834-3.834v-23a3.845 3.845 0 00-3.834-3.833zM22.042 18.209a2.871 2.871 0 01-2.875 2.875H17.25v3.833h-2.875v-11.5h4.792a2.871 2.871 0 012.875 2.875v1.917zm9.583 3.833a2.871 2.871 0 01-2.875 2.875h-4.792v-11.5h4.792a2.871 2.871 0 012.875 2.875v5.75zm7.667-5.75h-2.875v1.917h2.875v2.875h-2.875v3.833h-2.875v-11.5h5.75v2.875zM17.25 18.21h1.917v-1.917H17.25v1.917zm-9.583-6.708H3.833v26.833a3.845 3.845 0 003.834 3.833H34.5v-3.833H7.667V11.501zm19.166 10.541h1.917v-5.75h-1.917v5.75z" fill="#fff"/></svg>