<svg width="50" height="50" fill="none" xmlns="http://www.w3.org/2000/svg"><path d="M39.844 8.594v1.676a2.226 2.226 0 00-1.563 2.116c0 .85.472 1.613 1.233 1.995l1.523.761a.668.668 0 01-.298 1.264h-.228a.668.668 0 01-.667-.667v-.895H38.28v.895c0 .996.66 1.831 1.563 2.116v1.676h1.562v-1.675a2.226 2.226 0 001.563-2.117 2.22 2.22 0 00-1.233-1.995l-1.523-.761a.668.668 0 01.298-1.264h.228c.368 0 .667.3.667.667v.114h1.563v-.114c0-.996-.66-1.831-1.563-2.116V8.594h-1.562z" fill="#333"/><path d="M45.156 43.438a10.207 10.207 0 00-3.75-1.751v-19.07c4.374-.397 7.813-4.08 7.813-8.555 0-4.474-3.44-8.157-7.813-8.553V.78h-37.5v40.704a3.913 3.913 0 00-3.125 3.828 3.91 3.91 0 003.906 3.906h34.376a10.22 10.22 0 006.093-2.032c.371-.278.633-.665.786-1.093h3.277V44.53h-3.277a2.325 2.325 0 00-.786-1.093zm2.5-29.376a7.04 7.04 0 01-7.031 7.032 7.04 7.04 0 01-7.031-7.032 7.04 7.04 0 017.031-7.03 7.04 7.04 0 017.031 7.03zM39.844 2.345V5.51c-4.374.396-7.813 4.079-7.813 8.553 0 4.476 3.44 8.158 7.813 8.554v18.822c-.26-.02-.52-.032-.782-.032h-9.028c.27-.462.435-.99.435-1.562a3.128 3.128 0 00-3.125-3.125h-12.5a3.128 3.128 0 00-3.125 3.125v1.562h-6.25V2.344h34.375zm-12.5 39.062c-.862 0-1.563-.7-1.563-1.562H24.22c0 .572.165 1.1.434 1.562H13.281v-1.562c0-.862.701-1.563 1.563-1.563h12.5a1.564 1.564 0 010 3.125zm9.375 1.563v4.687H14.844V42.97h21.875zM2.344 45.312a2.347 2.347 0 012.344-2.343h8.593v4.687H4.687a2.347 2.347 0 01-2.343-2.343zm41.875.626a8.644 8.644 0 01-5.157 1.718h-.78V42.97h.78c1.848 0 3.68.61 5.157 1.72a.783.783 0 010 1.248z" fill="#333"/><path d="M27.344 3.906H7.03v10.938h20.313V3.906zm-1.563 9.375H8.594V5.47H25.78v7.812zm0 9.375H7.031v12.5h18.75v-12.5zm-1.562 3.125H19.53V24.22h4.688v1.562zM13.28 27.344v6.25h-1.56v-6.25h1.562zm1.563 0h3.125v6.25h-3.125v-6.25zm0-1.563V24.22h3.125v1.562h-3.125zm4.687 1.563h1.563v6.25H19.53v-6.25zm-6.25-3.125v1.562H8.594V24.22h4.687zm-4.687 3.125h1.562v6.25H8.594v-6.25zm14.062 6.25v-6.25h1.563v6.25h-1.563zM7.031 16.406h1.563v1.563H7.03v-1.563zm3.125 0h17.188v1.563H10.156v-1.563zm-3.125 3.125h20.313v1.563H7.03V19.53zm20.313 4.688H38.28v1.562H27.344V24.22zm0 3.125H38.28v1.562H27.344v-1.562zm0 3.125h1.562v1.562h-1.562V30.47zm3.125 0h7.812v1.562H30.47V30.47zm-3.125 3.125H38.28v1.562H27.344v-1.562z" fill="#333"/></svg>