<svg width="50" height="50" fill="none" xmlns="http://www.w3.org/2000/svg"><path d="M49.219 40.625a2.347 2.347 0 00-2.344-2.344h-12.5c-.371 0-.718.095-1.03.25.154-.313.249-.66.249-1.031v-1.563a2.347 2.347 0 00-2.344-2.343h-12.5c-.371 0-.718.094-1.03.249.154-.313.249-.66.249-1.03V31.25c0-.602-.235-1.147-.61-1.563.375-.415.61-.96.61-1.562v-1.37c5.422-1.671 9.375-6.728 9.375-12.692 0-1.36-.207-2.67-.588-3.907h8.4A2.347 2.347 0 0137.5 12.5v13.281h-1.12a2.007 2.007 0 00-1.72 3.036l4.112 6.852a2.173 2.173 0 001.853 1.05c.755 0 1.465-.403 1.853-1.05l4.112-6.852a2.006 2.006 0 00-1.72-3.036h-1.12V10.938c0-3.877-3.155-7.032-7.031-7.032H22.603a13.213 13.213 0 00-8.54-3.125C6.739.781.78 6.74.78 14.062c0 4.072 1.846 7.719 4.74 10.157H3.126a2.347 2.347 0 00-2.344 2.343v1.563c0 .602.235 1.147.61 1.563-.375.415-.61.96-.61 1.562v1.563c0 .602.235 1.146.61 1.562-.375.416-.61.96-.61 1.563V37.5c0 .602.235 1.147.61 1.563-.375.415-.61.96-.61 1.562v1.563c0 .602.235 1.146.61 1.562-.375.416-.61.96-.61 1.563v1.562a2.347 2.347 0 002.344 2.344h12.5c.602 0 1.147-.235 1.563-.61.415.375.96.61 1.562.61h12.5c.602 0 1.147-.235 1.563-.61.415.375.96.61 1.562.61h12.5a2.347 2.347 0 002.344-2.344v-1.563c0-.602-.235-1.146-.61-1.562.375-.416.61-.96.61-1.563v-1.562zm-14.844-.781h.781v1.562h1.563v-1.562h1.562v1.562h1.563v-1.562h1.562v1.562h1.563v-1.562h1.562v1.562h1.563v-1.562h.781c.43 0 .781.35.781.781v1.563c0 .43-.35.78-.781.78h-12.5a.782.782 0 01-.781-.78v-1.563c0-.43.35-.781.781-.781zM18.75 42.969a.782.782 0 01-.781-.782v-1.562c0-.43.35-.781.781-.781h.781v1.562h1.563v-1.562h1.562v1.562h1.563v-1.562h1.562v1.562h1.563v-1.562h1.562v1.562h1.563v-1.562h.781c.43 0 .781.35.781.781v1.563c0 .43-.35.78-.781.78h-12.5zm-15.625 0a.783.783 0 01-.781-.782v-1.562c0-.43.35-.781.781-.781h.781v1.562H5.47v-1.562h1.56v1.562h1.563v-1.562h1.562v1.562h1.563v-1.562h1.562v1.562h1.563v-1.562h.781c.43 0 .781.35.781.781v1.563c0 .43-.35.78-.781.78h-12.5zM2.344 37.5v-1.563c0-.43.35-.78.781-.78h.781v1.562H5.47v-1.563h1.56v1.563h1.563v-1.563h1.562v1.563h1.563v-1.563h1.562v1.563h1.563v-1.563h.781c.43 0 .781.351.781.782V37.5c0 .43-.35.781-.781.781h-12.5a.782.782 0 01-.781-.781zm0-4.688V31.25c0-.43.35-.781.781-.781h.781v1.562H5.47V30.47h1.56v1.562h1.563V30.47h1.562v1.562h1.563V30.47h1.562v1.562h1.563V30.47h.781c.43 0 .781.35.781.781v1.563c0 .43-.35.78-.781.78h-12.5a.783.783 0 01-.781-.78zm16.406 2.344h.781v1.563h1.563v-1.563h1.562v1.563h1.563v-1.563h1.562v1.563h1.563v-1.563h1.562v1.563h1.563v-1.563h.781c.43 0 .781.351.781.782V37.5c0 .43-.35.781-.781.781h-12.5a.782.782 0 01-.781-.781v-1.563c0-.43.35-.78.781-.78zm23.438-24.218v16.406h2.682a.443.443 0 01.38.67l-4.112 6.852c-.215.358-.811.358-1.026 0L36 28.014a.443.443 0 01.379-.67h2.682V12.5a3.91 3.91 0 00-3.906-3.906h-9.004a13.298 13.298 0 00-1.982-3.125H36.72a5.475 5.475 0 015.468 5.468zM2.343 14.062c0-6.461 5.257-11.718 11.719-11.718 6.461 0 11.718 5.257 11.718 11.719 0 6.461-5.257 11.718-11.718 11.718-6.462 0-11.72-5.257-11.72-11.718zm0 12.5c0-.43.35-.78.781-.78h.781v1.562H5.47V25.78h1.56v1.563h1.563v-1.192a13.186 13.186 0 005.469 1.192c.8 0 1.58-.084 2.343-.22v1.001c0 .43-.35.781-.781.781h-12.5a.782.782 0 01-.781-.781v-1.563zm13.281 21.094h-12.5a.782.782 0 01-.781-.781v-1.563c0-.43.35-.78.781-.78h.781v1.562H5.47V44.53h1.56v1.563h1.563V44.53h1.562v1.563h1.563V44.53h1.562v1.563h1.563V44.53h.781c.43 0 .781.351.781.782v1.562c0 .43-.35.781-.781.781zm15.625 0h-12.5a.782.782 0 01-.781-.781v-1.563c0-.43.35-.78.781-.78h.781v1.562h1.563V44.53h1.562v1.563h1.563V44.53h1.562v1.563h1.563V44.53h1.562v1.563h1.563V44.53h.781c.43 0 .781.351.781.782v1.562c0 .43-.35.781-.781.781zm16.406-.781c0 .43-.35.781-.781.781h-12.5a.782.782 0 01-.781-.781v-1.563c0-.43.35-.78.781-.78h.781v1.562h1.563V44.53h1.562v1.563h1.563V44.53h1.562v1.563h1.563V44.53h1.562v1.563h1.563V44.53h.781c.43 0 .781.351.781.782v1.562z" fill="#333"/><path d="M13.281 19.44v1.654h1.563V19.44a3.05 3.05 0 002.344-2.96 3.047 3.047 0 00-2.086-2.895l-1.583-.528a1.485 1.485 0 01-1.019-1.412c0-.82.668-1.489 1.49-1.489h.146a1.49 1.49 0 011.489 1.49v.073l1.563-.074a3.05 3.05 0 00-2.344-2.96V7.031H13.28v1.654a3.05 3.05 0 00-2.344 2.96 3.05 3.05 0 002.086 2.895l1.583.528a1.49 1.49 0 01-.47 2.9h-.147A1.49 1.49 0 0112.5 16.48v-.855h-1.563v.855a3.05 3.05 0 002.344 2.96z" fill="#333"/><path d="M14.063 24.219c5.6 0 10.156-4.556 10.156-10.157 0-5.6-4.556-10.156-10.157-10.156-5.6 0-10.156 4.556-10.156 10.156 0 5.6 4.556 10.157 10.156 10.157zm0-18.75c4.738 0 8.593 3.855 8.593 8.593 0 4.739-3.855 8.594-8.593 8.594-4.739 0-8.594-3.855-8.594-8.593 0-4.739 3.855-8.594 8.593-8.594z" fill="#333"/></svg>