<svg width="60" height="60" fill="none" xmlns="http://www.w3.org/2000/svg"><path d="M10.313 30.802v2.01h1.874v-2.01a2.67 2.67 0 001.876-2.54c0-1.02-.567-1.937-1.48-2.394l-1.828-.913a.801.801 0 01.358-1.518h.274c.441 0 .8.36.8.801v.137h1.876v-.137a2.671 2.671 0 00-1.876-2.54v-2.01h-1.874v2.01a2.671 2.671 0 00-1.876 2.54c0 1.02.567 1.937 1.48 2.394l1.828.913a.801.801 0 01-.358 1.518h-.274c-.441 0-.8-.36-.8-.801v-1.075H8.437v1.075a2.67 2.67 0 001.876 2.54z" fill="#333"/><path d="M11.25 36.563c5.686 0 10.313-4.627 10.313-10.313 0-.257-.02-.51-.039-.762l3.18-.53a3.75 3.75 0 003.421 2.23 3.754 3.754 0 003.75-3.75c0-.342-.06-.666-.146-.98l6.839-3.909c.681.7 1.63 1.139 2.682 1.139a3.754 3.754 0 003.75-3.75 3.7 3.7 0 00-.532-1.893l9.907-9.907v5.237h1.875V.937h-8.438v1.875h5.237l-9.906 9.907a3.7 3.7 0 00-1.893-.531 3.754 3.754 0 00-3.75 3.75c0 .34.06.665.146.98l-6.839 3.908a3.732 3.732 0 00-2.682-1.139c-1.955 0-3.546 1.509-3.716 3.42l-3.194.532c-1.16-4.424-5.182-7.701-9.965-7.701C5.564 15.938.937 20.564.937 26.25c0 5.686 4.627 10.313 10.313 10.313zm30-22.5a1.876 1.876 0 010 3.75 1.877 1.877 0 01-1.875-1.875c0-1.035.84-1.876 1.875-1.876zm-13.125 7.5c1.034 0 1.875.84 1.875 1.875 0 1.034-.84 1.875-1.875 1.875a1.877 1.877 0 01-1.875-1.875c0-1.035.84-1.875 1.875-1.875zm-16.875-3.75c4.652 0 8.438 3.785 8.438 8.437 0 4.652-3.786 8.438-8.438 8.438-4.652 0-8.438-3.786-8.438-8.438 0-4.652 3.786-8.438 8.438-8.438zm-8.437 41.25h9.374V38.436H2.813v20.626zm1.874-18.75h5.625v16.874H4.689V40.314zm9.376 18.75h9.374v-18.75h-9.375v18.75zm1.874-16.876h5.626v15h-5.625v-15z" fill="#333"/><path d="M25.313 59.063h9.375v-30h-9.376v30zm1.875-28.126h5.625v26.25h-5.626v-26.25zm23.437 13.261v-2.01H48.75v2.01a2.671 2.671 0 00-1.875 2.54c0 1.02.566 1.936 1.48 2.394l1.828.914a.802.802 0 01-.358 1.517h-.274a.802.802 0 01-.801-.801v-1.075h-1.875v1.075a2.67 2.67 0 001.875 2.54v2.01h1.875v-2.01a2.67 2.67 0 001.875-2.54c0-1.02-.566-1.936-1.48-2.394l-1.828-.914a.802.802 0 01.358-1.517h.274c.442 0 .801.36.801.801v.137H52.5v-.137a2.671 2.671 0 00-1.875-2.54z" fill="#333"/><path d="M57.638 44.326l-3.184-5.094 1.666-5.83a3.408 3.408 0 00-3.274-4.339H50.28a3.395 3.395 0 00-3.024 1.875h-1.319v-9.375h-9.374v37.5h13.124c5.17 0 9.376-4.206 9.376-9.376v-.392c0-1.76-.494-3.477-1.425-4.97zM48.75 32.468c0-.844.686-1.53 1.53-1.53h2.565a1.532 1.532 0 011.47 1.95l-1.584 5.55h-6.405l-2.7-2.7a1.716 1.716 0 011.213-2.926h2.036v1.876h1.875v-2.22zm-10.313 24.72v-33.75h5.626v7.59a3.592 3.592 0 00-2.813 3.498c0 .96.373 1.86 1.052 2.538l2.446 2.446-3.01 4.816a9.36 9.36 0 00-1.425 4.969v.392c0 3.069 1.488 5.79 3.774 7.5h-5.65zm18.75-7.5c0 4.135-3.364 7.5-7.5 7.5-4.135 0-7.5-3.365-7.5-7.5v-.393c0-1.407.394-2.782 1.14-3.974l3.13-5.008h6.461l3.13 5.008a7.483 7.483 0 011.14 3.974v.392z" fill="#333"/></svg>