<svg width="50" height="50" fill="none" xmlns="http://www.w3.org/2000/svg"><path d="M25.781 33.707v-1.676H24.22v1.676a2.226 2.226 0 00-1.563 2.116c0 .85.472 1.614 1.233 1.995l1.524.762a.668.668 0 01-.298 1.264h-.23a.668.668 0 01-.666-.667v-.896h-1.563v.896c0 .996.66 1.83 1.563 2.116v1.676h1.562v-1.676a2.226 2.226 0 001.563-2.116 2.22 2.22 0 00-1.233-1.995l-1.524-.762a.668.668 0 01.298-1.264h.23c.367 0 .666.3.666.667v.114h1.563v-.114c0-.995-.66-1.83-1.563-2.116z" fill="#333"/><path d="M25 28.906c-4.738 0-8.594 3.856-8.594 8.594 0 4.738 3.856 8.594 8.594 8.594 4.738 0 8.594-3.856 8.594-8.594 0-4.738-3.856-8.594-8.594-8.594zm0 15.625a7.04 7.04 0 01-7.031-7.031A7.04 7.04 0 0125 30.469a7.04 7.04 0 017.031 7.031A7.04 7.04 0 0125 44.531z" fill="#333"/><path d="M49.219 21.094v-4.309L28.288 1.835c-1.931-1.38-4.646-1.38-6.576 0L.782 16.785v4.309h3.124v3.125h-.781a2.347 2.347 0 00-2.344 2.343v1.563a2.34 2.34 0 001.735 2.253c-.109.27-.172.563-.172.872v1.563c0 .308.063.601.172.871A2.34 2.34 0 00.78 35.938V37.5a2.34 2.34 0 001.735 2.253c-.109.27-.172.563-.172.872v1.563c0 .308.063.601.172.871A2.34 2.34 0 00.78 45.313v1.562a2.347 2.347 0 002.344 2.344h12.5a2.347 2.347 0 002.344-2.344v-.022A11.641 11.641 0 0025 49.22c2.046 0 3.97-.53 5.646-1.456a2.345 2.345 0 002.166 1.456h12.5a2.347 2.347 0 002.344-2.344v-1.563a2.32 2.32 0 00-.172-.871 2.34 2.34 0 001.735-2.254v-1.562a2.34 2.34 0 00-1.735-2.253c.109-.27.172-.563.172-.872v-1.563a2.32 2.32 0 00-.172-.871 2.34 2.34 0 001.735-2.254V31.25a2.34 2.34 0 00-1.735-2.253c.109-.27.172-.563.172-.872v-1.563a2.34 2.34 0 00-1.562-2.2v-3.268h3.125zM22.62 3.106c1.397-.996 3.364-.996 4.76 0L46 16.406h-2.688L26.472 4.38a2.568 2.568 0 00-2.944 0L6.69 16.405H4l18.62-13.3zm18.003 13.3H9.377l15.06-10.758a.985.985 0 011.127.001l15.06 10.757zM2.343 17.97h45.313v1.562H2.344V17.97zm0 8.593c0-.43.352-.78.782-.78h.781v1.562H5.47V25.78h1.56v1.563h1.563V25.78h1.562v1.563h1.563V25.78h1.562v1.563h1.563V25.78h.781c.43 0 .781.35.781.782v1.562c0 .431-.35.781-.781.781h-12.5a.782.782 0 01-.781-.781v-1.563zM4.689 42.97a.782.782 0 01-.782-.782v-1.562c0-.431.351-.781.781-.781h.782v1.562h1.56v-1.562h1.563v1.562h1.562v-1.562h1.563v1.562h1.562v-1.562h.236a11.64 11.64 0 001.126 3.125H4.687zm9.277-9.375H4.688a.782.782 0 01-.782-.782V31.25c0-.431.351-.781.781-.781h.782v1.562H7.03V30.47h1.563v1.562h1.562V30.47h1.563v1.562h1.562V30.47h1.563v1.21c-.35.606-.642 1.247-.88 1.915zM2.344 35.937c0-.43.35-.78.781-.78h.781v1.562H5.47v-1.563h1.56v1.563h1.563v-1.563h1.562v1.563h1.563v-1.563h1.562v1.563h.04c-.017.26-.04.517-.04.781s.023.522.04.781H3.125a.782.782 0 01-.781-.781v-1.563zm13.281 11.72h-12.5a.782.782 0 01-.781-.782v-1.563c0-.43.35-.78.781-.78h.781v1.562H5.47V44.53h1.56v1.563h1.563V44.53h1.562v1.563h1.563V44.53h1.562v1.563h1.563V44.53h.781c.007 0 .018.005.026.005.233.31.481.607.744.891l.011 1.448c0 .431-.35.781-.781.781zM14.844 37.5c0-5.6 4.556-10.156 10.156-10.156 5.6 0 10.156 4.556 10.156 10.156 0 5.6-4.556 10.156-10.156 10.156-5.6 0-10.156-4.556-10.156-10.156zm17.187-9.375v-1.563c0-.43.351-.78.782-.78h.78v1.562h1.563V25.78h1.563v1.563h1.562V25.78h1.563v1.563h1.562V25.78h1.563v1.563h1.562V25.78h.782c.43 0 .78.35.78.782v1.562c0 .431-.35.781-.78.781l-12.378-.004a11.819 11.819 0 00-.9-.751c0-.008-.004-.019-.004-.026zm2.322 2.344h.803v1.21a11.841 11.841 0 00-.803-1.21zm11.74 16.406c0 .431-.35.781-.78.781h-12.5a.782.782 0 01-.782-.781v-.022a11.804 11.804 0 001.563-1.412v.653h1.562V44.53h1.563v1.563h1.562V44.53h1.563v1.563h1.562V44.53h1.563v1.563h1.562V44.53h.782c.43 0 .78.35.78.782v1.562zm1.563-4.688c0 .432-.35.782-.781.782H35.356c.514-.97.901-2.018 1.126-3.125h1.8v1.562h1.562v-1.562h1.562v1.562h1.563v-1.562h1.562v1.562h1.563v-1.562h.781c.43 0 .781.35.781.781v1.563zm-9.375-5.468v-1.563h1.563v1.563h1.562v-1.563h1.563v1.563h1.562v-1.563h.782c.43 0 .78.35.78.782V37.5c0 .431-.35.781-.78.781h-8.634c.017-.26.04-.517.04-.781 0-.802-.082-1.586-.236-2.344h.236v1.563h1.562zm9.375-3.907c0 .432-.35.782-.781.782h-10.84a11.624 11.624 0 00-.678-1.563h1.362V30.47h1.562v1.562h1.563V30.47h1.562v1.562h1.563V30.47h1.562v1.562h1.563V30.47h.781c.43 0 .781.35.781.781v1.563zm-3.125-8.593H32.813a2.347 2.347 0 00-2.344 2.343v.582a11.641 11.641 0 00-12.503 1.005c0-.008.003-.015.003-.024v-1.563a2.347 2.347 0 00-2.344-2.343H5.469v-3.125H44.53v3.125z" fill="#333"/><path d="M21.32 14.293l6.248-6.25 1.105 1.105-6.25 6.25-1.104-1.105zm5.243.551a.781.781 0 100-1.563.781.781 0 000 1.563zm-3.125-4.688a.781.781 0 100-1.562.781.781 0 000 1.562z" fill="#333"/></svg>