<svg width="50" height="50" fill="none" xmlns="http://www.w3.org/2000/svg"><path d="M14.844 31.176a3.052 3.052 0 00-2.344-2.96v-1.654h-1.563v1.654a3.05 3.05 0 00-2.343 2.96c0 1.316.838 2.48 2.086 2.895l1.582.528a1.487 1.487 0 01-.47 2.901h-.147a1.49 1.49 0 01-1.489-1.488v-.856H8.594v.856a3.052 3.052 0 002.344 2.96v1.653H12.5v-1.654a3.05 3.05 0 002.344-2.96 3.047 3.047 0 00-2.086-2.895l-1.583-.528a1.485 1.485 0 01-1.019-1.412 1.49 1.49 0 011.49-1.488h.146a1.49 1.49 0 011.49 1.488v.074l1.562-.074z" fill="#333"/><path d="M46.875 27.344H20.09c-.082-.098-.156-.2-.242-.295l-3.393-3.77a2.34 2.34 0 001.514-2.185c0-.945-.564-1.755-1.37-2.126l1.261-4.415a2.84 2.84 0 00-2.728-3.616h-2.138a2.83 2.83 0 00-2.52 1.563H8.46a2.994 2.994 0 00-2.992 2.991c0 .799.31 1.55.876 2.115L7.52 18.78a2.339 2.339 0 00-2.05 2.314 2.34 2.34 0 001.514 2.184L3.589 27.05a10.921 10.921 0 00-2.808 7.326c0 6.031 4.907 10.938 10.938 10.938 1.679 0 3.264-.392 4.687-1.07v2.632a2.347 2.347 0 002.344 2.344h28.125a2.347 2.347 0 002.344-2.344V29.688a2.347 2.347 0 00-2.344-2.344zM7.031 15.49c0-.788.64-1.428 1.43-1.428h1.695v1.562h1.563v-1.85c0-.703.572-1.275 1.274-1.275h2.138a1.276 1.276 0 011.226 1.624l-1.321 4.626H9.698L7.45 16.502a1.42 1.42 0 01-.419-1.01zm.782 4.822h7.812a.782.782 0 010 1.562H7.812a.783.783 0 01-.78-.781c0-.43.35-.782.78-.782zm-5.47 14.053c0-2.32.855-4.547 2.408-6.271l4.19-4.657h5.554l4.192 4.657a9.364 9.364 0 012.407 6.28c0 5.17-4.206 9.375-9.375 9.375-5.17 0-9.375-4.206-9.375-9.384zm45.313 12.509c0 .431-.35.781-.781.781H18.75a.782.782 0 01-.781-.781v-3.538a11.011 11.011 0 001.562-1.323v.955H30.47v-1.563H20.084a10.919 10.919 0 002.312-4.687h25.26v10.156zm-25.035-13.28h25.035v1.562h-25.04c.02-.261.04-.523.04-.79 0-.259-.017-.516-.035-.772zm-.226-1.563a10.91 10.91 0 00-1.208-3.125h25.688c.43 0 .781.35.781.782v2.343H22.395z" fill="#333"/><path d="M39.844 46.094c.552 0 1.089-.154 1.565-.434.46.269.989.434 1.56.434a3.128 3.128 0 003.125-3.125 3.128 3.128 0 00-3.125-3.125c-.571 0-1.1.165-1.56.433a3.086 3.086 0 00-1.565-.433 3.128 3.128 0 00-3.125 3.125 3.128 3.128 0 003.125 3.125zm4.687-3.125a1.563 1.563 0 01-3.125 0c0-.862.701-1.563 1.563-1.563.861 0 1.562.701 1.562 1.563zm-4.687-1.563c.148 0 .28.025.402.06a3.086 3.086 0 00-.402 1.503c0 .547.154 1.055.402 1.503a1.48 1.48 0 01-.402.06c-.862 0-1.563-.701-1.563-1.563s.701-1.563 1.563-1.563zm-17.188 3.125h1.563v1.563h-1.563V44.53zm6.25 0h1.563v1.563h-1.563V44.53zm-9.375 0h1.563v1.563H19.53V44.53zm6.25 0h1.563v1.563H25.78V44.53zm16.407-18.75c3.876 0 7.03-3.154 7.03-7.031s-3.154-7.031-7.03-7.031c-3.877 0-7.032 3.154-7.032 7.031s3.155 7.031 7.032 7.031zm0-12.5a5.475 5.475 0 015.468 5.469 5.475 5.475 0 01-5.468 5.469 5.475 5.475 0 01-5.47-5.469 5.475 5.475 0 015.47-5.469zm-14.063 1.563c3.877 0 7.031-3.155 7.031-7.031 0-3.877-3.154-7.032-7.031-7.032s-7.031 3.155-7.031 7.032c0 3.876 3.154 7.03 7.031 7.03zm0-12.5a5.475 5.475 0 015.469 5.469 5.475 5.475 0 01-5.469 5.468 5.475 5.475 0 01-5.469-5.469 5.475 5.475 0 015.469-5.468z" fill="#333"/><path d="M40.396 21.646l1.791-1.791 1.792 1.791 1.105-1.105-1.792-1.791 1.792-1.791-1.105-1.105-1.791 1.791-1.792-1.791-1.105 1.105 1.792 1.791-1.792 1.791 1.105 1.105zM31.802 6.021l-1.104-1.105-4.136 4.136-1.01-1.01-1.104 1.104 2.114 2.115 5.24-5.24zm-2.896 10.385h-1.562v3.125H19.53v1.563h9.375v-4.688zm-9.375 6.25h14.844v1.563H19.531v-1.563z" fill="#333"/></svg>