<svg width="50" height="50" fill="none" xmlns="http://www.w3.org/2000/svg"><path d="M46.094 25a3.128 3.128 0 003.125-3.125 3.128 3.128 0 00-3.125-3.125c0-.862-.701-1.563-1.563-1.563h-1.373c-.824 0-1.628.334-2.21.916l-.646.647H29.48a.784.784 0 01-.773-.67l-.198-1.39a5.501 5.501 0 001.425-1.846h.535a3.128 3.128 0 003.125-3.124 3.11 3.11 0 00-.528-1.733c.34-.811.528-1.685.528-2.565a6.648 6.648 0 00-6.64-6.64h-3.907a6.648 6.648 0 00-6.64 6.64c0 .88.187 1.754.527 2.564a3.107 3.107 0 00-.528 1.733 3.128 3.128 0 003.125 3.125h.535c.34.713.826 1.343 1.425 1.845l-.198 1.39a.784.784 0 01-.773.671H9.698l-.646-.647a3.143 3.143 0 00-2.21-.916H5.47c-.862 0-1.563.701-1.563 1.563a3.128 3.128 0 00-3.125 3.125A3.128 3.128 0 003.906 25h6.065l-1.11 5.187c-3.336 1.182-5.736 4.36-5.736 8.094 0 4.739 3.855 8.594 8.594 8.594a8.53 8.53 0 005.469-1.96v4.304h6.05L25 43.344l1.762 5.875h6.05v-4.305a8.519 8.519 0 005.47 1.961c4.738 0 8.593-3.855 8.593-8.594 0-3.735-2.4-6.912-5.735-8.094L40.029 25h6.065zm-13.282 6.648V25.78c0-.43.35-.781.782-.781h2.94l-1.109 5.173a8.458 8.458 0 00-2.612 1.475zm.782-8.21a2.347 2.347 0 00-2.344 2.343v8.594c0 .43-.35.781-.781.781H19.53a.782.782 0 01-.781-.781v-8.594a2.347 2.347 0 00-2.344-2.343h-6.25v-3.125h9.742l1.554 6.215 1.707-1.708.251.377-.791 7.122L25 34.699l2.38-2.381-.79-7.122.25-.377 1.708 1.708 1.554-6.215h9.742v3.125h-6.25zM10.937 43.75v1.516a6.997 6.997 0 01-3.602-1.496l1.069-1.07-1.105-1.104-1.069 1.069a6.997 6.997 0 01-1.496-3.602H6.25V37.5H4.734a6.997 6.997 0 011.496-3.602l1.07 1.068 1.104-1.104-1.069-1.069a6.997 6.997 0 013.603-1.497v1.517H12.5v-1.519a6.937 6.937 0 013.606 1.495l-1.072 1.073 1.104 1.104 1.05-1.049v.458c0 .602.235 1.147.609 1.563-.375.415-.61.96-.61 1.562v5.145l-1.049-1.049-1.104 1.105 1.071 1.072a6.935 6.935 0 01-3.605 1.495V43.75h-1.563zm6.25-12.102a8.453 8.453 0 00-2.613-1.475L13.466 25h2.94c.431 0 .782.35.782.781v5.867zm6.708-9.773l-1.597 1.597-.841-3.366c.15-.066.292-.149.425-.245l2.013 2.014zm4.224-2.014c.133.096.273.179.424.245l-.841 3.366-1.597-1.597 2.014-2.014zm-2.375 11.883L25 32.49l-.744-.744.662-5.964h.163l.663 5.963zm-.03-8.051l-.35.526h-.727l-.351-.526.714-.713.713.713zm17.444-4.943h1.373c0 .862-.7 1.563-1.562 1.563v1.562a3.115 3.115 0 002.69-1.563h.435a1.564 1.564 0 010 3.126h-4.688v-3.583l.647-.647c.29-.292.694-.458 1.105-.458zm-12.69-5.469h-.062c.037-.256.063-.515.063-.781v-2.344a1.564 1.564 0 010 3.125zm-10.937 0a1.563 1.563 0 010-3.125V12.5c0 .266.026.525.063.781h-.063zm0-6.25v1.563c-.478 0-.926.116-1.332.31a5.094 5.094 0 01-.23-1.482c0-2.8 2.278-5.078 5.078-5.078h3.906c2.8 0 5.078 2.278 5.078 5.078 0 .502-.084 1.001-.23 1.481a3.087 3.087 0 00-1.332-.31h-.066a3.897 3.897 0 00-2.605-3.015l-.514-.172-.29.145a14.086 14.086 0 01-6.269 1.48h-1.194zm1.563 5.469V8.59a15.668 15.668 0 006.302-1.497 2.34 2.34 0 011.51 2.19V12.5A3.91 3.91 0 0125 16.406a3.91 3.91 0 01-3.906-3.906zM25 17.969c.727 0 1.42-.146 2.055-.404l.104.735c.013.087.039.168.06.25L25 20.77l-2.22-2.22c.022-.082.048-.163.06-.25l.105-.735a5.436 5.436 0 002.055.404zM2.344 21.875c0-.862.7-1.563 1.562-1.563h.435a3.115 3.115 0 002.69 1.563v-1.563c-.861 0-1.562-.7-1.562-1.562h1.373c.411 0 .814.166 1.105.458l.647.647v3.582H3.906c-.861 0-1.562-.7-1.562-1.562zM11.569 25h.3l1.022 4.774a8.711 8.711 0 00-1.172-.087c-.4 0-.788.037-1.174.09L11.57 25zM31.25 47.656h-3.325l-1.467-4.889a5.546 5.546 0 00-3.555-3.664l-.494 1.482a3.968 3.968 0 011.624 1.033 5.512 5.512 0 00-.492 1.148l-1.466 4.89H18.75V37.5c0-.43.35-.781.781-.781H30.47c.431 0 .781.35.781.781v10.156zm14.063-9.375a7.04 7.04 0 01-7.032 7.032c-2.15 0-4.125-.96-5.468-2.628V37.5c0-.602-.236-1.147-.61-1.563.375-.415.61-.96.61-1.562v-.498a6.969 6.969 0 015.468-2.627 7.04 7.04 0 017.032 7.031zm-5.858-8.504a8.557 8.557 0 00-1.174-.09 8.75 8.75 0 00-1.172.087L38.13 25h.3l1.024 4.777z" fill="#333"/><path d="M37.5 32.813v1.675a2.226 2.226 0 00-1.563 2.117c0 .85.472 1.614 1.233 1.994l1.523.762a.668.668 0 01-.298 1.264h-.227a.669.669 0 01-.668-.667v-.895h-1.563v.895c0 .995.66 1.83 1.563 2.116v1.676h1.563v-1.676a2.226 2.226 0 001.562-2.116c0-.85-.472-1.614-1.233-1.995l-1.523-.761a.668.668 0 01.298-1.264h.227c.369 0 .669.299.669.667v.114h1.562v-.114c0-.996-.66-1.83-1.563-2.117v-1.675H37.5zm-25 5.145l-2.573-2.573-1.104 1.105 2.115 2.115v2.02H12.5v-2.667z" fill="#333"/></svg>