<svg width="50" height="261" fill="none" xmlns="http://www.w3.org/2000/svg"><path d="M35.263 223.721c4.663 0 8.144 1.769 10.443 5.306 2.28 3.537 3.419 8.97 3.419 16.299 0 3.097-.105 6.045-.314 8.842-.188 2.775-.512 4.613-.972 5.514-.48.879-1.443 1.318-2.885 1.318H4.498c-1.275 0-2.185-.324-2.728-.971-.544-.67-.91-2.578-1.098-5.722-.188-3.144-.282-5.93-.282-8.357 0-14.588 4.349-21.882 13.046-21.882h1.286c2.195 0 4.16.566 5.896 1.699 1.714 1.133 2.979 2.751 3.794 4.855 1.798-4.6 5.05-6.901 9.754-6.901h1.097zm-20.416 9.953h-.91c-2.257 0-3.846.913-4.766 2.739-.94 1.827-1.411 5.006-1.411 9.537 0 1.456.052 3.19.156 5.201h13.015v-9.016c0-5.641-2.028-8.461-6.084-8.461zm20.29-.278h-.846c-2.153 0-3.826.74-5.018 2.22-1.191 1.479-1.787 3.652-1.787 6.519v9.016h14.143l.126-5.825c0-4.208-.48-7.248-1.443-9.121-.982-1.872-2.707-2.809-5.174-2.809zm-6.052-62.961c6.523 0 11.5 1.769 14.928 5.306 3.408 3.514 5.112 8.496 5.112 14.946 0 6.427-1.704 11.409-5.112 14.946-3.429 3.514-8.405 5.271-14.928 5.271H20.43c-6.774 0-11.803-1.826-15.085-5.479C2.042 201.772.39 196.86.39 190.687c0-6.45 1.714-11.432 5.143-14.946 3.429-3.537 8.394-5.306 14.896-5.306h8.656zm0 9.953H20.43c-4.182 0-7.266.832-9.252 2.496-2.007 1.665-3.01 4.266-3.01 7.803 0 3.514 1.003 6.115 3.01 7.803 1.986 1.664 5.07 2.496 9.252 2.496h8.655c4.203 0 7.307-.832 9.314-2.496 1.986-1.688 2.98-4.289 2.98-7.803 0-3.537-.993-6.138-2.98-7.803-2.007-1.664-5.111-2.496-9.314-2.496zm16.966-64.487c.711 0 1.317.289 1.82.867.501.554.752 1.213.752 1.976v7.179c0 1.109-.125 1.976-.376 2.6-.251.625-.9 1.203-1.945 1.734l-31.267 15.779c-.334.185-.501.393-.501.624 0 .231.167.347.501.347h32.302c.356 0 .659.138.91.416.25.254.376.566.376.936v6.034c0 .393-.125.728-.376 1.006a1.184 1.184 0 01-.91.416H3.463c-.71 0-1.317-.278-1.819-.832-.502-.555-.752-1.226-.752-2.012v-7.664c0-.878.167-1.525.501-1.941.335-.417.858-.81 1.568-1.18l33.023-16.541c.335-.162.502-.347.502-.555 0-.254-.198-.381-.596-.381H2.115c-.816 0-1.223-.451-1.223-1.353v-6.103c0-.902.407-1.352 1.223-1.352H46.05zM30.967 61.227c12.105 0 18.158 6.508 18.158 19.524 0 13.039-6.053 19.558-18.158 19.558H2.115c-.335 0-.617-.138-.847-.416a1.447 1.447 0 01-.376-1.005v-7.04c0-.393.125-.728.376-1.006.23-.277.512-.416.847-.416h28.852c3.826 0 6.586-.682 8.28-2.046 1.672-1.387 2.508-3.93 2.508-7.629 0-3.468-.763-5.941-2.29-7.421-1.547-1.48-4.38-2.22-8.498-2.22H2.115c-.335 0-.617-.138-.847-.416a1.446 1.446 0 01-.376-1.005v-7.04c0-.393.125-.728.376-1.005.23-.278.512-.417.847-.417h28.852zM47.65 0c.649 0 .973.393.973 1.179v7.178c0 .3-.125.567-.376.798a1.369 1.369 0 01-.91.347H17.482c-.44 0-.659.07-.659.208 0 .092.69.52 2.07 1.283l10.349 5.757c.899.508 1.348 1.317 1.348 2.427v7.144c0 1.086-.365 1.849-1.097 2.288l-9.346 5.237c-2.216 1.248-3.324 1.919-3.324 2.011 0 .139.22.208.659.208h29.855c.335 0 .638.116.91.347.25.231.376.497.376.797v7.179c0 .786-.324 1.179-.972 1.179H3.463c-.71 0-1.317-.278-1.819-.833-.502-.554-.752-1.225-.752-2.01v-5.792c0-1.202.512-2.08 1.536-2.636L15.82 26.98c4.37-2.38 6.66-3.64 6.868-3.78.21-.138.314-.277.314-.416 0-.161-.22-.37-.659-.624l-16.15-8.843c-2.697-1.48-4.16-2.323-4.39-2.531a2.742 2.742 0 01-.628-.902 2.855 2.855 0 01-.282-1.248V2.844c0-.786.26-1.457.784-2.012C2.177.277 2.773 0 3.463 0h44.188z" fill="#fff" fill-opacity=".1"/></svg>