<svg width="669" height="453" fill="none" xmlns="http://www.w3.org/2000/svg"><path d="M361.269 244.167c.68-5.663 1.133-11.552 1.133-17.667 0-6.116-.453-12.005-1.359-17.667l38.278-29.898c3.398-2.718 4.304-7.701 2.265-11.552l-36.24-62.74c-2.265-4.077-7.021-5.436-11.098-4.077l-45.074 18.12c-9.513-7.248-19.479-13.137-30.577-17.667l-6.795-48.018c-.68-4.53-4.53-7.701-9.06-7.701h-72.48c-4.53 0-8.154 3.17-8.834 7.7l-6.795 48.019c-11.098 4.53-21.291 10.645-30.577 17.667l-45.074-18.12c-4.077-1.586-8.833 0-11.098 4.077l-36.24 62.74c-2.265 4.077-1.36 8.834 2.265 11.552l38.278 29.898c-.906 5.662-1.585 11.778-1.585 17.667 0 5.889.453 12.004 1.359 17.667l-38.279 29.898c-3.397 2.718-4.303 7.701-2.265 11.551l36.24 62.741c2.265 4.077 7.022 5.436 11.099 4.077l45.073-18.12c9.513 7.248 19.479 13.137 30.578 17.667l6.795 48.018c.906 4.53 4.53 7.701 9.06 7.701h72.48c4.53 0 8.38-3.171 8.833-7.701l6.795-48.018c11.099-4.53 21.291-10.646 30.578-17.667l45.073 18.12c4.077 1.585 8.834 0 11.099-4.077l36.24-62.741c2.265-4.077 1.359-8.833-2.265-11.551l-37.826-29.898zM226.502 294.45c-37.373 0-67.95-30.578-67.95-67.95 0-37.373 30.577-67.95 67.95-67.95 37.372 0 67.95 30.577 67.95 67.95 0 37.372-30.578 67.95-67.95 67.95z" fill="#A6A4A6" fill-opacity=".1"/><path d="M599.95 170.015c.191-3.671.226-7.478-.039-11.411-.266-3.933-.813-7.701-1.642-11.303l23.319-20.891c2.067-1.896 2.433-5.14.955-7.528L596.51 80.107c-1.634-2.524-4.752-3.191-7.315-2.14l-28.201 13.612c-6.432-4.248-13.098-7.603-20.432-10.034l-6.456-30.586c-.634-2.884-3.248-4.756-6.162-4.56l-46.614 3.15c-2.913.196-5.106 2.393-5.346 5.336L473.7 86.062c-6.941 3.395-13.23 7.771-18.897 12.69l-29.776-9.695c-2.691-.842-5.681.384-6.96 3.105l-20.581 41.924c-1.28 2.72-.491 5.74 1.958 7.331l25.917 17.565c-.337 3.681-.508 7.643-.252 11.431.256 3.787.813 7.701 1.642 11.303l-23.319 20.891c-2.067 1.896-2.434 5.14-.955 7.528l26.032 38.775c1.634 2.524 4.752 3.191 7.315 2.14l28.201-13.612c6.433 4.248 13.098 7.603 20.433 10.034l6.456 30.586c.779 2.874 3.248 4.756 6.161 4.559l46.614-3.149c2.913-.196 5.252-2.403 5.347-5.336l2.283-31.177c6.941-3.395 13.231-7.771 18.898-12.69l29.775 9.695c2.691.842 5.681-.384 6.961-3.105l20.581-41.924c1.279-2.72.49-5.74-1.959-7.331l-25.625-17.585zm-84.488 38.194c-24.035 1.624-45.029-16.713-46.653-40.748-1.623-24.036 16.713-45.029 40.749-46.653 24.035-1.624 45.028 16.713 46.652 40.748 1.624 24.036-16.713 45.029-40.748 46.653z" fill="#A6A4A6" fill-opacity=".1"/></svg>