<svg width="47" height="60" fill="none" xmlns="http://www.w3.org/2000/svg"><path d="M45.1 11.569L23.875.259a2.2 2.2 0 00-2.096.013L1.145 11.582A2.203 2.203 0 000 13.512v16.01C0 42.101 7.465 53.5 19.021 58.567l2.864 1.248a2.197 2.197 0 001.754.003l3.225-1.392c11.787-4.988 19.402-16.448 19.402-29.198V13.513a2.2 2.2 0 00-1.167-1.944zm-3.24 17.66c0 10.98-6.563 20.848-16.72 25.143a.51.51 0 01-.016.006l-2.354 1.017-1.983-.866c-9.951-4.362-16.38-14.178-16.38-25.007V14.818l18.448-10.11L41.86 14.835v14.393z" fill="#333"/><path d="M34.537 24.094a2.203 2.203 0 00-3.1-.319l-11.33 9.217-4.185-4.9a2.203 2.203 0 10-3.35 2.861l5.581 6.536a2.198 2.198 0 003.065.278l13-10.574a2.202 2.202 0 00.319-3.1z" fill="#333"/></svg>