<svg width="60" height="60" fill="none" xmlns="http://www.w3.org/2000/svg"><path d="M59.992 46.82l-.014-.394-.015-.396-.003-.099-.002-.05v-.012l-.002-.111v-.005l-.002-.02-.013-.165-.051-.662-.013-.167-.02-.216-.04-.432-.043-.43a193.67 193.67 0 01-.022-.213l-.026-.197c-.072-.52-.136-1.032-.228-1.524-.043-.246-.083-.488-.128-.724l-.144-.69c-.088-.447-.2-.866-.293-1.253a507.87 507.87 0 01-.07-.284l-.075-.27-.14-.495c-.046-.156-.085-.302-.126-.435l-.117-.367-.132-.408a.311.311 0 00-.381-.203l-10.144 2.89a.311.311 0 00-.221.357l.037.202.048.252c.017.092.03.193.046.3l.052.34c.01.06.02.12.028.183l.022.194c.028.264.07.548.09.852l.038.465c.01.158.015.322.023.486.022.33.018.672.024 1.018l.002.129-.005.114-.008.228-.006.229-.002.114-.007.164-.029.663-.007.165v.026l-.002-.101v.008l-.004.032-.006.066-.023.259-.023.256-.03.253c-.021.167-.035.333-.061.495l-.07.476-.078.452c-.023.147-.054.29-.082.426-.028.137-.051.27-.081.396l-.084.362-.038.166-.037.134-.02.077H59.64a.31.31 0 00.31-.296l.001-.003.032-.711.014-.742c.007-.251 0-.507-.001-.765l-.005-.39zm-3.226-13.023a.311.311 0 00.165-.422l-.119-.251-.14-.297a634.591 634.591 0 00-.461-.931c-.044-.091-.087-.166-.132-.25l-.138-.256c-.095-.173-.192-.354-.295-.54a982.09 982.09 0 01-.332-.568l-.174-.296a663.32 663.32 0 01-.186-.299l-.386-.613c-.276-.407-.552-.833-.859-1.248l-.227-.314-.114-.157-.12-.155-.478-.62c-.163-.204-.33-.405-.496-.605-.083-.1-.164-.202-.249-.3l-.255-.29-.254-.287a8.564 8.564 0 00-.254-.281l-.51-.543c-.167-.177-.34-.344-.505-.51-.166-.166-.327-.33-.492-.48l-.475-.445c-.153-.144-.309-.275-.454-.404l-.42-.368-.39-.32-.341-.28c-.106-.087-.208-.162-.297-.232l-.327-.25a.31.31 0 00-.43.048l-5.444 6.59a.311.311 0 00.021.42l.157.155c.057.057.122.117.188.188l.216.227.245.258.262.295c.09.104.188.207.282.322l.293.352c.102.118.2.247.301.377.1.131.207.26.308.399l.306.42a4.2 4.2 0 01.152.217l.15.221.153.223c.05.074.097.152.146.228.096.154.195.305.29.46l.276.468.069.116.064.118.129.236c.176.309.325.627.481.926l.21.452.102.218.093.216.177.414.154.391.072.184c.022.059.05.122.064.17l.1.291.089.254.1.297.087.264c.057.17.245.257.412.19l9.44-3.793zM29.04 22.026l.274.037.32.056.362.062c.111.019.226.045.346.07l3.436-7.028-.505-.079c-.113-.017-.225-.036-.336-.05l-.33-.04-.63-.075-.592-.05c-.19-.015-.37-.034-.543-.042l-.49-.024-.43-.02-.367-.007-.393-.004a.31.31 0 00-.314.296l-.313 6.542a.311.311 0 00.268.323l.237.033zm9.235 3.602l.263.19.23.166c.031.021.082.06.124.09l.122.092.223.167a.311.311 0 00.447-.08l4.486-6.833a.31.31 0 00-.105-.44l-.242-.139-.133-.076-.158-.09-.413-.227-.47-.257-.497-.248c-.173-.085-.35-.18-.54-.265l-.586-.268c-.2-.095-.41-.18-.625-.27-.214-.088-.43-.184-.656-.269l-.173-.065-1.935 8.4c.107.067.208.138.307.202l.331.22zm-15.258-3.637c.087-.011.172-.025.257-.034l.251-.026.481-.05.451-.03.212-.014c.07-.005.138-.01.197-.01l.346-.01.303-.01a481.058 481.058 0 01.596-.003.311.311 0 00.309-.332l-.404-6.162a.311.311 0 00-.35-.289l-.276.035-.321.04-.447.067-.508.078c-.091.012-.175.03-.264.046l-.27.052-.573.11-.61.14-.316.072c-.107.025-.214.056-.323.084l-.664.177-.679.204c-.114.036-.23.07-.345.107l-.345.118-.348.119c-.116.04-.232.08-.347.125l-.693.264c-.23.09-.456.19-.683.284-.113.048-.226.095-.338.144-.11.051-.221.103-.332.153l-.328.152c-.11.05-.218.1-.323.155l-.626.317c-.206.103-.402.217-.597.321-.194.107-.384.209-.564.319l-.527.312c-.17.1-.329.207-.484.304l-.442.284-.39.268-.343.235c-.105.073-.199.145-.285.207l-.296.22a.311.311 0 00-.073.425l2.56 3.762a.31.31 0 00.41.096l.229-.129c.076-.042.159-.092.252-.14.093-.05.194-.102.302-.158l.342-.179.386-.185c.135-.063.272-.135.42-.198l.453-.199c.155-.07.318-.133.484-.2.166-.064.332-.136.507-.198l.529-.19c.088-.034.18-.063.27-.092l.276-.089.276-.089c.093-.028.187-.053.281-.08.188-.052.375-.11.564-.159l.569-.14a4.46 4.46 0 01.283-.064l.283-.06.28-.059c.093-.018.186-.033.278-.05l.546-.094.53-.074zM5.569 26.855l-.202.286-.203.288c-.068.096-.131.197-.197.295-.13.198-.262.395-.39.595l-.371.605-.092.151-.088.153-.174.305c-.236.401-.441.811-.65 1.2l-.286.586-.137.283-.127.28-.24.538-.211.508c-.066.163-.133.318-.19.468l-.16.426-.14.375a483.426 483.426 0 00-.22.648.311.311 0 00.185.39l2.382.912a.311.311 0 00.392-.156l.124-.259.131-.272.164-.316.186-.36c.066-.125.142-.254.217-.39l.238-.424.269-.445.14-.232.15-.233.31-.479c.224-.317.443-.65.69-.973l.183-.245.091-.123.096-.12.383-.482c.13-.16.265-.314.396-.47.067-.078.13-.156.199-.232l.204-.225.202-.223c.066-.074.133-.147.202-.217l.405-.42c.133-.137.271-.265.402-.394.132-.128.26-.254.39-.37l.377-.342c.12-.111.245-.21.36-.31l.33-.283.294-.232.256-.204c.037-.03.086-.066.128-.098l.122-.092.222-.168a.311.311 0 00.049-.45L9.648 22.73a.311.311 0 00-.452-.022l-.2.193-.111.106c-.04.038-.077.073-.125.122l-.301.304-.34.345-.352.38c-.12.134-.25.268-.377.416l-.39.455c-.136.154-.268.32-.404.487-.134.169-.276.337-.41.516l-.412.543c-.07.09-.137.185-.204.28zM.641 37.993l-.055.273-.064.314c-.023.117-.045.256-.07.397l-.078.453c-.013.08-.028.162-.04.245l-.035.252c-.045.345-.103.715-.137 1.111l-.06.607c-.017.207-.028.42-.043.635-.034.43-.04.876-.054 1.328l-.005.17v.17a11687.538 11687.538 0 01.005.684v.172l.007.172.028.684.007.17.002.056.003.04.006.083.025.327.024.324.032.336.033.33.016.164.02.16.08.623c.03.203.061.402.091.595.028.193.064.38.097.56l.008.043a.311.311 0 00.306.255h.84c.178 0 .32-.151.31-.33a22.34 22.34 0 00-.009-.145c-.01-.174-.023-.353-.027-.538l-.019-.57-.003-.593-.001-.152.003-.15.007-.304.007-.308.015-.325.015-.328.004-.082.002-.041v-.005.008l.001-.01.002-.02.012-.16.051-.639.013-.16.019-.158.036-.318.037-.316.018-.157.023-.156c.064-.415.118-.823.198-1.214.037-.196.07-.388.109-.576l.122-.547c.074-.356.169-.688.247-.995l.058-.225c.02-.072.042-.14.062-.208l.114-.383c.037-.12.067-.229.102-.338l.1-.304.089-.264a.311.311 0 00-.216-.399l-2.104-.561a.311.311 0 00-.386.238zM24.462 48.9a4.843 4.843 0 006.847-3.264l4.9-21.265 1.866-8.1 1.156-5.016c.134-.584-.33-.982-.796-.982a.762.762 0 00-.7.451l-2.352 4.812-3.47 7.098-9.675 19.788a4.844 4.844 0 002.224 6.479zm2.304-6.848a2.374 2.374 0 110 4.748 2.374 2.374 0 010-4.748z" fill="#333"/></svg>