<svg width="60" height="60" fill="none" xmlns="http://www.w3.org/2000/svg"><g clip-path="url(#clip0)" fill="#333"><path d="M54.431 8.103a1 1 0 00-.887.008l-4.31 2.185-3.373-5.793a6.612 6.612 0 00-5.864-3.5H23.331a7.13 7.13 0 00-6.083 3.438l-3.1 5.038a1 1 0 00.316 1.367l10.998 7a1 1 0 001.41-.358l4.2-7.556 4.6 8.699-4.188 2.512a1 1 0 00.4 1.852l14.882 1.692a1 1 0 001.013-.558l7.116-14.69a1 1 0 00-.464-1.336zM25.64 15.588l-9.273-5.9 2.59-4.207a5.126 5.126 0 014.374-2.478h4.06l2.477 4.975-4.228 7.61zm20.648 7.032l-11.246-1.279 2.47-1.483a1 1 0 00.37-1.323L29.668 3.003h10.328a4.66 4.66 0 014.136 2.5l3.847 6.612a1 1 0 001.316.387l2.506-1.27-5.514 11.388zm12.837 6.384l-3.232-6.455a1 1 0 00-1.4-.416l-11.998 7a1 1 0 00-.37 1.349l4.171 7.517h-9.299v-4a1 1 0 00-1.74-.672l-9.999 10.998a1 1 0 00-.052 1.283l10 12.999a1 1 0 001.791-.61v-3h7a6.4 6.4 0 005.863-3.5l6.999-11.992 2.08-3.36a7.086 7.086 0 00.186-7.14zM48.12 50.514a4.455 4.455 0 01-4.125 2.484h-7.999a1 1 0 00-1 1v1.06l-7.699-10.005 7.7-8.468V39a1 1 0 001 1h18.256L48.12 50.515zm9.113-15.417l-1.8 2.9h-6.85l-4.238-7.626 10.232-5.97 2.775 5.54a5.106 5.106 0 01-.119 5.156zm-33.326-4.516l-6-12.998a1 1 0 00-.97-.581l-15.999 1a1 1 0 00-.465 1.848l.001.002 4.944 3.065-3.3 6.608a7.2 7.2 0 00.018 6.975L7.7 46.109l3.043 5.27a7.345 7.345 0 006.256 3.619h4a1 1 0 001-1V40a1 1 0 00-1-1h-7.47l4.987-8.654 4.124 1.587a1 1 0 001.267-1.352zM19.998 41v12h-3a5.313 5.313 0 01-4.526-2.618l-2.745-4.755L12.559 41h7.439zm-1.563-12.827a1 1 0 00-1.225.434L8.562 43.612 3.867 35.5a5.2 5.2 0 01.034-5.053l3.718-7.454a1 1 0 00-.368-1.3l-3.058-1.891 12.185-.76 4.68 10.14-2.622-1.01z"/></g><defs><clipPath id="clip0"><path fill="#fff" d="M0 0h60v60H0z"/></clipPath></defs></svg>