<svg width="60" height="60" fill="none" xmlns="http://www.w3.org/2000/svg"><g clip-path="url(#clip0)" fill="#333"><path d="M42.782 41.994a1.172 1.172 0 10-1.657 1.657l2.7 2.7a1.168 1.168 0 001.657 0l4.8-4.8a1.172 1.172 0 00-1.658-1.657l-3.971 3.972-1.871-1.872z"/><path d="M59.177 30.87L46.08 26.782a1.167 1.167 0 00-.376-.063h-.002a1.19 1.19 0 00-.376.062l-1.427.446a26.419 26.419 0 00-6.48-12.315 2.552 2.552 0 00-2.801-.644 2.552 2.552 0 00-1.639 2.36l-.009.721a7.627 7.627 0 01-2.888 5.872V18.5c0-3.51-.819-7.027-2.37-10.176a23.152 23.152 0 00-6.62-8.08 1.173 1.173 0 00-1.887.928c0 4.704-1.625 9.312-4.575 12.975a25.34 25.34 0 00-5.538 14.33 9.989 9.989 0 01-1.719-4.042l-.09-.49a1.918 1.918 0 00-1.588-1.564 1.917 1.917 0 00-2.01.968A29.206 29.206 0 000 37.533v.021c0 2.825.518 5.584 1.54 8.2a1.172 1.172 0 102.183-.853 20.104 20.104 0 01-1.38-7.347v-.021c0-4.176.986-8.314 2.859-12.04a12.333 12.333 0 004.283 6.772 1.173 1.173 0 001.905-.914v-1.37a22.974 22.974 0 015.066-14.364 23.12 23.12 0 004.962-12c3.992 3.87 6.32 9.28 6.32 14.883v6.786a1.173 1.173 0 001.646 1.072 9.972 9.972 0 005.93-8.98l.009-.721c0-.037.002-.15.14-.203a.202.202 0 01.241.055 24.088 24.088 0 015.95 11.42l-9.425 2.941c-.49.153-.823.606-.823 1.119v10.96c0 1.1.105 2.18.304 3.229-.033-.086-.065-.173-.101-.258a1.421 1.421 0 00-.02-.045c-.252-.59-.564-1.16-.927-1.696a103.69 103.69 0 00-.985-1.645c-1.947-3.208-3.787-6.24-3.038-9.467a1.171 1.171 0 00-1.569-1.357c-2.048.802-3.88 2.412-5.157 4.535-.33.55-.607 1.11-.824 1.66-1.738-1.82-3.743-2.064-3.859-2.076a1.176 1.176 0 00-1.204 1.626c.059.138 1.396 3.39-.338 7.005a10.248 10.248 0 00-.616 1.126 10.042 10.042 0 00-.945 4.276c0 2.259.743 4.347 1.997 6.035a19.815 19.815 0 01-4.654-2.943 1.172 1.172 0 10-1.516 1.787A22.167 22.167 0 0022.264 60h.002l.02-.001a22.184 22.184 0 0014.018-4.983 17.29 17.29 0 009.179 4.962 1.147 1.147 0 00.44 0C54.08 58.417 60 51.254 60 42.95V31.99c0-.513-.333-.966-.823-1.119zM15.213 46.54a1.238 1.238 0 00.553-.995c1.217-2.492 1.266-4.86 1.04-6.545.673.516 1.386 1.34 1.871 2.651a1.171 1.171 0 002.228-.72c-.301-1.082.852-4.148 3.221-6.001.12 3.172 1.857 6.035 3.548 8.82.327.54.667 1.099.982 1.642l.046.074c.291.425.54.879.74 1.347l.005.012c.407.961.613 1.983.613 3.037 0 4.283-3.473 7.77-7.75 7.794h-.103c-4.27-.033-7.736-3.516-7.736-7.794 0-1.16.25-2.278.742-3.321zm15.168 9.392a10.085 10.085 0 001.925-7.476 17.357 17.357 0 002.484 4.771 19.87 19.87 0 01-4.409 2.705zm27.275-12.983c0 7.108-5.013 13.247-11.953 14.685-6.94-1.438-11.953-7.577-11.953-14.685V32.85l11.953-3.731 11.953 3.731v10.1z"/><path d="M45.354 31.683l-8.438 2.635a1.17 1.17 0 00-.822 1.118v7.513c0 5.68 3.824 10.697 9.299 12.2a1.168 1.168 0 00.62 0c5.475-1.503 9.3-6.52 9.3-12.2v-7.513a1.17 1.17 0 00-.823-1.118l-8.438-2.635a1.172 1.172 0 00-.698 0zm7.615 4.615v6.651c0 4.52-2.972 8.524-7.266 9.85a10.335 10.335 0 01-7.266-9.85v-6.651l7.266-2.269 7.266 2.269zM5.144 48.792c-.308 0-.61.125-.828.343a1.18 1.18 0 00-.343.829c0 .308.125.61.343.828.218.218.52.344.828.344.308 0 .611-.126.829-.344a1.18 1.18 0 00.343-.828c0-.308-.125-.61-.343-.829a1.181 1.181 0 00-.829-.343z"/></g><defs><clipPath id="clip0"><path fill="#fff" d="M0 0h60v60H0z"/></clipPath></defs></svg>