<svg width="60" height="60" fill="none" xmlns="http://www.w3.org/2000/svg"><path d="M54.172 47.2a10.624 10.624 0 00-7.134-8.348l-8.328-2.775v-1.238h-1.935v1.593c-.536.592-2.44 2.278-6.774 2.278-4.335 0-6.239-1.686-6.775-2.278v-1.593h-1.935v1.238l-8.327 2.775a10.624 10.624 0 00-7.134 8.349L3.696 60h52.608l-2.132-12.8zM5.982 58.066l.31-1.868 6.433.804c.066.407.15.759.243 1.064H5.982zm6.607-3.03l-5.978-.747L7.74 47.52a8.692 8.692 0 015.837-6.831l.067-.022.845 8.456c-.51.85-1.855 3.333-1.9 5.912zm32.37 3.03H15.042c-.21-.42-.525-1.309-.525-2.904 0-2.565 1.755-5.243 1.774-5.27l.19-.288-.956-9.564 6.43-2.143c.955.958 3.366 2.75 8.046 2.75s7.09-1.792 8.045-2.75l6.429 2.143-.956 9.565.192.288c.019.026 1.773 2.688 1.773 5.27 0 1.594-.315 2.483-.525 2.903zm1.4-17.398l.066.022a8.692 8.692 0 015.837 6.831l1.128 6.768-5.978.747c-.044-2.578-1.388-5.063-1.9-5.912l.846-8.456zm.675 17.398c.094-.305.176-.657.243-1.064l6.432-.804.31 1.868h-6.985z" fill="#333"/><path d="M17.848 26.075a10.58 10.58 0 002.69 4.54l3.773 3.775a4.808 4.808 0 003.422 1.416h4.535a4.808 4.808 0 003.422-1.416l3.773-3.774a10.594 10.594 0 002.69-4.541c2.412-.273 4.3-2.301 4.3-4.785a4.858 4.858 0 00-1.936-3.866V9.012C44.517 4.043 40.473 0 35.505 0h-11.01c-4.968 0-9.01 4.043-9.01 9.012v8.412a4.855 4.855 0 00-1.936 3.866c0 2.484 1.887 4.512 4.299 4.785zm22.798-2.987a8.657 8.657 0 01-2.551 6.16L34.32 33.02a2.887 2.887 0 01-2.053.85h-4.535a2.886 2.886 0 01-2.053-.85l-3.774-3.774a8.657 8.657 0 01-2.55-6.159v-3.033a7.522 7.522 0 001.935.268c1.458 0 2.472-.416 3.546-.857 1.291-.531 2.628-1.079 5.163-1.079 2.536 0 3.872.548 5.164 1.08 1.073.44 2.088.856 3.546.856.704 0 1.344-.112 1.936-.268v3.033zm-1.936-4.7c-1.076 0-1.842-.315-2.81-.713-1.329-.545-2.982-1.223-5.9-1.223-2.917 0-4.57.678-5.899 1.223-.969.398-1.734.712-2.81.712-1.582 0-2.844-.684-3.547-1.172 1.077-1.41 4.396-4.634 12.256-4.634 7.872 0 11.19 3.234 12.26 4.637-.696.488-1.951 1.17-3.55 1.17zm5.807 2.902a2.897 2.897 0 01-1.981 2.739c.027-.31.045-.624.045-.94v-3.8c.24-.133.452-.264.643-.39a2.9 2.9 0 011.293 2.391zM17.42 9.012a7.084 7.084 0 017.076-7.077h11.008a7.085 7.085 0 017.077 7.077v5.724c-1.979-1.825-5.793-4.09-12.58-4.09-6.788 0-10.602 2.265-12.581 4.09V9.012zm-.643 9.885c.19.128.404.259.643.39v3.8c0 .317.018.63.045.942a2.897 2.897 0 01-1.98-2.739c0-.964.499-1.855 1.292-2.393zm22.256 28.786a2.888 2.888 0 01-2.89 2.64H23.858a2.89 2.89 0 01-2.892-2.64l-.647-7.125-1.928.175.648 7.126a4.816 4.816 0 004.82 4.4h12.283a4.815 4.815 0 004.819-4.401l.648-7.125-1.928-.175-.648 7.125z" fill="#333"/></svg>