<svg width="60" height="60" fill="none" xmlns="http://www.w3.org/2000/svg"><g clip-path="url(#clip0)" fill="#333"><path d="M59.144 26.067l-.01-.032a1.172 1.172 0 00-.77-.836c-.143-.048-3.58-1.166-8.488-.822-4.518.317-11.197 1.988-17.357 8.148s-7.83 12.838-8.147 17.356c-.344 4.908.774 8.344.822 8.488.117.352.392.627.743.743.125.042 2.725.888 6.613.888.597 0 1.223-.02 1.876-.066 4.517-.316 11.196-1.987 17.356-8.147 10.9-10.9 8.045-23.337 7.362-25.72zM47.109 27.1c.926-.18 1.87-.305 2.83-.377 2.374-.176 4.385.03 5.754.263-.058.04-.114.086-.166.137l-8.418 8.418V27.1zm-2.344.578v10.207L36.91 45.74V31.888a1.06 1.06 0 00-.006-.114c2.431-1.882 5.058-3.25 7.861-4.097zM26.71 50.045c.42-5.992 2.932-11.329 7.467-15.863.129-.13.259-.256.39-.382v14.23l.002.05-7.596 7.596a23.946 23.946 0 01-.263-5.631zm7.652 7.544a24.01 24.01 0 01-5.729-.259l3.661-3.66h13.522a23.648 23.648 0 01-11.454 3.919zm15.762-7.46c-.416.417-.839.816-1.268 1.198H34.637l6.802-6.802H54.46c-1.077 1.87-2.491 3.76-4.337 5.605zm5.526-7.948H43.782L57.184 28.78c.05-.05.093-.104.132-.16.486 2.827.794 7.967-1.666 13.561z"/><path d="M27.48 32.525c-6.16-6.16-12.838-7.83-17.356-8.148-4.907-.344-8.345.774-8.489.822a1.172 1.172 0 00-.77.836l-.009.032c-.683 2.383-3.537 14.82 7.362 25.72 3.458 3.458 7.419 5.862 11.772 7.144a1.171 1.171 0 10.662-2.248c-3.973-1.17-7.598-3.375-10.776-6.553-2.77-2.77-4.571-5.642-5.714-8.39h11.614l5.656 5.656a1.168 1.168 0 001.657 0c.458-.458.458-1.2 0-1.658l-1.292-1.291V30.828a27.938 27.938 0 014.026 3.353 1.172 1.172 0 101.658-1.657zm-17.52-5.81c.513.036 1.022.089 1.525.155v7.264l-7.079-7.079a1.203 1.203 0 00-.084-.075 23.935 23.935 0 015.638-.265zm-6.63 12.68a23.97 23.97 0 01-.65-10.758c.022.026.045.052.069.076l10.683 10.683H3.33zm16.124 2.708l-5.625-5.625v-9.18a23.424 23.424 0 015.625 2.116v12.689z"/><path d="M22.133 52.688a20.804 20.804 0 01-6.39-3.178 1.172 1.172 0 00-1.382 1.893 23.136 23.136 0 007.11 3.533 1.171 1.171 0 10.662-2.248zm-9.208-5.599l-.004-.004a1.17 1.17 0 00-1.655.002 1.175 1.175 0 001.659 1.66c.457-.458.457-1.2 0-1.658zm2.093-32.206H8.672V9.785h4.371a1.172 1.172 0 100-2.344h-4.37V2.344h6.345a1.172 1.172 0 000-2.344H7.5a1.17 1.17 0 00-1.17 1.172v14.882a1.17 1.17 0 001.171 1.172h7.518a1.172 1.172 0 000-2.343zM45 0c-4.75 0-8.614 3.864-8.614 8.613 0 4.75 3.864 8.613 8.613 8.613 4.75 0 8.613-3.864 8.613-8.613C53.612 3.863 49.75 0 45 0zm0 14.882a6.276 6.276 0 01-6.27-6.269A6.276 6.276 0 0145 2.343a6.276 6.276 0 016.269 6.27 6.276 6.276 0 01-6.27 6.27zm-13.18-1.836a6.276 6.276 0 01-8.866 0 6.276 6.276 0 010-8.866 6.276 6.276 0 018.867 0 1.172 1.172 0 001.657-1.657c-3.358-3.359-8.823-3.359-12.18 0-3.359 3.358-3.359 8.822 0 12.18a8.586 8.586 0 006.09 2.519c2.205 0 4.41-.84 6.09-2.519a1.172 1.172 0 00-1.657-1.657zm-1.812 6.918c-.647 0-1.172.524-1.172 1.172v3.314a1.172 1.172 0 102.344 0v-3.314c0-.648-.525-1.172-1.172-1.172zm6.839 3.228a1.172 1.172 0 00-1.658 0l-2.39 2.39a1.172 1.172 0 001.658 1.657l2.39-2.39c.457-.458.457-1.2 0-1.657zm-9.643 2.355l-2.393-2.394a1.172 1.172 0 00-1.658 1.658l2.394 2.393a1.168 1.168 0 001.657 0 1.17 1.17 0 000-1.657z"/></g><defs><clipPath id="clip0"><path fill="#fff" d="M0 0h60v60H0z"/></clipPath></defs></svg>